Recursive Mono-Casual Bold Italic.ufo
<glyph name="exclam" format="2">
  <advance width="600.0"/>
  <unicode hex="0021"/>
  <outline>
    <contour>
      <point x="380.0330188679245" y="282.688679245283" type="line"/>
      <point x="385.88679245283015" y="354.7877358490566"/>
      <point x="407.5707547169811" y="425.5943396226415"/>
      <point x="439.1556603773585" y="518.4716981132076" type="curve" smooth="yes"/>
      <point x="459.4198113207547" y="577.6556603773585" type="line" smooth="yes"/>
      <point x="488.12735849056605" y="662.1933962264151"/>
      <point x="448.5377358490566" y="710.0"/>
      <point x="369.70283018867923" y="710.0" type="curve" smooth="yes"/>
      <point x="333.9198113207547" y="710.0"/>
      <point x="313.1132075471698" y="706.1462264150944"/>
      <point x="292.45283018867923" y="700.5849056603773" type="curve"/>
      <point x="300.45283018867923" y="653.2169811320755"/>
      <point x="300.4292452830189" y="613.9481132075472"/>
      <point x="289.52830188679246" y="564.2924528301887" type="curve" smooth="yes"/>
      <point x="278.6037735849057" y="517.688679245283" type="line" smooth="yes"/>
      <point x="253.97169811320757" y="407.1792452830189"/>
      <point x="254.94811320754718" y="349.00943396226415"/>
      <point x="270.7547169811321" y="320.0566037735849" type="curve" smooth="yes"/>
      <point x="284.70754716981133" y="294.10377358490564"/>
      <point x="315.1981132075472" y="282.688679245283"/>
      <point x="357.0801886792453" y="282.688679245283" type="curve" smooth="yes"/>
    </contour>
    <component base="period"/>
  </outline>
</glyph>
<glyph name="quotedbl" format="2">
  <advance width="600.0"/>
  <unicode hex="0022"/>
  <outline>
    <contour>
      <point x="263.85377358490564" y="444.8301886792453" type="curve"/>
      <point x="327.6084905660377" y="645.0424528301887" type="line" smooth="yes"/>
      <point x="351.561320754717" y="719.3396226415094"/>
      <point x="322.33962264150944" y="754.0"/>
      <point x="234.08962264150944" y="754.0" type="curve" smooth="yes"/>
      <point x="218.23584905660377" y="754.0"/>
      <point x="203.82075471698113" y="752.8537735849056"/>
      <point x="188.42924528301887" y="750.0" type="curve"/>
      <point x="191.2830188679245" y="725.2924528301887"/>
      <point x="189.42924528301887" y="699.5094339622641"/>
      <point x="179.99056603773585" y="646.7783018867924" type="curve" smooth="yes"/>
      <point x="152.23584905660377" y="497.4669811320755" type="line" smooth="yes"/>
      <point x="144.67452830188677" y="454.683962264151"/>
      <point x="159.94339622641508" y="439.70754716981133"/>
      <point x="212.16509433962264" y="439.70754716981133" type="curve" smooth="yes"/>
      <point x="232.24056603773585" y="439.70754716981133"/>
      <point x="249.75471698113205" y="441.41509433962267"/>
    </contour>
    <contour>
      <point x="500.92924528301893" y="444.8301886792453" type="curve"/>
      <point x="566.8066037735848" y="643.2877358490566" type="line" smooth="yes"/>
      <point x="591.1981132075472" y="716.7783018867924"/>
      <point x="562.8301886792453" y="754.0"/>
      <point x="483.6792452830189" y="754.0" type="curve" smooth="yes"/>
      <point x="466.2877358490566" y="754.0"/>
      <point x="454.01886792452825" y="753.0"/>
      <point x="439.18867924528297" y="750.8537735849056" type="curve"/>
      <point x="391.87264150943395" y="497.4669811320755" type="line" smooth="yes"/>
      <point x="384.311320754717" y="456.39150943396226"/>
      <point x="401.2877358490566" y="439.70754716981133"/>
      <point x="451.8018867924528" y="439.70754716981133" type="curve" smooth="yes"/>
      <point x="471.87735849056605" y="439.70754716981133"/>
      <point x="486.8301886792453" y="441.41509433962267"/>
    </contour>
  </outline>
</glyph>
<glyph name="numbersign" format="2">
  <advance width="600.0"/>
  <unicode hex="0023"/>
  <outline>
    <contour>
      <point x="305.9481132075472" y="710.7311320754717" type="curve"/>
      <point x="234.60377358490564" y="493.3632075471698"/>
      <point x="121.08962264150942" y="188.62735849056605"/>
      <point x="-47.34905660377358" y="1.367924528301887" type="curve"/>
      <point x="-34.5188679245283" y="-8.608490566037737"/>
      <point x="-11.712264150943394" y="-17.43867924528302"/>
      <point x="15.070754716981131" y="-18.29245283018868" type="curve" smooth="yes"/>
      <point x="49.29245283018868" y="-19.14622641509434"/>
      <point x="78.78301886792453" y="-4.047169811320756"/>
      <point x="112.56603773584905" y="40.00471698113208" type="curve" smooth="yes"/>
      <point x="278.39622641509436" y="260.24528301886795"/>
      <point x="356.1981132075472" y="492.872641509434"/>
      <point x="409.2971698113207" y="657.311320754717" type="curve" smooth="yes"/>
      <point x="424.3962264150943" y="703.632075471698"/>
      <point x="406.54245283018867" y="720.0"/>
      <point x="367.66037735849056" y="720.0" type="curve" smooth="yes"/>
      <point x="348.561320754717" y="720.0"/>
      <point x="324.1933962264151" y="718.0"/>
    </contour>
    <contour>
      <point x="513.7547169811321" y="709.0235849056604" type="curve"/>
      <point x="442.5566037735849" y="492.24056603773585"/>
      <point x="328.8962264150943" y="187.77358490566039"/>
      <point x="159.60377358490567" y="-0.33962264150943433" type="curve"/>
      <point x="172.43396226415095" y="-10.316037735849058"/>
      <point x="195.24056603773585" y="-20.0"/>
      <point x="222.02358490566036" y="-20.0" type="curve" smooth="yes"/>
      <point x="256.24528301886795" y="-20.0"/>
      <point x="284.8820754716981" y="-4.900943396226416"/>
      <point x="317.811320754717" y="37.44339622641509" type="curve" smooth="yes"/>
      <point x="486.2028301886793" y="258.53773584905656"/>
      <point x="568.2735849056604" y="491.1650943396226"/>
      <point x="617.9575471698113" y="657.311320754717" type="curve" smooth="yes"/>
      <point x="631.3490566037735" y="701.9245283018868"/>
      <point x="613.4952830188679" y="719.1462264150944"/>
      <point x="574.6132075471697" y="719.1462264150944" type="curve" smooth="yes"/>
      <point x="555.5141509433962" y="719.1462264150944"/>
      <point x="531.1462264150944" y="716.2924528301887"/>
    </contour>
    <contour>
      <point x="623.6367924528302" y="424.97169811320754" type="line"/>
      <point x="627.3443396226415" y="432.24056603773585"/>
      <point x="631.1981132075472" y="440.09433962264154"/>
      <point x="634.0518867924528" y="452.92452830188677" type="curve" smooth="yes"/>
      <point x="641.3207547169811" y="485.9764150943396"/>
      <point x="639.0518867924528" y="509.49056603773585"/>
      <point x="627.9292452830189" y="524.0283018867925" type="curve" smooth="yes"/>
      <point x="618.0990566037735" y="537.2735849056604"/>
      <point x="601.561320754717" y="542.688679245283"/>
      <point x="560.8254716981132" y="542.688679245283" type="curve" smooth="yes"/>
      <point x="156.78301886792454" y="542.688679245283" type="line"/>
      <point x="142.97641509433961" y="526.0283018867924"/>
      <point x="133.43867924528303" y="508.3679245283019"/>
      <point x="128.16981132075472" y="487.438679245283" type="curve" smooth="yes"/>
      <point x="117.19339622641509" y="444.9481132075472"/>
      <point x="135.2688679245283" y="424.97169811320754"/>
      <point x="184.00471698113208" y="424.97169811320754" type="curve" smooth="yes"/>
    </contour>
    <contour>
      <point x="25.608490566037737" y="275.6132075471698" type="line"/>
      <point x="23.754716981132077" y="271.75943396226415"/>
      <point x="19.339622641509436" y="261.7830188679245"/>
      <point x="14.924528301886792" y="248.53773584905662" type="curve" smooth="yes"/>
      <point x="4.94811320754717" y="217.75471698113208"/>
      <point x="6.65566037735849" y="191.0943396226415"/>
      <point x="17.485849056603776" y="176.70283018867926" type="curve" smooth="yes"/>
      <point x="27.462264150943398" y="163.1650943396226"/>
      <point x="44.00000000000001" y="157.89622641509433"/>
      <point x="89.29716981132074" y="157.89622641509433" type="curve" smooth="yes"/>
      <point x="529.4669811320755" y="157.89622641509433" type="line"/>
      <point x="538.1509433962264" y="172.8490566037736"/>
      <point x="545.127358490566" y="187.94811320754715"/>
      <point x="551.25" y="213.14622641509433" type="curve" smooth="yes"/>
      <point x="561.372641509434" y="255.63679245283018"/>
      <point x="541.5896226415094" y="275.6132075471698"/>
      <point x="500.5377358490566" y="275.6132075471698" type="curve" smooth="yes"/>
    </contour>
  </outline>
</glyph>
<glyph name="dollar" format="2">
  <advance width="600.0"/>
  <unicode hex="0024"/>
  <outline>
    <contour>
      <point x="220.60849056603774" y="-18.830188679245282" type="curve" smooth="yes"/>
      <point x="387.75943396226415" y="-18.830188679245282"/>
      <point x="488.78301886792457" y="41.339622641509436"/>
      <point x="516.7830188679245" y="152.04716981132077" type="curve" smooth="yes"/>
      <point x="520.3443396226415" y="166.43867924528303" type="line" smooth="yes"/>
      <point x="537.6132075471698" y="237.56132075471697"/>
      <point x="517.5896226415094" y="319.3207547169811"/>
      <point x="402.9292452830188" y="365.4433962264151" type="curve" smooth="yes"/>
      <point x="320.8066037735849" y="399.00471698113205" type="line" smooth="yes"/>
      <point x="255.93396226415095" y="424.7830188679245"/>
      <point x="237.49528301886792" y="457.07547169811323"/>
      <point x="248.6650943396226" y="494.0707547169811" type="curve" smooth="yes"/>
      <point x="250.81132075471695" y="500.65566037735846" type="line" smooth="yes"/>
      <point x="270.10377358490564" y="558.8490566037736"/>
      <point x="354.7830188679245" y="589.183962264151"/>
      <point x="449.9716981132076" y="589.183962264151" type="curve" smooth="yes"/>
      <point x="511.84905660377353" y="589.183962264151"/>
      <point x="544.1179245283018" y="577.183962264151"/>
      <point x="566.5801886792452" y="553.3301886792452" type="curve"/>
      <point x="572.5801886792452" y="553.3301886792452" type="line"/>
      <point x="594.5094339622641" y="573.5518867924528"/>
      <point x="609.0471698113208" y="601.8962264150942"/>
      <point x="614.6084905660377" y="622.9952830188679" type="curve" smooth="yes"/>
      <point x="621.0235849056604" y="647.3632075471698"/>
      <point x="623.5849056603774" y="668.316037735849"/>
      <point x="604.3396226415093" y="687.8537735849056" type="curve" smooth="yes"/>
      <point x="586.3632075471698" y="706.2688679245283"/>
      <point x="544.3632075471698" y="720.0"/>
      <point x="473.9245283018868" y="720.0" type="curve" smooth="yes"/>
      <point x="305.60849056603774" y="720.0"/>
      <point x="163.80188679245282" y="650.9056603773585"/>
      <point x="133.80188679245282" y="529.561320754717" type="curve" smooth="yes"/>
      <point x="130.94811320754718" y="518.2924528301886" type="line" smooth="yes"/>
      <point x="114.48584905660378" y="453.3443396226415"/>
      <point x="116.72641509433961" y="362.04716981132077"/>
      <point x="255.8254716981132" y="304.9245283018868" type="curve" smooth="yes"/>
      <point x="338.9481132075472" y="271.2169811320755" type="line" smooth="yes"/>
      <point x="393.2358490566038" y="248.73113207547172"/>
      <point x="412.0660377358491" y="209.87735849056602"/>
      <point x="402.04245283018867" y="163.8066037735849" type="curve"/>
      <point x="400.8962264150943" y="158.36792452830187" type="line"/>
      <point x="363.4811320754717" y="128.08018867924528"/>
      <point x="309.6792452830189" y="111.98584905660377"/>
      <point x="253.0990566037736" y="111.98584905660377" type="curve" smooth="yes"/>
      <point x="148.53773584905662" y="111.98584905660377"/>
      <point x="84.68396226415094" y="142.25471698113208"/>
      <point x="47.31603773584906" y="199.69339622641508" type="curve"/>
      <point x="41.31603773584906" y="199.69339622641508" type="line"/>
      <point x="30.754716981132077" y="185.4245283018868"/>
      <point x="20.48584905660377" y="166.32547169811323"/>
      <point x="14.778301886792448" y="142.22641509433964" type="curve" smooth="yes"/>
      <point x="1.3867924528301852" y="91.66037735849056"/>
      <point x="14.485849056603769" y="50.339622641509436"/>
      <point x="30.46226415094339" y="33.924528301886795" type="curve" smooth="yes"/>
      <point x="65.02358490566039" y="-2.2452830188679247"/>
      <point x="126.04716981132076" y="-18.830188679245282"/>
    </contour>
    <contour>
      <point x="395.46698113207543" y="430.3207547169811" type="curve"/>
      <point x="457.27358490566036" y="527.4150943396227"/>
      <point x="519.7122641509435" y="668.627358490566"/>
      <point x="552.3962264150942" y="783.188679245283" type="curve" smooth="yes"/>
      <point x="573.3490566037736" y="858.0471698113208"/>
      <point x="558.7877358490566" y="893.5377358490566"/>
      <point x="500.1981132075471" y="893.5377358490566" type="curve" smooth="yes"/>
      <point x="476.5377358490566" y="893.5377358490566"/>
      <point x="455.438679245283" y="889.8301886792453"/>
      <point x="439.9009433962264" y="881.8537735849056" type="curve"/>
      <point x="444.60849056603774" y="856.1462264150944"/>
      <point x="444.60849056603774" y="829.0235849056604"/>
      <point x="436.58490566037733" y="776.5377358490565" type="curve" smooth="yes"/>
      <point x="420.85377358490564" y="674.1462264150944"/>
      <point x="399.61320754716985" y="582.372641509434"/>
      <point x="361.6132075471698" y="494.3018867924528" type="curve" smooth="yes"/>
      <point x="353.34433962264154" y="476.4716981132076"/>
      <point x="355.63679245283015" y="453.54245283018867"/>
      <point x="367.0754716981132" y="443.5660377358491" type="curve" smooth="yes"/>
      <point x="376.6367924528302" y="434.73584905660374"/>
      <point x="386.1981132075472" y="431.1745283018868"/>
    </contour>
    <contour>
      <point x="253.50943396226413" y="239.07075471698113" type="curve"/>
      <point x="190.8254716981132" y="136.19811320754718"/>
      <point x="134.67924528301887" y="22.033018867924522"/>
      <point x="101.87264150943395" y="-87.2122641509434" type="curve" smooth="yes"/>
      <point x="80.2122641509434" y="-159.50943396226415"/>
      <point x="94.4811320754717" y="-195.0"/>
      <point x="152.63207547169813" y="-195.0" type="curve" smooth="yes"/>
      <point x="176.2924528301887" y="-195.0"/>
      <point x="197.39150943396228" y="-191.29245283018867"/>
      <point x="212.92924528301887" y="-183.31603773584905" type="curve"/>
      <point x="208.66037735849056" y="-157.60849056603774"/>
      <point x="208.80660377358492" y="-130.48584905660377"/>
      <point x="215.95283018867923" y="-86.92452830188678" type="curve" smooth="yes"/>
      <point x="230.68396226415095" y="6.3915094339622645"/>
      <point x="253.82547169811323" y="92.25943396226415"/>
      <point x="290.04716981132077" y="175.62735849056602" type="curve" smooth="yes"/>
      <point x="297.4622641509434" y="193.188679245283"/>
      <point x="293.33962264150944" y="215.41037735849056"/>
      <point x="281.4622641509434" y="225.67924528301887" type="curve" smooth="yes"/>
      <point x="272.0471698113207" y="234.50943396226415"/>
      <point x="262.77830188679246" y="238.07075471698113"/>
    </contour>
  </outline>
</glyph>
<glyph name="percent" format="2">
  <advance width="600.0"/>
  <unicode hex="0025"/>
  <outline>
    <contour>
      <point x="279.3632075471698" y="710.0" type="curve"/>
      <point x="185.3632075471698" y="710.0"/>
      <point x="109.48584905660377" y="639.561320754717"/>
      <point x="78.21698113207546" y="532.4150943396227" type="curve" smooth="yes"/>
      <point x="75.36320754716981" y="523.0" type="line" smooth="yes"/>
      <point x="46.094339622641506" y="421.70754716981133"/>
      <point x="91.36320754716981" y="356.0"/>
      <point x="184.3632075471698" y="356.0" type="curve"/>
      <point x="281.3632075471698" y="356.0"/>
      <point x="357.65566037735846" y="426.2688679245283"/>
      <point x="387.92452830188677" y="534.5377358490566" type="curve" smooth="yes"/>
      <point x="389.92452830188677" y="541.3915094339623" type="line" smooth="yes"/>
      <point x="417.6320754716981" y="639.8537735849056"/>
      <point x="367.65566037735846" y="710.0"/>
    </contour>
    <contour>
      <point x="161.7830188679245" y="523.122641509434" type="curve" smooth="yes"/>
      <point x="162.92924528301884" y="527.4150943396227" type="line" smooth="yes"/>
      <point x="176.95283018867923" y="586.2169811320755"/>
      <point x="217.16981132075472" y="626.7028301886793"/>
      <point x="260.2641509433962" y="626.7028301886793" type="curve" smooth="yes"/>
      <point x="271.4339622641509" y="626.7028301886793"/>
      <point x="279.311320754717" y="625.5566037735849"/>
      <point x="285.33490566037733" y="623.2641509433962" type="curve"/>
      <point x="294.4292452830189" y="600.6792452830189"/>
      <point x="291.16037735849056" y="577.4622641509434"/>
      <point x="285.1367924528302" y="554.3679245283018" type="curve" smooth="yes"/>
      <point x="284.1367924528302" y="550.0754716981132" type="line" smooth="yes"/>
      <point x="270.25943396226415" y="494.4198113207547"/>
      <point x="238.0424528301887" y="465.20283018867923"/>
      <point x="188.9245283018868" y="465.20283018867923" type="curve" smooth="yes"/>
      <point x="182.1933962264151" y="465.20283018867923"/>
      <point x="171.29245283018867" y="466.20283018867923"/>
      <point x="159.2688679245283" y="471.22641509433964" type="curve"/>
      <point x="154.19811320754718" y="487.39622641509436"/>
      <point x="157.19811320754715" y="505.3443396226415"/>
    </contour>
    <contour>
      <point x="454.22169811320754" y="344.0" type="curve"/>
      <point x="360.22169811320754" y="344.0"/>
      <point x="283.49056603773585" y="271.0"/>
      <point x="253.0754716981132" y="163.85377358490567" type="curve" smooth="yes"/>
      <point x="251.22169811320754" y="157.0" type="line" smooth="yes"/>
      <point x="222.66037735849056" y="54.85377358490566"/>
      <point x="266.22169811320754" y="-10.0"/>
      <point x="359.22169811320754" y="-10.0" type="curve"/>
      <point x="456.22169811320754" y="-10.0"/>
      <point x="535.0754716981132" y="57.70754716981132"/>
      <point x="561.9292452830189" y="166.83018867924528" type="curve" smooth="yes"/>
      <point x="563.9292452830189" y="174.53773584905662" type="line" smooth="yes"/>
      <point x="588.3679245283018" y="273.85377358490564"/>
      <point x="542.5141509433963" y="344.0"/>
    </contour>
    <contour>
      <point x="336.64150943396226" y="157.12264150943398" type="curve" smooth="yes"/>
      <point x="337.7877358490566" y="161.41509433962264" type="line" smooth="yes"/>
      <point x="352.6650943396226" y="220.21698113207546"/>
      <point x="392.0283018867924" y="260.70283018867923"/>
      <point x="435.12264150943395" y="260.70283018867923" type="curve" smooth="yes"/>
      <point x="446.29245283018867" y="260.70283018867923"/>
      <point x="454.1698113207547" y="259.5566037735849"/>
      <point x="460.1933962264151" y="257.2641509433962" type="curve"/>
      <point x="469.2877358490566" y="234.67924528301887"/>
      <point x="466.01886792452825" y="211.46226415094338"/>
      <point x="460.14150943396226" y="188.3679245283019" type="curve" smooth="yes"/>
      <point x="458.9952830188679" y="184.0754716981132" type="line" smooth="yes"/>
      <point x="445.11792452830184" y="128.41981132075472"/>
      <point x="413.7547169811321" y="99.20283018867924"/>
      <point x="364.6367924528302" y="99.20283018867924" type="curve" smooth="yes"/>
      <point x="357.9056603773585" y="99.20283018867924"/>
      <point x="346.1509433962264" y="100.20283018867924"/>
      <point x="334.12735849056605" y="105.22641509433961" type="curve"/>
      <point x="330.0566037735849" y="121.39622641509433"/>
      <point x="332.0566037735849" y="139.3443396226415"/>
    </contour>
    <contour>
      <point x="373.8490566037736" y="400.9009433962264" type="curve"/>
      <point x="383.55660377358487" y="392.63207547169816"/>
      <point x="399.38679245283015" y="388.0707547169811"/>
      <point x="416.3632075471698" y="388.0707547169811" type="curve" smooth="yes"/>
      <point x="444.1698113207547" y="388.0707547169811"/>
      <point x="469.95283018867923" y="394.48584905660374"/>
      <point x="505.9811320754717" y="418.41509433962267" type="curve" smooth="yes"/>
      <point x="581.933962264151" y="468.70754716981133"/>
      <point x="641.9056603773586" y="557.6509433962264"/>
      <point x="658.9056603773586" y="627.5047169811321" type="curve" smooth="yes"/>
      <point x="669.7358490566038" y="670.8254716981132"/>
      <point x="655.9056603773585" y="710.2688679245283"/>
      <point x="594.2405660377358" y="710.2688679245283" type="curve" smooth="yes"/>
      <point x="566.872641509434" y="710.2688679245283"/>
      <point x="550.1886792452831" y="706.561320754717"/>
      <point x="527.8207547169811" y="700.1462264150944" type="curve"/>
      <point x="507.45754716981133" y="594.2688679245283"/>
      <point x="454.72641509433964" y="494.7547169811321"/>
    </contour>
    <contour>
      <point x="268.71226415094344" y="299.0990566037736" type="curve"/>
      <point x="259.0047169811321" y="307.3679245283019"/>
      <point x="243.46698113207546" y="311.7830188679245"/>
      <point x="226.63679245283018" y="311.7830188679245" type="curve" smooth="yes"/>
      <point x="198.97641509433964" y="311.7830188679245"/>
      <point x="173.1933962264151" y="305.3679245283019"/>
      <point x="137.0188679245283" y="281.438679245283" type="curve" smooth="yes"/>
      <point x="61.35849056603774" y="231.14622641509433"/>
      <point x="1.094339622641507" y="142.0566037735849"/>
      <point x="-15.905660377358494" y="72.34905660377359" type="curve" smooth="yes"/>
      <point x="-26.735849056603776" y="28.735849056603776"/>
      <point x="-13.051886792452834" y="-10.415094339622641"/>
      <point x="49.051886792452834" y="-10.415094339622641" type="curve" smooth="yes"/>
      <point x="76.12735849056605" y="-10.415094339622641"/>
      <point x="92.66509433962266" y="-6.7075471698113205"/>
      <point x="115.17924528301889" y="-0.2924528301886793" type="curve"/>
      <point x="135.5424528301887" y="105.14622641509435"/>
      <point x="188.12735849056605" y="204.8066037735849"/>
    </contour>
  </outline>
</glyph>
<glyph name="ampersand" format="2">
  <advance width="600.0"/>
  <unicode hex="0026"/>
  <outline>
    <contour>
      <point x="293.5188679245283" y="360.3679245283019" type="curve" smooth="yes"/>
      <point x="283.0566037735849" y="414.1462264150943"/>
      <point x="282.7641509433962" y="466.77830188679246"/>
      <point x="290.4952830188679" y="506.38679245283015" type="curve" smooth="yes"/>
      <point x="295.2264150943396" y="529.7264150943397"/>
      <point x="301.25" y="549.0424528301886"/>
      <point x="309.46698113207543" y="563.2358490566037" type="curve"/>
      <point x="331.5141509433962" y="570.4528301886793"/>
      <point x="353.02358490566036" y="574.7688679245283"/>
      <point x="388.3867924528302" y="574.7688679245283" type="curve" smooth="yes"/>
      <point x="446.77830188679246" y="574.7688679245283"/>
      <point x="499.02358490566036" y="564.7452830188679"/>
      <point x="533.2688679245283" y="544.4528301886793" type="curve"/>
      <point x="539.2688679245283" y="544.4528301886793" type="line"/>
      <point x="552.8066037735849" y="557.9905660377359"/>
      <point x="564.7830188679244" y="575.382075471698"/>
      <point x="570.3443396226414" y="598.4811320754717" type="curve" smooth="yes"/>
      <point x="578.4669811320754" y="630.9716981132076"/>
      <point x="573.0518867924528" y="655.9245283018868"/>
      <point x="552.0990566037736" y="674.316037735849" type="curve" smooth="yes"/>
      <point x="524.438679245283" y="698.561320754717"/>
      <point x="484.58490566037733" y="710.0"/>
      <point x="430.8301886792453" y="710.0" type="curve" smooth="yes"/>
      <point x="281.9009433962264" y="710.0"/>
      <point x="181.99528301886792" y="620.2405660377358"/>
      <point x="165.0943396226415" y="528.0707547169811" type="curve" smooth="yes"/>
      <point x="163.94811320754715" y="521.9245283018869" type="line" smooth="yes"/>
      <point x="154.07075471698113" y="466.9009433962264"/>
      <point x="154.38679245283018" y="385.8018867924528"/>
      <point x="177.50943396226415" y="314.0943396226415" type="curve" smooth="yes"/>
      <point x="199.24056603773585" y="245.39150943396228"/>
      <point x="238.58018867924528" y="157.05188679245282"/>
      <point x="286.45754716981133" y="98.15094339622641" type="curve" smooth="yes"/>
      <point x="359.316037735849" y="8.877358490566039"/>
      <point x="401.1698113207547" y="-10.0"/>
      <point x="441.316037735849" y="-10.0" type="curve" smooth="yes"/>
      <point x="461.2924528301886" y="-10.0"/>
      <point x="476.4150943396226" y="-5.438679245283019"/>
      <point x="489.2688679245283" y="4.976415094339623" type="curve" smooth="yes"/>
      <point x="508.66037735849056" y="21.221698113207545"/>
      <point x="520.9292452830189" y="47.02830188679245"/>
      <point x="525.3443396226414" y="78.10377358490565" type="curve" smooth="yes"/>
      <point x="528.9056603773585" y="104.3254716981132"/>
      <point x="529.6132075471698" y="126.98584905660377"/>
      <point x="526.6132075471697" y="144.52358490566036" type="curve"/>
      <point x="520.6132075471697" y="144.52358490566036" type="line"/>
      <point x="509.7594339622642" y="137.06132075471697"/>
      <point x="500.61320754716985" y="133.91509433962264"/>
      <point x="480.0518867924528" y="133.91509433962264" type="curve" smooth="yes"/>
      <point x="443.80660377358487" y="133.91509433962264"/>
      <point x="404.683962264151" y="150.91509433962264"/>
      <point x="368.29245283018867" y="196.45283018867923" type="curve" smooth="yes"/>
      <point x="327.3679245283019" y="247.8396226415094"/>
      <point x="305.4198113207547" y="301.9811320754717"/>
    </contour>
    <contour>
      <point x="132.2169811320755" y="-9.14622641509434" type="curve" smooth="yes"/>
      <point x="199.50943396226413" y="-9.14622641509434"/>
      <point x="253.5330188679245" y="21.12264150943396"/>
      <point x="288.55660377358487" y="87.36792452830188" type="curve"/>
      <point x="334.33962264150944" y="87.36792452830188" type="line"/>
      <point x="295.0943396226415" y="170.93396226415095" type="line"/>
      <point x="255.4858490566038" y="131.13207547169813"/>
      <point x="217.14622641509433" y="110.27830188679245"/>
      <point x="178.78301886792454" y="110.27830188679245" type="curve" smooth="yes"/>
      <point x="127.93396226415094" y="110.27830188679245"/>
      <point x="107.59433962264153" y="143.47169811320754"/>
      <point x="124.8867924528302" y="197.27358490566039" type="curve" smooth="yes"/>
      <point x="125.8867924528302" y="200.41981132075472" type="line" smooth="yes"/>
      <point x="138.6179245283019" y="241.8066037735849"/>
      <point x="172.8820754716981" y="273.7311320754717"/>
      <point x="215.33962264150944" y="284.6320754716981" type="curve"/>
      <point x="187.6556603773585" y="368.4669811320755" type="line"/>
      <point x="164.2641509433962" y="332.6839622641509" type="line"/>
      <point x="71.97169811320755" y="318.07547169811323"/>
      <point x="10.216981132075475" y="258.5141509433962"/>
      <point x="-6.6367924528301865" y="172.39150943396226" type="curve" smooth="yes"/>
      <point x="-8.490566037735846" y="160.56132075471697" type="line" smooth="yes"/>
      <point x="-24.221698113207545" y="60.85377358490566"/>
      <point x="31.19339622641509" y="-9.14622641509434"/>
    </contour>
    <contour>
      <point x="437.5330188679245" y="414.27358490566036" type="curve"/>
      <point x="436.3867924528302" y="400.39622641509436"/>
      <point x="434.09433962264154" y="385.37264150943395"/>
      <point x="430.2169811320755" y="367.6179245283019" type="curve" smooth="yes"/>
      <point x="418.1933962264151" y="307.4952830188679"/>
      <point x="390.1698113207547" y="255.03301886792454"/>
      <point x="327.1698113207547" y="192.17924528301887" type="curve"/>
      <point x="381.61320754716985" y="138.0330188679245" type="line"/>
      <point x="391.3207547169812" y="179.71698113207546" type="line"/>
      <point x="485.95754716981133" y="211.27358490566039"/>
      <point x="545.372641509434" y="273.39150943396226"/>
      <point x="559.6650943396227" y="338.7311320754717" type="curve" smooth="yes"/>
      <point x="561.5188679245283" y="347.14622641509436" type="line" smooth="yes"/>
      <point x="570.6415094339623" y="389.49056603773585"/>
      <point x="542.2971698113207" y="418.9811320754717"/>
      <point x="481.1698113207547" y="418.9811320754717" type="curve" smooth="yes"/>
      <point x="459.92452830188677" y="418.9811320754717"/>
      <point x="447.8018867924528" y="417.127358490566"/>
    </contour>
  </outline>
</glyph>
<glyph name="quotesingle" format="2">
  <advance width="600.0"/>
  <unicode hex="0027"/>
  <outline>
    <contour>
      <point x="390.9292452830189" y="444.8301886792453" type="curve"/>
      <point x="454.2452830188679" y="643.2877358490566" type="line" smooth="yes"/>
      <point x="478.6367924528302" y="719.3396226415094"/>
      <point x="449.41509433962267" y="754.0"/>
      <point x="360.433962264151" y="754.0" type="curve" smooth="yes"/>
      <point x="345.311320754717" y="754.0"/>
      <point x="330.89622641509436" y="752.8537735849056"/>
      <point x="315.5047169811321" y="750.0" type="curve"/>
      <point x="318.35849056603774" y="725.2924528301887"/>
      <point x="316.5047169811321" y="699.5094339622641"/>
      <point x="307.066037735849" y="646.7783018867924" type="curve" smooth="yes"/>
      <point x="279.311320754717" y="497.4669811320755" type="line" smooth="yes"/>
      <point x="271.75" y="455.5377358490566"/>
      <point x="287.87264150943395" y="439.70754716981133"/>
      <point x="339.24056603773585" y="439.70754716981133" type="curve" smooth="yes"/>
      <point x="359.3160377358491" y="439.70754716981133"/>
      <point x="376.8301886792453" y="441.41509433962267"/>
    </contour>
  </outline>
</glyph>
<glyph name="parenleft" format="2">
  <advance width="600.0"/>
  <unicode hex="0028"/>
  <outline>
    <contour>
      <point x="414.183962264151" y="730.0943396226415" type="curve" smooth="yes"/>
      <point x="297.23584905660374" y="639.1933962264151"/>
      <point x="207.43396226415095" y="490.683962264151"/>
      <point x="168.70283018867923" y="320.683962264151" type="curve" smooth="yes"/>
      <point x="166.41037735849056" y="310.66037735849056" type="line" smooth="yes"/>
      <point x="127.67924528301886" y="140.22169811320757"/>
      <point x="144.45754716981133" y="-36.90094339622642"/>
      <point x="202.96698113207552" y="-124.8254716981132" type="curve" smooth="yes"/>
      <point x="223.50471698113208" y="-156.19339622641508"/>
      <point x="249.72641509433961" y="-172.85377358490567"/>
      <point x="286.4858490566038" y="-172.85377358490567" type="curve" smooth="yes"/>
      <point x="318.12264150943395" y="-172.85377358490567"/>
      <point x="352.02830188679246" y="-164.58490566037736"/>
      <point x="373.688679245283" y="-144.77830188679246" type="curve"/>
      <point x="375.5424528301887" y="-138.77830188679246" type="line"/>
      <point x="294.20283018867923" y="-34.70754716981132"/>
      <point x="279.7169811320755" y="128.83018867924528"/>
      <point x="319.4481132075472" y="305.5377358490566" type="curve" smooth="yes"/>
      <point x="321.7405660377359" y="315.561320754717" type="line" smooth="yes"/>
      <point x="359.32547169811323" y="480.12264150943395"/>
      <point x="455.6415094339623" y="615.1933962264151"/>
      <point x="615.1037735849058" y="722.5330188679245" type="curve"/>
      <point x="616.9575471698114" y="728.5330188679245" type="line"/>
      <point x="600.566037735849" y="752.9009433962265"/>
      <point x="563.9528301886793" y="770.0"/>
      <point x="522.9245283018868" y="770.0" type="curve" smooth="yes"/>
      <point x="484.0188679245283" y="770.0"/>
      <point x="451.67452830188677" y="760.0235849056604"/>
    </contour>
  </outline>
</glyph>
<glyph name="parenright" format="2">
  <advance width="600.0"/>
  <unicode hex="0029"/>
  <outline>
    <contour>
      <point x="199.40094339622638" y="-132.94811320754718" type="curve" smooth="yes"/>
      <point x="316.3490566037736" y="-42.04716981132076"/>
      <point x="406.1509433962264" y="106.4622641509434"/>
      <point x="444.8820754716981" y="276.4622641509434" type="curve" smooth="yes"/>
      <point x="447.1745283018868" y="286.4858490566038" type="line" smooth="yes"/>
      <point x="485.9056603773585" y="456.9245283018868"/>
      <point x="469.12735849056605" y="634.0471698113207"/>
      <point x="410.61792452830184" y="721.9716981132076" type="curve" smooth="yes"/>
      <point x="390.0801886792453" y="753.3396226415094"/>
      <point x="363.85849056603774" y="770.0"/>
      <point x="327.0990566037736" y="770.0" type="curve" smooth="yes"/>
      <point x="295.4622641509434" y="770.0"/>
      <point x="261.5566037735849" y="761.7311320754717"/>
      <point x="239.89622641509436" y="741.9245283018868" type="curve"/>
      <point x="238.04245283018872" y="735.9245283018869" type="line"/>
      <point x="319.3820754716981" y="631.8537735849056"/>
      <point x="333.86792452830184" y="468.3160377358491"/>
      <point x="294.13679245283015" y="291.60849056603774" type="curve" smooth="yes"/>
      <point x="291.8443396226415" y="281.5849056603774" type="line" smooth="yes"/>
      <point x="254.25943396226413" y="117.02358490566037"/>
      <point x="157.9433962264151" y="-18.047169811320757"/>
      <point x="-1.5188679245282977" y="-125.38679245283019" type="curve"/>
      <point x="-3.372641509433958" y="-131.38679245283018" type="line"/>
      <point x="13.018867924528305" y="-155.75471698113205"/>
      <point x="49.632075471698116" y="-172.85377358490567"/>
      <point x="90.66037735849055" y="-172.85377358490567" type="curve" smooth="yes"/>
      <point x="129.56603773584905" y="-172.85377358490567"/>
      <point x="161.91037735849056" y="-162.87735849056602"/>
    </contour>
  </outline>
</glyph>
<glyph name="asterisk" format="2">
  <advance width="600.0"/>
  <unicode hex="002A"/>
  <outline>
    <contour>
      <point x="358.0" y="554.7830188679245" type="curve" smooth="yes"/>
      <point x="325.36320754716985" y="554.7830188679245"/>
      <point x="299.9952830188679" y="550.2216981132076"/>
      <point x="281.8962264150943" y="543.8066037735849" type="curve"/>
      <point x="288.1650943396226" y="518.4150943396227"/>
      <point x="290.5801886792453" y="501.0"/>
      <point x="291.55660377358487" y="467.561320754717" type="curve" smooth="yes"/>
      <point x="292.24056603773585" y="429.8066037735849"/>
      <point x="292.21698113207543" y="399.66037735849056"/>
      <point x="289.9009433962264" y="364.58962264150944" type="curve"/>
      <point x="282.9009433962264" y="360.58962264150944" type="line"/>
      <point x="257.0" y="394.85849056603774"/>
      <point x="235.39150943396228" y="420.85849056603774"/>
      <point x="206.61320754716982" y="445.6132075471698" type="curve" smooth="yes"/>
      <point x="175.92924528301887" y="471.29716981132077"/>
      <point x="142.70754716981133" y="459.61320754716985"/>
      <point x="113.75471698113208" y="424.24528301886795" type="curve" smooth="yes"/>
      <point x="98.50943396226414" y="405.438679245283"/>
      <point x="91.65566037735849" y="391.316037735849"/>
      <point x="84.09433962264151" y="371.9245283018868" type="curve"/>
      <point x="143.8254716981132" y="343.3160377358491"/>
      <point x="180.5566037735849" y="328.02358490566036"/>
      <point x="235.58018867924528" y="305.561320754717" type="curve"/>
      <point x="233.58018867924528" y="299.561320754717" type="line"/>
      <point x="182.0943396226415" y="284.683962264151"/>
      <point x="139.63207547169813" y="274.95283018867923"/>
      <point x="94.60849056603773" y="258.7830188679245" type="curve" smooth="yes"/>
      <point x="56.655660377358494" y="245.0754716981132"/>
      <point x="50.386792452830186" y="212.2688679245283"/>
      <point x="64.21698113207546" y="167.6556603773585" type="curve" smooth="yes"/>
      <point x="69.07075471698113" y="152.67924528301887"/>
      <point x="77.04716981132076" y="139.99528301886792"/>
      <point x="86.31603773584906" y="128.87264150943395" type="curve"/>
      <point x="153.46226415094338" y="170.70283018867926"/>
      <point x="187.94811320754715" y="194.70283018867926"/>
      <point x="246.84905660377356" y="239.1179245283019" type="curve"/>
      <point x="250.99528301886792" y="235.1179245283019" type="line"/>
      <point x="234.1179245283019" y="203.2924528301887"/>
      <point x="218.41037735849056" y="175.56132075471697"/>
      <point x="200.70283018867923" y="133.24528301886792" type="curve" smooth="yes"/>
      <point x="175.89622641509433" y="73.75471698113208"/>
      <point x="186.60377358490564" y="44.36320754716981"/>
      <point x="251.90094339622638" y="44.36320754716981" type="curve" smooth="yes"/>
      <point x="275.70754716981133" y="44.36320754716981"/>
      <point x="296.0990566037736" y="47.07075471698113"/>
      <point x="323.3207547169811" y="53.485849056603776" type="curve"/>
      <point x="317.1981132075472" y="78.73113207547169"/>
      <point x="316.3443396226415" y="98.29245283018868"/>
      <point x="317.6367924528302" y="138.0754716981132" type="curve" smooth="yes"/>
      <point x="319.8066037735849" y="173.16981132075472"/>
      <point x="321.2452830188679" y="197.9009433962264"/>
      <point x="322.561320754717" y="236.26415094339623" type="curve"/>
      <point x="328.70754716981133" y="239.41037735849056" type="line"/>
      <point x="357.1933962264151" y="203.53301886792454"/>
      <point x="373.24056603773585" y="185.50943396226415"/>
      <point x="404.8490566037736" y="157.36320754716982" type="curve" smooth="yes"/>
      <point x="430.6792452830189" y="134.1179245283019"/>
      <point x="469.4622641509434" y="141.5330188679245"/>
      <point x="497.70754716981133" y="176.1933962264151" type="curve" smooth="yes"/>
      <point x="513.3915094339623" y="195.438679245283"/>
      <point x="522.3679245283018" y="211.83018867924528"/>
      <point x="531.4905660377359" y="231.92924528301887" type="curve"/>
      <point x="462.24528301886795" y="264.9292452830189"/>
      <point x="426.90566037735846" y="277.9764150943396"/>
      <point x="374.75943396226415" y="297.0" type="curve"/>
      <point x="376.75943396226415" y="303.0" type="line"/>
      <point x="423.6839622641509" y="316.3160377358491"/>
      <point x="460.0" y="324.04716981132077"/>
      <point x="517.316037735849" y="345.3632075471698" type="curve" smooth="yes"/>
      <point x="555.0990566037736" y="358.48584905660374"/>
      <point x="576.7594339622642" y="394.26886792452825"/>
      <point x="557.8066037735849" y="432.34433962264154" type="curve" smooth="yes"/>
      <point x="548.8301886792453" y="450.02830188679246"/>
      <point x="541.2688679245283" y="458.58962264150944"/>
      <point x="524.0235849056604" y="473.127358490566" type="curve"/>
      <point x="437.561320754717" y="418.0047169811321"/>
      <point x="405.0754716981132" y="393.29716981132077"/>
      <point x="362.0518867924528" y="360.8820754716981" type="curve"/>
      <point x="357.90566037735846" y="364.8820754716981" type="line"/>
      <point x="375.1981132075472" y="394.0990566037736"/>
      <point x="389.49056603773585" y="417.41509433962267"/>
      <point x="404.22169811320754" y="454.50943396226415" type="curve" smooth="yes"/>
      <point x="433.44339622641513" y="526.0990566037735"/>
      <point x="417.7358490566038" y="554.7830188679245"/>
    </contour>
  </outline>
</glyph>
<glyph name="plus" format="2">
  <advance width="600.0"/>
  <unicode hex="002B"/>
  <outline>
    <contour>
      <point x="281.75" y="539.561320754717" type="curve"/>
      <point x="286.6037735849057" y="512.5849056603773"/>
      <point x="285.0424528301887" y="477.6556603773585"/>
      <point x="278.0424528301887" y="443.19339622641513" type="curve" smooth="yes"/>
      <point x="260.75" y="355.0990566037736"/>
      <point x="210.5566037735849" y="266.6179245283019"/>
      <point x="198.1179245283019" y="177.13207547169813" type="curve" smooth="yes"/>
      <point x="185.58018867924528" y="93.63679245283019"/>
      <point x="221.0471698113207" y="51.4622641509434"/>
      <point x="303.9575471698113" y="51.4622641509434" type="curve" smooth="yes"/>
      <point x="313.5188679245283" y="51.4622641509434"/>
      <point x="321.0801886792453" y="52.4622641509434"/>
      <point x="328.0801886792453" y="54.4622641509434" type="curve"/>
      <point x="321.85849056603774" y="161.8490566037736"/>
      <point x="374.5141509433962" y="253.47641509433961"/>
      <point x="407.0518867924528" y="383.93867924528297" type="curve" smooth="yes"/>
      <point x="435.54245283018867" y="492.11792452830184"/>
      <point x="408.1745283018868" y="545.122641509434"/>
      <point x="324.9481132075472" y="545.122641509434" type="curve" smooth="yes"/>
      <point x="308.2641509433962" y="545.122641509434"/>
      <point x="293.72641509433964" y="543.2688679245283"/>
    </contour>
    <contour>
      <point x="73.73113207547169" y="367.688679245283" type="line"/>
      <point x="64.90094339622642" y="349.7358490566038"/>
      <point x="57.632075471698116" y="328.9292452830189"/>
      <point x="53.070754716981135" y="310.97641509433964" type="curve"/>
      <point x="39.53301886792453" y="258.97169811320754"/>
      <point x="61.04716981132075" y="232.31132075471697"/>
      <point x="116.02830188679246" y="232.31132075471697" type="curve" smooth="yes"/>
      <point x="543.4150943396226" y="232.31132075471697" type="line"/>
      <point x="550.5377358490566" y="252.67924528301884"/>
      <point x="556.0990566037735" y="270.9245283018868"/>
      <point x="560.6603773584906" y="289.02358490566036" type="curve" smooth="yes"/>
      <point x="574.9056603773585" y="345.29716981132077"/>
      <point x="555.0990566037735" y="367.688679245283"/>
      <point x="489.16509433962267" y="367.688679245283" type="curve"/>
    </contour>
  </outline>
</glyph>
<glyph name="comma" format="2">
  <advance width="600.0"/>
  <unicode hex="002C"/>
  <outline>
    <contour>
      <point x="143.46698113207546" y="-198.53773584905662" type="curve" smooth="yes"/>
      <point x="163.85849056603772" y="-198.53773584905662"/>
      <point x="180.95754716981133" y="-193.97641509433961"/>
      <point x="193.93396226415095" y="-181.0" type="curve" smooth="yes"/>
      <point x="264.54245283018867" y="-112.43867924528303"/>
      <point x="348.00943396226415" y="17.882075471698116"/>
      <point x="370.47169811320754" y="117.43867924528301" type="curve" smooth="yes"/>
      <point x="383.1556603773585" y="174.88207547169813"/>
      <point x="349.5188679245283" y="200.68867924528303"/>
      <point x="269.438679245283" y="200.68867924528303" type="curve" smooth="yes"/>
      <point x="246.04716981132077" y="200.68867924528303"/>
      <point x="228.77830188679243" y="198.5424528301887"/>
      <point x="201.70283018867923" y="192.5424528301887" type="curve"/>
      <point x="169.11792452830187" y="42.93396226415094"/>
      <point x="121.33490566037734" y="-70.14622641509433"/>
      <point x="51.264150943396224" y="-162.6320754716981" type="curve"/>
      <point x="71.6556603773585" y="-184.43867924528303"/>
      <point x="102.29245283018868" y="-198.53773584905662"/>
    </contour>
  </outline>
</glyph>
<glyph name="hyphen" format="2">
  <advance width="600.0"/>
  <unicode hex="002D"/>
  <outline>
    <contour>
      <point x="120.87735849056604" y="366.83490566037733" type="line"/>
      <point x="119.02358490566039" y="361.27358490566036"/>
      <point x="118.02358490566039" y="355.5660377358491"/>
      <point x="116.16981132075472" y="349.1509433962264" type="curve" smooth="yes"/>
      <point x="91.24056603773585" y="251.72641509433961"/>
      <point x="102.21698113207547" y="231.45754716981133"/>
      <point x="181.25" y="231.45754716981133" type="curve" smooth="yes"/>
      <point x="487.7311320754717" y="231.45754716981133" type="line"/>
      <point x="495.561320754717" y="249.8254716981132"/>
      <point x="503.39150943396226" y="270.04716981132077"/>
      <point x="507.80660377358487" y="286.70754716981133" type="curve" smooth="yes"/>
      <point x="522.6367924528302" y="344.1509433962264"/>
      <point x="509.95283018867923" y="366.83490566037733"/>
      <point x="462.3632075471698" y="366.83490566037733" type="curve" smooth="yes"/>
    </contour>
  </outline>
</glyph>
<glyph name="period" format="2">
  <advance width="600.0"/>
  <unicode hex="002E"/>
  <outline>
    <contour>
      <point x="330.4433962264151" y="1.316037735849057" type="curve"/>
      <point x="359.25" y="115.25" type="line" smooth="yes"/>
      <point x="372.37264150943395" y="166.61792452830187"/>
      <point x="341.9811320754717" y="194.1556603773585"/>
      <point x="273.6367924528302" y="194.1556603773585" type="curve" smooth="yes"/>
      <point x="242.24528301886792" y="194.1556603773585"/>
      <point x="207.31603773584908" y="189.1556603773585"/>
      <point x="180.3632075471698" y="180.15566037735852" type="curve"/>
      <point x="151.5566037735849" y="67.92924528301887" type="line" smooth="yes"/>
      <point x="138.43396226415092" y="16.56132075471698"/>
      <point x="170.53301886792454" y="-10.122641509433961"/>
      <point x="245.70754716981133" y="-10.122641509433961" type="curve" smooth="yes"/>
      <point x="274.53773584905656" y="-10.122641509433961"/>
      <point x="310.3207547169811" y="-5.122641509433962"/>
    </contour>
  </outline>
</glyph>
<glyph name="slash" format="2">
  <advance width="600.0"/>
  <unicode hex="002F"/>
  <outline>
    <contour>
      <point x="696.4009433962264" y="750.8537735849056" type="curve"/>
      <point x="663.933962264151" y="761.683962264151"/>
      <point x="640.4198113207548" y="766.2452830188679"/>
      <point x="605.5141509433962" y="766.2452830188679" type="curve" smooth="yes"/>
      <point x="556.6556603773585" y="766.2452830188679"/>
      <point x="515.6037735849056" y="748.7311320754717"/>
      <point x="479.99056603773585" y="668.2594339622642" type="curve" smooth="yes"/>
      <point x="368.9952830188679" y="421.0943396226415"/>
      <point x="218.48584905660377" y="179.70754716981133"/>
      <point x="33.438679245283026" y="-16.749999999999996" type="curve" smooth="yes"/>
      <point x="-19.028301886792455" y="-71.65566037735849"/>
      <point x="-54.10377358490565" y="-92.50943396226414"/>
      <point x="-83.22641509433963" y="-102.26415094339623" type="curve"/>
      <point x="-65.83490566037736" y="-124.19339622641509"/>
      <point x="-34.636792452830186" y="-135.58490566037736"/>
      <point x="0.4150943396226481" y="-135.58490566037736" type="curve" smooth="yes"/>
      <point x="58.85849056603774" y="-135.58490566037736"/>
      <point x="111.27830188679246" y="-111.80188679245282"/>
      <point x="179.50471698113208" y="-48.25943396226415" type="curve" smooth="yes"/>
      <point x="384.8207547169811" y="149.66037735849056"/>
      <point x="566.8443396226415" y="443.6367924528302"/>
    </contour>
  </outline>
</glyph>
<glyph name="zero" format="2">
  <advance width="600.0"/>
  <unicode hex="0030"/>
  <outline>
    <contour>
      <point x="407.9764150943396" y="720.0" type="curve" smooth="yes"/>
      <point x="261.9009433962264" y="720.0"/>
      <point x="137.67924528301887" y="606.9009433962265"/>
      <point x="79.94811320754717" y="375.1462264150943" type="curve" smooth="yes"/>
      <point x="69.94811320754717" y="335.29245283018867" type="line" smooth="yes"/>
      <point x="16.363207547169807" y="121.97641509433963"/>
      <point x="90.77830188679246" y="-20.0"/>
      <point x="236.16981132075472" y="-20.0" type="curve" smooth="yes"/>
      <point x="379.7830188679245" y="-20.0"/>
      <point x="495.2216981132076" y="75.41509433962264"/>
      <point x="547.5377358490566" y="285.2877358490566" type="curve" smooth="yes"/>
      <point x="557.8301886792453" y="328.45754716981133" type="line" smooth="yes"/>
      <point x="618.367924528302" y="570.7783018867924"/>
      <point x="554.0990566037736" y="720.0"/>
    </contour>
    <contour>
      <point x="395.0235849056604" y="590.3301886792452" type="curve" smooth="yes"/>
      <point x="407.38679245283015" y="590.3301886792452"/>
      <point x="419.433962264151" y="589.3066037735849"/>
      <point x="429.3349056603774" y="586.4056603773585" type="curve"/>
      <point x="453.4292452830189" y="540.6509433962264"/>
      <point x="456.8679245283019" y="465.8490566037736"/>
      <point x="430.6981132075472" y="358.561320754717" type="curve" smooth="yes"/>
      <point x="420.4292452830189" y="316.33962264150944" type="line" smooth="yes"/>
      <point x="390.38207547169816" y="192.25"/>
      <point x="334.9716981132076" y="110.25471698113206"/>
      <point x="247.26886792452828" y="110.25471698113206" type="curve" smooth="yes"/>
      <point x="231.34433962264148" y="110.25471698113206"/>
      <point x="215.85849056603774" y="112.27830188679245"/>
      <point x="203.68867924528303" y="116.47169811320754" type="curve"/>
      <point x="179.6179245283019" y="155.54245283018867"/>
      <point x="176.88679245283018" y="217.97641509433961"/>
      <point x="197.08018867924525" y="298.87264150943395" type="curve" smooth="yes"/>
      <point x="207.4952830188679" y="341.24056603773585" type="line" smooth="yes"/>
      <point x="244.83490566037733" y="492.13679245283015"/>
      <point x="308.3443396226415" y="590.3301886792452"/>
    </contour>
    <contour>
      <point x="501.1650943396226" y="535.4056603773586" type="line"/>
      <point x="408.0471698113207" y="452.1698113207547"/>
      <point x="326.66037735849056" y="391.7358490566038"/>
      <point x="270.83962264150944" y="350.938679245283" type="curve" smooth="yes"/>
      <point x="230.8396226415094" y="322.2075471698113"/>
      <point x="206.15566037735852" y="298.08490566037733"/>
      <point x="186.1556603773585" y="256.10849056603774" type="curve"/>
      <point x="228.2311320754717" y="283.2311320754717" type="line"/>
      <point x="155.49528301886795" y="283.2311320754717" type="line"/>
      <point x="133.85849056603772" y="187.6179245283019" type="line"/>
      <point x="228.14622641509433" y="235.95283018867923"/>
      <point x="306.5566037735849" y="282.14150943396226"/>
      <point x="359.061320754717" y="323.27830188679246" type="curve" smooth="yes"/>
      <point x="392.7688679245283" y="347.7405660377359"/>
      <point x="424.16037735849056" y="377.8632075471698"/>
      <point x="445.45283018867923" y="428.8396226415094" type="curve"/>
      <point x="404.06132075471703" y="402.15566037735846" type="line"/>
      <point x="471.8679245283019" y="402.15566037735846" type="line"/>
    </contour>
  </outline>
</glyph>
<glyph name="one" format="2">
  <advance width="600.0"/>
  <unicode hex="0031"/>
  <outline>
    <contour>
      <point x="355.75" y="700.877358490566" type="curve"/>
      <point x="343.1179245283019" y="684.8066037735849"/>
      <point x="302.311320754717" y="645.5613207547169"/>
      <point x="268.1179245283019" y="617.8066037735849" type="curve" smooth="yes"/>
      <point x="231.3632075471698" y="588.3443396226415"/>
      <point x="192.63207547169813" y="564.4905660377358"/>
      <point x="145.92452830188677" y="543.0754716981132" type="curve"/>
      <point x="139.65566037735846" y="520.7075471698114" type="line" smooth="yes"/>
      <point x="121.11792452830187" y="455.2641509433962"/>
      <point x="137.9245283018868" y="421.35849056603774"/>
      <point x="168.2924528301887" y="421.35849056603774" type="curve" smooth="yes"/>
      <point x="198.97641509433961" y="421.35849056603774"/>
      <point x="234.19339622641508" y="436.11320754716985"/>
      <point x="269.5566037735849" y="464.183962264151" type="curve" smooth="yes"/>
      <point x="301.3349056603774" y="490.52358490566036"/>
      <point x="327.7735849056604" y="518.816037735849"/>
      <point x="355.8207547169811" y="564.8632075471698" type="curve"/>
      <point x="310.1367924528302" y="539.8632075471698" type="line"/>
      <point x="372.2358490566038" y="539.8632075471698" type="line"/>
      <point x="350.67452830188677" y="571.4245283018868" type="line"/>
      <point x="336.0188679245283" y="446.1179245283019"/>
      <point x="248.0" y="310.49528301886795"/>
      <point x="232.68396226415092" y="231.38207547169813" type="curve" smooth="yes"/>
      <point x="223.41509433962264" y="185.72169811320757"/>
      <point x="235.51415094339623" y="153.7924528301887"/>
      <point x="260.8820754716981" y="136.52358490566039" type="curve"/>
      <point x="245.34433962264148" y="104.40094339622641" type="line"/>
      <point x="343.8160377358491" y="104.40094339622641" type="line"/>
      <point x="355.9622641509434" y="271.1792452830188"/>
      <point x="479.0801886792453" y="462.9009433962264"/>
      <point x="505.8349056603774" y="631.995283018868" type="curve" smooth="yes"/>
      <point x="514.3962264150944" y="685.754716981132"/>
      <point x="489.1509433962264" y="710.0"/>
      <point x="428.58490566037733" y="710.0" type="curve" smooth="yes"/>
      <point x="402.0707547169812" y="710.0"/>
      <point x="370.0188679245283" y="705.5849056603773"/>
    </contour>
    <contour>
      <point x="54.32075471698114" y="130.52358490566039" type="curve"/>
      <point x="51.32075471698114" y="119.69339622641509"/>
      <point x="47.32075471698113" y="106.71698113207547"/>
      <point x="43.61320754716981" y="90.3254716981132" type="curve" smooth="yes"/>
      <point x="36.490566037735846" y="60.27358490566038"/>
      <point x="36.344339622641506" y="34.490566037735846"/>
      <point x="47.735849056603776" y="18.391509433962263" type="curve" smooth="yes"/>
      <point x="58.27358490566038" y="4.85377358490566"/>
      <point x="74.37264150943398" y="0.0"/>
      <point x="115.83962264150944" y="0.0" type="curve" smooth="yes"/>
      <point x="206.0943396226415" y="0.0"/>
      <point x="484.8301886792453" y="0.0"/>
      <point x="496.53773584905656" y="0.0" type="curve"/>
      <point x="502.66037735849056" y="10.537735849056604"/>
      <point x="508.0754716981133" y="24.07547169811321"/>
      <point x="511.4905660377359" y="38.320754716981135" type="curve" smooth="yes"/>
      <point x="525.1509433962265" y="94.74056603773585"/>
      <point x="479.127358490566" y="130.52358490566039"/>
      <point x="356.83490566037733" y="130.52358490566039" type="curve" smooth="yes"/>
      <point x="328.9056603773585" y="130.52358490566039"/>
      <point x="66.02830188679246" y="130.52358490566039"/>
    </contour>
  </outline>
</glyph>
<glyph name="two" format="2">
  <advance width="600.0"/>
  <unicode hex="0032"/>
  <outline>
    <contour>
      <point x="382.6556603773585" y="720.0" type="curve" smooth="yes"/>
      <point x="303.41037735849056" y="720.0"/>
      <point x="240.75" y="697.8773584905659"/>
      <point x="196.89622641509436" y="655.3396226415094" type="curve" smooth="yes"/>
      <point x="169.2641509433962" y="629.0235849056604"/>
      <point x="149.50943396226415" y="595.7075471698113"/>
      <point x="139.94811320754718" y="557.0" type="curve" smooth="yes"/>
      <point x="127.26415094339625" y="506.24056603773585"/>
      <point x="158.60849056603774" y="453.52830188679246"/>
      <point x="239.64150943396228" y="457.188679245283" type="curve"/>
      <point x="245.49528301886795" y="457.188679245283" type="line"/>
      <point x="254.17452830188682" y="537.9905660377358"/>
      <point x="294.5849056603774" y="589.7452830188679"/>
      <point x="382.0707547169811" y="589.7452830188679" type="curve" smooth="yes"/>
      <point x="413.188679245283" y="589.7452830188679"/>
      <point x="437.8207547169811" y="583.1367924528303"/>
      <point x="455.6981132075472" y="571.8962264150944" type="curve"/>
      <point x="459.5754716981132" y="560.4103773584906"/>
      <point x="461.57547169811323" y="536.8018867924528"/>
      <point x="457.1367924528302" y="514.7783018867924" type="curve" smooth="yes"/>
      <point x="456.1367924528302" y="509.9245283018868" type="line"/>
      <point x="441.38207547169816" y="438.09905660377353"/>
      <point x="408.311320754717" y="401.6132075471698"/>
      <point x="286.8066037735849" y="341.6179245283019" type="curve" smooth="yes"/>
      <point x="98.70283018867924" y="250.25"/>
      <point x="33.19339622641509" y="187.9811320754717"/>
      <point x="13.877358490566035" y="111.71698113207547" type="curve" smooth="yes"/>
      <point x="12.023584905660373" y="104.30188679245283" type="line" smooth="yes"/>
      <point x="1.193396226415091" y="61.9811320754717"/>
      <point x="13.731132075471699" y="0.0"/>
      <point x="50.783018867924525" y="0.0" type="curve" smooth="yes"/>
      <point x="92.37264150943396" y="0.0"/>
      <point x="346.5106179245283" y="0.0"/>
      <point x="465.39150943396226" y="0.0" type="curve"/>
      <point x="479.34433962264154" y="14.099056603773583"/>
      <point x="487.4669811320755" y="31.759433962264147"/>
      <point x="492.8820754716981" y="50.85849056603774" type="curve" smooth="yes"/>
      <point x="507.12735849056605" y="109.69339622641509"/>
      <point x="484.0518867924529" y="130.52358490566039"/>
      <point x="429.95283018867923" y="130.52358490566039" type="curve" smooth="yes"/>
      <point x="310.64622641509436" y="130.52358490566039" type="line" smooth="yes"/>
      <point x="221.42452830188677" y="130.52358490566039"/>
      <point x="150.25" y="121.54716981132076"/>
      <point x="97.20283018867924" y="92.05660377358491" type="curve"/>
      <point x="146.3254716981132" y="91.47169811320754" type="line"/>
      <point x="103.51886792452831" y="130.69339622641508" type="line"/>
      <point x="112.0566037735849" y="85.98584905660378" type="line"/>
      <point x="139.08018867924528" y="147.83490566037736"/>
      <point x="169.27358490566036" y="172.49056603773585"/>
      <point x="322.12264150943395" y="238.9009433962264" type="curve" smooth="yes"/>
      <point x="484.29716981132077" y="309.75471698113205"/>
      <point x="559.367924528302" y="363.38679245283015"/>
      <point x="583.245283018868" y="477.6792452830189" type="curve" smooth="yes"/>
      <point x="584.5377358490566" y="483.70283018867923" type="line" smooth="yes"/>
      <point x="611.8301886792453" y="617.7783018867924"/>
      <point x="548.2216981132076" y="720.0"/>
    </contour>
  </outline>
</glyph>
<glyph name="three" format="2">
  <advance width="600.0"/>
  <unicode hex="0033"/>
  <outline>
    <contour>
      <point x="380.29245283018867" y="719.8537735849056" type="curve" smooth="yes"/>
      <point x="308.36792452830184" y="719.8537735849056"/>
      <point x="239.66037735849056" y="705.0754716981131"/>
      <point x="200.7075471698113" y="674.245283018868" type="curve" smooth="yes"/>
      <point x="170.60849056603774" y="650.4150943396227"/>
      <point x="155.92452830188677" y="624.5849056603773"/>
      <point x="145.38679245283018" y="581.7028301886793" type="curve" smooth="yes"/>
      <point x="139.97169811320754" y="559.3113207547169"/>
      <point x="137.70283018867926" y="536.3584905660377"/>
      <point x="139.99528301886792" y="513.5518867924528" type="curve"/>
      <point x="145.99528301886792" y="513.5518867924528" type="line"/>
      <point x="215.4622641509434" y="572.5518867924529"/>
      <point x="275.1933962264151" y="588.7452830188679"/>
      <point x="358.8018867924528" y="588.7452830188679" type="curve" smooth="yes"/>
      <point x="410.7688679245283" y="588.7452830188679"/>
      <point x="452.79245283018867" y="571.7264150943396"/>
      <point x="474.5283018867924" y="545.0990566037735" type="curve"/>
      <point x="473.5283018867924" y="542.5141509433962" type="line"/>
      <point x="423.5990566037736" y="432.85849056603774"/>
      <point x="339.87264150943395" y="390.5188679245283"/>
      <point x="207.0990566037736" y="390.37264150943395" type="curve"/>
      <point x="196.26886792452828" y="375.9811320754717"/>
      <point x="190.41509433962264" y="362.7122641509434"/>
      <point x="185.85377358490564" y="345.02830188679246" type="curve" smooth="yes"/>
      <point x="176.1698113207547" y="306.561320754717"/>
      <point x="182.29245283018867" y="280.60849056603774"/>
      <point x="214.51415094339623" y="278.04716981132077" type="curve" smooth="yes"/>
      <point x="320.3584905660377" y="271.2169811320755"/>
      <point x="397.84433962264154" y="231.60849056603774"/>
      <point x="399.0660377358491" y="166.19811320754715" type="curve"/>
      <point x="398.0660377358491" y="162.6132075471698" type="line"/>
      <point x="377.89622641509436" y="124.44811320754717"/>
      <point x="326.6792452830189" y="111.10849056603773"/>
      <point x="243.16981132075472" y="111.10849056603773" type="curve" smooth="yes"/>
      <point x="150.68396226415095" y="111.10849056603773"/>
      <point x="95.24528301886791" y="133.1556603773585"/>
      <point x="54.43867924528301" y="196.03301886792454" type="curve"/>
      <point x="48.43867924528301" y="196.03301886792454" type="line"/>
      <point x="35.31603773584906" y="176.64150943396226"/>
      <point x="28.04716981132075" y="160.39622641509433"/>
      <point x="22.48584905660377" y="138.1509433962264" type="curve" smooth="yes"/>
      <point x="11.801886792452827" y="94.2688679245283"/>
      <point x="24.75471698113207" y="55.60849056603774"/>
      <point x="46.75471698113208" y="33.31603773584906" type="curve" smooth="yes"/>
      <point x="80.43867924528303" y="-0.8066037735849054"/>
      <point x="140.60849056603774" y="-20.0"/>
      <point x="230.36320754716982" y="-20.0" type="curve" smooth="yes"/>
      <point x="382.56132075471703" y="-20.0"/>
      <point x="486.07547169811323" y="29.41509433962264"/>
      <point x="511.9292452830189" y="133.8301886792453" type="curve" smooth="yes"/>
      <point x="515.6367924528302" y="148.66037735849056" type="line" smooth="yes"/>
      <point x="538.1981132075472" y="239.05188679245282"/>
      <point x="486.6367924528302" y="309.66037735849056"/>
      <point x="354.49056603773585" y="343.9056603773585" type="curve"/>
      <point x="373.0754716981132" y="307.66037735849056" type="line"/>
      <point x="388.49056603773585" y="370.8820754716981" type="line"/>
      <point x="355.34433962264154" y="335.0518867924528" type="line"/>
      <point x="503.90566037735846" y="374.02830188679246"/>
      <point x="577.6132075471697" y="440.85849056603774"/>
      <point x="595.0754716981132" y="509.7075471698113" type="curve" smooth="yes"/>
      <point x="598.7830188679245" y="524.5377358490566" type="line" smooth="yes"/>
      <point x="624.0754716981132" y="624.7075471698113"/>
      <point x="546.4150943396227" y="719.8537735849056"/>
    </contour>
  </outline>
</glyph>
<glyph name="four" format="2">
  <advance width="600.0"/>
  <unicode hex="0034"/>
  <outline>
    <contour>
      <point x="512.7783018867925" y="710.877358490566" type="curve" smooth="yes"/>
      <point x="468.8490566037736" y="710.877358490566"/>
      <point x="433.45754716981133" y="700.4386792452831"/>
      <point x="366.7971698113207" y="651.316037735849" type="curve" smooth="yes"/>
      <point x="204.99528301886792" y="531.6132075471698"/>
      <point x="64.26886792452831" y="353.1320754716981"/>
      <point x="41.41509433962264" y="269.0330188679245" type="curve" smooth="yes"/>
      <point x="37.56132075471698" y="254.76415094339623" type="line" smooth="yes"/>
      <point x="20.316037735849058" y="188.92924528301887"/>
      <point x="41.12264150943396" y="154.2688679245283"/>
      <point x="83.17452830188678" y="154.2688679245283" type="curve" smooth="yes"/>
      <point x="535.7075471698113" y="154.2688679245283" type="line"/>
      <point x="542.9764150943396" y="167.80660377358492"/>
      <point x="548.5377358490566" y="183.19811320754715"/>
      <point x="552.2452830188679" y="197.32075471698113" type="curve" smooth="yes"/>
      <point x="561.3679245283018" y="236.81132075471697"/>
      <point x="558.3679245283018" y="285.37735849056605"/>
      <point x="516.877358490566" y="285.37735849056605" type="curve" smooth="yes"/>
      <point x="336.3301886792453" y="285.37735849056605" type="line" smooth="yes"/>
      <point x="246.5990566037736" y="285.37735849056605"/>
      <point x="200.62264150943398" y="281.6698113207547"/>
      <point x="156.18396226415098" y="266.83962264150944" type="curve"/>
      <point x="176.2311320754717" y="252.8396226415094" type="line"/>
      <point x="185.74528301886792" y="302.6698113207547" type="line"/>
      <point x="160.061320754717" y="252.6698113207547" type="line"/>
      <point x="290.6745283018868" y="423.59433962264154"/>
      <point x="464.7877358490566" y="579.1179245283018"/>
      <point x="636.1556603773586" y="666.1179245283018" type="curve"/>
      <point x="637.1556603773586" y="672.1179245283018" type="line"/>
      <point x="620.1792452830189" y="695.6320754716982"/>
      <point x="577.7358490566037" y="710.877358490566"/>
    </contour>
    <contour>
      <point x="437.43867924528297" y="412.8349056603774" type="curve"/>
      <point x="397.5566037735849" y="357.8066037735849"/>
      <point x="348.08962264150944" y="262.29245283018867"/>
      <point x="332.79716981132077" y="201.83018867924528" type="curve" smooth="yes"/>
      <point x="319.35849056603774" y="149.6367924528302"/>
      <point x="307.6509433962264" y="99.92924528301887"/>
      <point x="296.11320754716985" y="51.68396226415094" type="curve" smooth="yes"/>
      <point x="287.99056603773585" y="14.245283018867925"/>
      <point x="315.7735849056604" y="-8.29245283018868"/>
      <point x="375.60849056603774" y="-8.29245283018868" type="curve" smooth="yes"/>
      <point x="405.2452830188679" y="-8.29245283018868"/>
      <point x="422.7830188679245" y="-4.584905660377359"/>
      <point x="437.6132075471698" y="-0.731132075471698" type="curve"/>
      <point x="437.3207547169811" y="34.31603773584906"/>
      <point x="440.46698113207543" y="61.632075471698116"/>
      <point x="452.8301886792453" y="110.37735849056605" type="curve" smooth="yes"/>
      <point x="512.5896226415094" y="343.438679245283" type="line" smooth="yes"/>
      <point x="519.2971698113207" y="371.12264150943395"/>
      <point x="506.88207547169816" y="413.12735849056605"/>
      <point x="445.33962264150944" y="413.12735849056605" type="curve" smooth="yes"/>
      <point x="442.46226415094344" y="413.12735849056605"/>
      <point x="439.87735849056605" y="412.9811320754717"/>
    </contour>
  </outline>
</glyph>
<glyph name="five" format="2">
  <advance width="600.0"/>
  <unicode hex="0035"/>
  <outline>
    <contour>
      <point x="188.58018867924528" y="700.0" type="curve"/>
      <point x="181.0188679245283" y="686.3160377358491"/>
      <point x="173.60377358490567" y="668.9245283018868"/>
      <point x="169.0424528301887" y="648.6792452830189" type="curve" smooth="yes"/>
      <point x="156.79716981132077" y="592.4292452830189"/>
      <point x="169.04245283018867" y="568.8915094339623"/>
      <point x="234.41509433962264" y="568.8915094339623" type="curve" smooth="yes"/>
      <point x="300.66509433962267" y="568.8915094339623"/>
      <point x="577.2924528301886" y="568.8915094339623"/>
      <point x="593.5613207547169" y="568.8915094339623" type="curve"/>
      <point x="601.9764150943396" y="582.7216981132075"/>
      <point x="611.9528301886793" y="605.2358490566038"/>
      <point x="617.367924528302" y="626.3349056603773" type="curve" smooth="yes"/>
      <point x="629.7594339622642" y="673.4858490566038"/>
      <point x="607.6839622641509" y="700.0"/>
      <point x="549.8254716981132" y="700.0" type="curve" smooth="yes"/>
      <point x="492.6981132075472" y="700.0"/>
      <point x="208.43396226415095" y="700.0"/>
    </contour>
    <contour>
      <point x="240.67924528301882" y="606.2358490566037" type="line"/>
      <point x="191.21698113207546" y="524.7735849056604"/>
      <point x="149.43867924528303" y="432.8018867924529"/>
      <point x="105.90094339622641" y="323.0707547169811" type="curve" smooth="yes"/>
      <point x="96.33962264150942" y="298.50943396226415"/>
      <point x="104.33962264150942" y="284.3867924528302"/>
      <point x="174.75943396226415" y="284.3867924528302" type="curve" smooth="yes"/>
      <point x="231.5943396226415" y="284.3867924528302" type="line" smooth="yes"/>
      <point x="255.0330188679245" y="284.3867924528302"/>
      <point x="272.0801886792453" y="284.3867924528302"/>
      <point x="289.566037735849" y="284.3867924528302" type="curve" smooth="yes"/>
      <point x="384.6084905660377" y="284.3867924528302"/>
      <point x="422.0188679245283" y="251.92452830188682"/>
      <point x="426.24056603773585" y="193.3443396226415" type="curve"/>
      <point x="425.0943396226415" y="188.75943396226415" type="line"/>
      <point x="413.6320754716981" y="139.49528301886792"/>
      <point x="346.33962264150944" y="111.10849056603773"/>
      <point x="259.6367924528302" y="111.10849056603773" type="curve" smooth="yes"/>
      <point x="160.05188679245285" y="111.10849056603773"/>
      <point x="104.61320754716981" y="134.00943396226415"/>
      <point x="46.31603773584906" y="188.49528301886792" type="curve"/>
      <point x="40.31603773584906" y="188.49528301886792" type="line"/>
      <point x="33.4622641509434" y="177.78773584905662"/>
      <point x="26.90094339622641" y="160.39622641509433"/>
      <point x="21.48584905660377" y="140.1509433962264" type="curve" smooth="yes"/>
      <point x="12.216981132075468" y="102.22169811320755"/>
      <point x="12.801886792452827" y="62.56132075471698"/>
      <point x="37.632075471698116" y="37.43867924528302" type="curve" smooth="yes"/>
      <point x="69.31603773584905" y="5.316037735849056"/>
      <point x="128.02358490566036" y="-20.0"/>
      <point x="234.43867924528303" y="-20.0" type="curve" smooth="yes"/>
      <point x="390.9292452830189" y="-20.0"/>
      <point x="490.61320754716985" y="43.68396226415095"/>
      <point x="517.0518867924528" y="152.85377358490567" type="curve" smooth="yes"/>
      <point x="521.6132075471698" y="171.95283018867926" type="line" smooth="yes"/>
      <point x="546.0518867924528" y="271.9764150943396"/>
      <point x="505.2264150943396" y="380.34433962264154"/>
      <point x="361.69339622641513" y="380.34433962264154" type="curve" smooth="yes"/>
      <point x="311.37735849056605" y="380.34433962264154"/>
      <point x="265.98584905660374" y="370.0754716981132"/>
      <point x="229.96226415094338" y="350.95283018867923" type="curve"/>
      <point x="283.37735849056605" y="363.75943396226415" type="line"/>
      <point x="239.08490566037736" y="366.0990566037736" type="line"/>
      <point x="246.2311320754717" y="338.78301886792457" type="line"/>
      <point x="262.8632075471698" y="389.14150943396226"/>
      <point x="285.811320754717" y="432.47641509433964"/>
      <point x="304.7358490566038" y="474.1320754716981" type="curve" smooth="yes"/>
      <point x="320.8820754716981" y="509.96226415094344"/>
      <point x="322.1745283018868" y="540.7688679245283"/>
      <point x="305.5141509433962" y="562.8915094339623" type="curve"/>
      <point x="321.75943396226415" y="606.2358490566037" type="line"/>
    </contour>
  </outline>
</glyph>
<glyph name="six" format="2">
  <advance width="600.0"/>
  <unicode hex="0036"/>
  <outline>
    <contour>
      <point x="457.0518867924528" y="720.0" type="curve" smooth="yes"/>
      <point x="297.85849056603774" y="720.0"/>
      <point x="144.75471698113208" y="637.2971698113207"/>
      <point x="70.8254716981132" y="339.50943396226415" type="curve" smooth="yes"/>
      <point x="68.67924528301886" y="330.77830188679246" type="line" smooth="yes"/>
      <point x="15.386792452830186" y="114.97641509433963"/>
      <point x="109.09905660377358" y="-20.0"/>
      <point x="260.70754716981133" y="-20.0" type="curve" smooth="yes"/>
      <point x="398.6603773584906" y="-20.0"/>
      <point x="489.9292452830189" y="45.56132075471698"/>
      <point x="522.7594339622641" y="179.66037735849056" type="curve" smooth="yes"/>
      <point x="525.7594339622641" y="191.95283018867926" type="line" smooth="yes"/>
      <point x="558.882075471698" y="328.7830188679245"/>
      <point x="488.127358490566" y="413.1509433962264"/>
      <point x="379.37264150943395" y="413.1509433962264" type="curve" smooth="yes"/>
      <point x="294.6179245283019" y="413.1509433962264"/>
      <point x="240.17924528301887" y="384.02830188679246"/>
      <point x="199.9858490566038" y="322.0518867924528" type="curve"/>
      <point x="245.4009433962264" y="345.8820754716981" type="line"/>
      <point x="169.49528301886792" y="347.9292452830189" type="line"/>
      <point x="145.22641509433961" y="258.8301886792453" type="line"/>
      <point x="207.811320754717" y="285.21698113207543"/>
      <point x="268.29716981132077" y="300.41037735849056"/>
      <point x="321.9764150943396" y="300.41037735849056" type="curve" smooth="yes"/>
      <point x="356.97169811320754" y="300.41037735849056"/>
      <point x="384.3349056603774" y="293.6320754716981"/>
      <point x="403.3349056603774" y="282.2688679245283" type="curve"/>
      <point x="403.35849056603774" y="261.66037735849056"/>
      <point x="400.9433962264151" y="228.24528301886792"/>
      <point x="391.67452830188677" y="198.22169811320754" type="curve" smooth="yes"/>
      <point x="389.8207547169811" y="192.0754716981132" type="line" smooth="yes"/>
      <point x="375.2594339622641" y="141.37264150943395"/>
      <point x="331.311320754717" y="106.10849056603773"/>
      <point x="259.9009433962264" y="106.10849056603773" type="curve" smooth="yes"/>
      <point x="241.51415094339623" y="106.10849056603773"/>
      <point x="225.85849056603772" y="108.57075471698113"/>
      <point x="210.37264150943395" y="114.22641509433961" type="curve"/>
      <point x="197.13207547169813" y="133.0754716981132"/>
      <point x="177.5943396226415" y="212.83018867924528"/>
      <point x="205.91037735849056" y="324.9481132075472" type="curve" smooth="yes"/>
      <point x="208.0566037735849" y="333.5330188679245" type="line" smooth="yes"/>
      <point x="239.91037735849056" y="461.0943396226415"/>
      <point x="282.3490566037736" y="536.1415094339623"/>
      <point x="309.00471698113205" y="561.8207547169811" type="curve"/>
      <point x="337.1981132075471" y="578.0141509433962"/>
      <point x="393.02830188679246" y="591.7452830188679"/>
      <point x="438.9528301886793" y="591.7452830188679" type="curve" smooth="yes"/>
      <point x="497.7075471698114" y="591.7452830188679"/>
      <point x="540.877358490566" y="577.3066037735849"/>
      <point x="578.8301886792452" y="553.2594339622641" type="curve"/>
      <point x="584.8301886792452" y="553.2594339622641" type="line"/>
      <point x="591.683962264151" y="564.5283018867925"/>
      <point x="597.5377358490566" y="578.9433962264151"/>
      <point x="602.8066037735849" y="600.1886792452831" type="curve" smooth="yes"/>
      <point x="614.9056603773586" y="648.6084905660377"/>
      <point x="608.7830188679245" y="669.0"/>
      <point x="598.6367924528303" y="682.5613207547169" type="curve" smooth="yes"/>
      <point x="587.4905660377358" y="696.4150943396226"/>
      <point x="542.1509433962265" y="720.0"/>
    </contour>
  </outline>
</glyph>
<glyph name="seven" format="2">
  <advance width="600.0"/>
  <unicode hex="0037"/>
  <outline>
    <contour>
      <point x="202.04716981132074" y="720.0" type="curve"/>
      <point x="177.0" y="674.0518867924528"/>
      <point x="137.75471698113208" y="576.561320754717"/>
      <point x="121.9245283018868" y="507.1698113207547" type="curve" smooth="yes"/>
      <point x="109.38679245283019" y="457.55660377358487"/>
      <point x="137.58490566037736" y="449.2641509433962"/>
      <point x="187.8820754716981" y="449.2641509433962" type="curve" smooth="yes"/>
      <point x="208.83490566037736" y="449.2641509433962"/>
      <point x="227.7877358490566" y="451.1179245283019"/>
      <point x="242.3254716981132" y="454.82547169811323" type="curve"/>
      <point x="251.49528301886792" y="499.3301886792453"/>
      <point x="304.3490566037736" y="630.0424528301887"/>
      <point x="314.4716981132076" y="670.5330188679245" type="curve" smooth="yes"/>
      <point x="322.8867924528302" y="702.1933962264152"/>
      <point x="262.07547169811323" y="720.0"/>
    </contour>
    <contour>
      <point x="282.5188679245283" y="-0.8773584905660379" type="curve"/>
      <point x="304.9575471698113" y="90.29245283018868"/>
      <point x="352.22641509433964" y="183.31603773584905"/>
      <point x="469.127358490566" y="339.1698113207547" type="curve" smooth="yes"/>
      <point x="565.372641509434" y="467.9292452830189"/>
      <point x="622.7594339622641" y="546.0235849056604"/>
      <point x="630.8066037735848" y="579.9905660377359" type="curve" smooth="yes"/>
      <point x="633.6603773584906" y="591.6981132075472" type="line" smooth="yes"/>
      <point x="643.4905660377358" y="632.6037735849058"/>
      <point x="633.8066037735848" y="700.0"/>
      <point x="602.0" y="700.0" type="curve" smooth="yes"/>
      <point x="207.29245283018867" y="700.0" type="line"/>
      <point x="195.7311320754717" y="649.1933962264151"/>
      <point x="191.9009433962264" y="572.0377358490566"/>
      <point x="226.83018867924528" y="572.0377358490566" type="curve" smooth="yes"/>
      <point x="330.8632075471698" y="572.0377358490566" type="line" smooth="yes"/>
      <point x="413.4528301886793" y="572.0377358490566"/>
      <point x="466.6981132075472" y="578.3066037735849"/>
      <point x="524.4528301886792" y="604.0896226415094" type="curve"/>
      <point x="487.8679245283019" y="606.4292452830189" type="line"/>
      <point x="476.1320754716981" y="548.8915094339623" type="line"/>
      <point x="508.5754716981131" y="627.7971698113208" type="line"/>
      <point x="483.2830188679245" y="575.1462264150944"/>
      <point x="442.8962264150943" y="503.36792452830184"/>
      <point x="350.8254716981132" y="395.27358490566036" type="curve" smooth="yes"/>
      <point x="235.14150943396226" y="258.58962264150944"/>
      <point x="166.72641509433964" y="138.4433962264151"/>
      <point x="152.28773584905662" y="70.51886792452831" type="curve" smooth="yes"/>
      <point x="141.45754716981133" y="18.92924528301887"/>
      <point x="170.77830188679246" y="-10.0"/>
      <point x="233.88207547169813" y="-10.0" type="curve" smooth="yes"/>
      <point x="251.85849056603772" y="-10.0"/>
      <point x="272.66509433962267" y="-5.438679245283019"/>
    </contour>
  </outline>
</glyph>
<glyph name="eight" format="2">
  <advance width="600.0"/>
  <unicode hex="0038"/>
  <outline>
    <contour>
      <point x="402.7311320754717" y="720.0" type="curve" smooth="yes"/>
      <point x="251.36320754716982" y="720.0"/>
      <point x="155.6320754716981" y="634.9009433962265"/>
      <point x="130.07075471698113" y="529.8537735849056" type="curve" smooth="yes"/>
      <point x="128.21698113207546" y="522.2924528301887" type="line"/>
      <point x="111.21698113207547" y="452.09905660377353"/>
      <point x="126.55660377358492" y="356.561320754717"/>
      <point x="261.6320754716981" y="301.58490566037733" type="curve" smooth="yes"/>
      <point x="345.9481132075472" y="267.0" type="line" smooth="yes"/>
      <point x="408.38679245283015" y="241.70754716981133"/>
      <point x="407.75" y="189.04716981132074"/>
      <point x="399.4811320754717" y="151.8301886792453" type="curve"/>
      <point x="369.3820754716981" y="124.08018867924528"/>
      <point x="316.3820754716981" y="105.9622641509434"/>
      <point x="252.00000000000003" y="105.9622641509434" type="curve" smooth="yes"/>
      <point x="192.44811320754718" y="105.9622641509434"/>
      <point x="159.10849056603774" y="124.7122641509434"/>
      <point x="143.66509433962264" y="152.02358490566036" type="curve" smooth="yes"/>
      <point x="152.27358490566036" y="192.01886792452828"/>
      <point x="197.78301886792454" y="264.6320754716981"/>
      <point x="343.98113207547175" y="300.73113207547175" type="curve"/>
      <point x="211.97169811320754" y="346.14622641509436" type="line"/>
      <point x="201.11792452830187" y="304.1698113207547" type="line"/>
      <point x="235.67924528301887" y="329.2688679245283" type="line"/>
      <point x="117.67924528301887" y="310.85377358490564"/>
      <point x="49.509433962264154" y="252.2688679245283"/>
      <point x="31.363207547169814" y="180.39150943396228" type="curve" smooth="yes"/>
      <point x="29.363207547169814" y="172.39150943396226" type="line" smooth="yes"/>
      <point x="3.0943396226415127" y="68.31603773584906"/>
      <point x="84.68396226415094" y="-20.0"/>
      <point x="234.33962264150944" y="-20.0" type="curve" smooth="yes"/>
      <point x="401.0990566037736" y="-20.0"/>
      <point x="487.6367924528302" y="38.2688679245283"/>
      <point x="516.6132075471698" y="144.6367924528302" type="curve" smooth="yes"/>
      <point x="519.4669811320755" y="155.19811320754715" type="line" smooth="yes"/>
      <point x="531.6367924528302" y="200.31603773584905"/>
      <point x="528.25" y="298.3207547169811"/>
      <point x="411.24528301886795" y="344.12735849056605" type="curve" smooth="yes"/>
      <point x="322.9056603773585" y="379.1509433962264" type="line" smooth="yes"/>
      <point x="247.08018867924528" y="409.1981132075472"/>
      <point x="233.93396226415095" y="457.1698113207547"/>
      <point x="246.66509433962264" y="507.0943396226415" type="curve" smooth="yes"/>
      <point x="263.9811320754717" y="573.504716981132"/>
      <point x="325.7830188679245" y="593.7452830188679"/>
      <point x="388.4858490566038" y="593.7452830188679" type="curve" smooth="yes"/>
      <point x="422.5566037735849" y="593.7452830188679"/>
      <point x="448.311320754717" y="587.8443396226415"/>
      <point x="470.4811320754717" y="575.9433962264151" type="curve"/>
      <point x="475.11320754716985" y="556.6037735849056"/>
      <point x="476.2830188679245" y="534.5094339622642"/>
      <point x="471.4056603773585" y="515.0" type="curve" smooth="yes"/>
      <point x="469.4056603773585" y="507.8537735849057" type="line"/>
      <point x="452.52830188679246" y="447.0283018867924"/>
      <point x="405.6792452830189" y="402.5424528301887"/>
      <point x="294.33962264150944" y="359.44339622641513" type="curve"/>
      <point x="415.7358490566038" y="322.44339622641513" type="line"/>
      <point x="428.58962264150944" y="373.2735849056604" type="line"/>
      <point x="392.3207547169811" y="341.0047169811321" type="line"/>
      <point x="492.39150943396226" y="354.5141509433962"/>
      <point x="571.9528301886793" y="410.80660377358487"/>
      <point x="596.2452830188679" y="507.41509433962267" type="curve"/>
      <point x="598.2452830188679" y="515.4150943396227" type="line" smooth="yes"/>
      <point x="629.3679245283018" y="636.4905660377359"/>
      <point x="541.3396226415094" y="720.0"/>
    </contour>
  </outline>
</glyph>
<glyph name="nine" format="2">
  <advance width="600.0"/>
  <unicode hex="0039"/>
  <outline>
    <contour>
      <point x="391.9009433962264" y="720.0" type="curve" smooth="yes"/>
      <point x="253.8254716981132" y="720.0"/>
      <point x="147.21698113207546" y="643.6839622641509"/>
      <point x="106.36320754716981" y="481.26886792452825" type="curve" smooth="yes"/>
      <point x="103.50943396226414" y="469.8537735849057" type="line" smooth="yes"/>
      <point x="69.07075471698113" y="333.24528301886795"/>
      <point x="131.1933962264151" y="240.39150943396226"/>
      <point x="259.6792452830189" y="240.39150943396226" type="curve" smooth="yes"/>
      <point x="327.3349056603774" y="240.39150943396226"/>
      <point x="386.9433962264151" y="266.0990566037736"/>
      <point x="427.6981132075471" y="340.34433962264154" type="curve"/>
      <point x="380.8679245283019" y="314.95283018867923" type="line"/>
      <point x="432.28301886792457" y="312.6132075471698" type="line"/>
      <point x="467.3349056603774" y="403.811320754717" type="line"/>
      <point x="410.5801886792453" y="374.3018867924528"/>
      <point x="364.1698113207547" y="361.8160377358491"/>
      <point x="310.63679245283015" y="361.8160377358491" type="curve" smooth="yes"/>
      <point x="278.54245283018867" y="361.8160377358491"/>
      <point x="249.0566037735849" y="368.8632075471698"/>
      <point x="228.6179245283019" y="380.811320754717" type="curve"/>
      <point x="222.5943396226415" y="404.4433962264151"/>
      <point x="225.0330188679245" y="434.6367924528302"/>
      <point x="232.76415094339623" y="466.70754716981133" type="curve" smooth="yes"/>
      <point x="233.91037735849056" y="471.2924528301887" type="line" smooth="yes"/>
      <point x="252.39622641509433" y="545.7971698113207"/>
      <point x="313.51415094339626" y="597.3066037735849"/>
      <point x="381.77830188679246" y="597.3066037735849" type="curve" smooth="yes"/>
      <point x="407.0188679245283" y="597.3066037735849"/>
      <point x="431.08962264150944" y="592.9669811320754"/>
      <point x="448.79716981132077" y="585.6037735849058" type="curve"/>
      <point x="457.4056603773585" y="557.9716981132075"/>
      <point x="459.2830188679245" y="490.2688679245283"/>
      <point x="435.3820754716981" y="386.2735849056604" type="curve" smooth="yes"/>
      <point x="433.2358490566038" y="376.8349056603774" type="line" smooth="yes"/>
      <point x="405.94339622641513" y="255.71226415094338"/>
      <point x="371.7971698113207" y="183.5188679245283"/>
      <point x="326.50471698113205" y="140.05660377358492" type="curve"/>
      <point x="286.7971698113207" y="122.83962264150942"/>
      <point x="242.87264150943398" y="115.08490566037736"/>
      <point x="199.6556603773585" y="115.08490566037736" type="curve" smooth="yes"/>
      <point x="139.58490566037736" y="115.08490566037736"/>
      <point x="103.5377358490566" y="126.98584905660377"/>
      <point x="62.02358490566037" y="153.0330188679245" type="curve"/>
      <point x="56.02358490566037" y="153.0330188679245" type="line"/>
      <point x="48.31603773584905" y="137.3490566037736"/>
      <point x="41.90094339622642" y="120.24999999999999"/>
      <point x="38.04716981132076" y="100.85849056603773" type="curve" smooth="yes"/>
      <point x="28.924528301886795" y="55.12264150943396"/>
      <point x="34.92452830188679" y="31.43867924528302"/>
      <point x="46.77830188679245" y="16.02358490566038" type="curve" smooth="yes"/>
      <point x="59.632075471698116" y="0.4622641509433958"/>
      <point x="99.97169811320755" y="-20.0"/>
      <point x="192.07075471698113" y="-20.0" type="curve" smooth="yes"/>
      <point x="354.8490566037736" y="-20.0"/>
      <point x="487.6603773584906" y="41.363207547169814"/>
      <point x="570.3207547169812" y="371.00471698113205" type="curve" smooth="yes"/>
      <point x="572.4669811320755" y="379.58962264150944" type="line" smooth="yes"/>
      <point x="628.0518867924529" y="602.9292452830189"/>
      <point x="545.0707547169811" y="720.0"/>
    </contour>
  </outline>
</glyph>
<glyph name="less" format="2">
  <advance width="600.0"/>
  <unicode hex="003C"/>
  <outline>
    <contour>
      <point x="77.31603773584906" y="326.438679245283" type="curve"/>
      <point x="73.1698113207547" y="316.29245283018867"/>
      <point x="70.02358490566037" y="307.29245283018867"/>
      <point x="67.87735849056604" y="297.70754716981133" type="curve" smooth="yes"/>
      <point x="61.7311320754717" y="270.561320754717"/>
      <point x="62.75471698113208" y="255.43867924528303"/>
      <point x="93.26886792452831" y="219.36320754716982" type="curve" smooth="yes"/>
      <point x="166.43867924528303" y="132.75471698113208"/>
      <point x="267.122641509434" y="55.801886792452834"/>
      <point x="449.7311320754717" y="8.485849056603774" type="curve"/>
      <point x="457.571630587001" y="23.572890568149056"/>
      <point x="463.17663619903016" y="39.35870920325755"/>
      <point x="467.9764150943396" y="57.806603773584904" type="curve" smooth="yes"/>
      <point x="479.6085461080618" y="106.04267499827029"/>
      <point x="469.12264150943395" y="135.17924528301887"/>
      <point x="437.7311320754717" y="145.5943396226415" type="curve" smooth="yes"/>
      <point x="334.0566037735849" y="181.51886792452828"/>
      <point x="265.1556603773585" y="218.00471698113208"/>
      <point x="191.76886792452828" y="301.87735849056605" type="curve"/>
      <point x="202.62264150943398" y="252.29245283018867" type="line"/>
      <point x="218.62264150943398" y="316.29245283018867" type="line"/>
      <point x="184.47641509433961" y="266.29245283018867" type="line"/>
      <point x="296.4198113207547" y="360.01886792452825"/>
      <point x="394.6510435711816" y="406.945194610183"/>
      <point x="519.1179245283018" y="443.2594339622641" type="curve" smooth="yes"/>
      <point x="556.0707547169811" y="453.67452830188677"/>
      <point x="574.531004842108" y="477.2412655197623"/>
      <point x="587.2924528301886" y="526.9481132075472" type="curve" smooth="yes"/>
      <point x="592.8537735849056" y="549.0471698113207"/>
      <point x="596.2688679245283" y="573.0372641509433"/>
      <point x="596.2688679245283" y="591.3679245283018" type="curve"/>
      <point x="360.58490566037733" y="537.6603773584906"/>
      <point x="186.8490566037736" y="431.7547169811321"/>
    </contour>
  </outline>
</glyph>
<glyph name="equal" format="2">
  <advance width="600.0"/>
  <unicode hex="003D"/>
  <outline>
    <contour>
      <point x="107.43867924528303" y="492.688679245283" type="line"/>
      <point x="102.02358490566039" y="481.7122641509434"/>
      <point x="95.60849056603773" y="468.8820754716981"/>
      <point x="90.19339622641509" y="445.51415094339626" type="curve" smooth="yes"/>
      <point x="76.65566037735849" y="385.9481132075472"/>
      <point x="96.46226415094338" y="357.311320754717"/>
      <point x="164.27358490566036" y="357.311320754717" type="curve"/>
      <point x="565.877358490566" y="357.311320754717" type="line"/>
      <point x="575.7075471698114" y="373.26415094339626"/>
      <point x="582.9764150943396" y="390.2169811320755"/>
      <point x="589.2452830188679" y="413.877358490566" type="curve"/>
      <point x="601.9292452830189" y="463.49056603773585"/>
      <point x="583.5377358490566" y="492.688679245283"/>
      <point x="531.0943396226414" y="492.688679245283" type="curve" smooth="yes"/>
    </contour>
    <contour>
      <point x="50.41509433962264" y="242.68867924528303" type="line"/>
      <point x="38.16981132075472" y="221.61320754716982"/>
      <point x="29.193396226415096" y="200.24528301886792"/>
      <point x="22.924528301886795" y="175.16981132075472" type="curve"/>
      <point x="12.655660377358492" y="132.67924528301887"/>
      <point x="27.608490566037737" y="107.31132075471697"/>
      <point x="71.22169811320754" y="107.31132075471697" type="curve" smooth="yes"/>
      <point x="503.877358490566" y="107.31132075471697" type="line"/>
      <point x="510.29245283018867" y="114.72641509433963"/>
      <point x="519.2688679245283" y="129.97169811320754"/>
      <point x="524.683962264151" y="154.9245283018868" type="curve" smooth="yes"/>
      <point x="537.0754716981132" y="213.49056603773587"/>
      <point x="519.9764150943396" y="242.68867924528303"/>
      <point x="451.4811320754717" y="242.68867924528303" type="curve"/>
    </contour>
  </outline>
</glyph>
<glyph name="greater" format="2">
  <advance width="600.0"/>
  <unicode hex="003E"/>
  <outline>
    <contour>
      <point x="532.1462264150944" y="273.4150943396226" type="curve"/>
      <point x="536.2924528301886" y="283.561320754717"/>
      <point x="539.438679245283" y="292.561320754717"/>
      <point x="541.5849056603773" y="302.14622641509436" type="curve" smooth="yes"/>
      <point x="547.7311320754717" y="329.29245283018867"/>
      <point x="546.7075471698113" y="344.41509433962267"/>
      <point x="516.1933962264151" y="380.49056603773585" type="curve" smooth="yes"/>
      <point x="443.0235849056604" y="467.0990566037736"/>
      <point x="342.33962264150944" y="544.0518867924529"/>
      <point x="159.7311320754717" y="591.3679245283018" type="curve"/>
      <point x="151.89063356394246" y="576.2808830167565"/>
      <point x="146.28562795191326" y="560.4950643816481"/>
      <point x="141.4858490566038" y="542.0471698113207" type="curve" smooth="yes"/>
      <point x="129.8537180428816" y="493.8110985866354"/>
      <point x="140.33962264150944" y="464.6745283018868"/>
      <point x="171.73113207547172" y="454.25943396226415" type="curve" smooth="yes"/>
      <point x="275.40566037735846" y="418.3349056603774"/>
      <point x="344.30660377358487" y="381.8490566037736"/>
      <point x="417.69339622641513" y="297.97641509433964" type="curve"/>
      <point x="406.83962264150944" y="347.561320754717" type="line"/>
      <point x="390.83962264150944" y="283.561320754717" type="line"/>
      <point x="424.98584905660374" y="333.56132075471703" type="line"/>
      <point x="313.0424528301887" y="239.83490566037736"/>
      <point x="214.81122057976177" y="192.90857897472262"/>
      <point x="90.34433962264151" y="156.5943396226415" type="curve" smooth="yes"/>
      <point x="53.39150943396226" y="146.17924528301887"/>
      <point x="34.93125930883538" y="122.61250806514339"/>
      <point x="22.169811320754718" y="72.9056603773585" type="curve" smooth="yes"/>
      <point x="16.608490566037737" y="50.806603773584904"/>
      <point x="13.193396226415087" y="26.816509433962285"/>
      <point x="13.193396226415095" y="8.485849056603774" type="curve"/>
      <point x="248.87735849056605" y="62.193396226415096"/>
      <point x="422.6132075471698" y="168.0990566037736"/>
    </contour>
  </outline>
</glyph>
<glyph name="question" format="2">
  <advance width="600.0"/>
  <unicode hex="003F"/>
  <outline>
    <contour>
      <point x="289.1981132075472" y="-3.9764150943396226" type="curve"/>
      <point x="301.3207547169811" y="23.707547169811313" type="line" smooth="yes"/>
      <point x="339.1037735849057" y="109.29716981132076"/>
      <point x="296.75943396226415" y="173.66509433962264"/>
      <point x="210.0" y="173.66509433962264" type="curve" smooth="yes"/>
      <point x="181.04716981132077" y="173.66509433962264"/>
      <point x="159.94811320754718" y="171.66509433962264"/>
      <point x="136.14150943396226" y="167.66509433962264" type="curve"/>
      <point x="125.45754716981132" y="134.32075471698113" type="line" smooth="yes"/>
      <point x="95.50471698113208" y="39.97641509433963"/>
      <point x="127.4811320754717" y="-10.122641509433961"/>
      <point x="199.6792452830189" y="-10.122641509433961" type="curve" smooth="yes"/>
      <point x="230.75471698113208" y="-10.122641509433961"/>
      <point x="265.0990566037736" y="-8.122641509433961"/>
    </contour>
    <contour>
      <point x="387.8018867924528" y="720.0" type="curve" smooth="yes"/>
      <point x="291.16509433962267" y="720.0"/>
      <point x="229.97169811320754" y="701.122641509434"/>
      <point x="188.97169811320754" y="666.6839622641509" type="curve" smooth="yes"/>
      <point x="154.53301886792454" y="637.9528301886792"/>
      <point x="141.36320754716982" y="607.6603773584906"/>
      <point x="135.21698113207546" y="580.3443396226415" type="curve" smooth="yes"/>
      <point x="128.6556603773585" y="551.0990566037736"/>
      <point x="130.24056603773585" y="529.4150943396227"/>
      <point x="140.87264150943395" y="510.04716981132077" type="curve"/>
      <point x="146.87264150943395" y="510.04716981132077" type="line"/>
      <point x="204.4622641509434" y="561.9198113207548"/>
      <point x="270.5094339622642" y="588.3301886792452"/>
      <point x="352.16509433962267" y="588.3301886792452" type="curve" smooth="yes"/>
      <point x="395.21226415094344" y="588.3301886792452"/>
      <point x="428.5047169811321" y="584.7452830188679"/>
      <point x="445.52830188679246" y="577.8443396226415" type="curve"/>
      <point x="447.45283018867923" y="568.9198113207547"/>
      <point x="446.74528301886795" y="558.2641509433962"/>
      <point x="443.8679245283019" y="546.9009433962265" type="curve" smooth="yes"/>
      <point x="432.4292452830189" y="505.561320754717"/>
      <point x="408.6745283018868" y="476.51415094339626"/>
      <point x="351.6037735849057" y="442.46698113207543" type="curve" smooth="yes"/>
      <point x="324.75" y="426.46698113207543" type="line" smooth="yes"/>
      <point x="242.5047169811321" y="377.34433962264154"/>
      <point x="218.87264150943398" y="354.1509433962264"/>
      <point x="207.70283018867926" y="313.566037735849" type="curve" smooth="yes"/>
      <point x="206.55660377358492" y="309.4198113207547" type="line" smooth="yes"/>
      <point x="196.8490566037736" y="271.49056603773585"/>
      <point x="224.77830188679243" y="249.8066037735849"/>
      <point x="304.4669811320755" y="249.8066037735849" type="curve" smooth="yes"/>
      <point x="312.1745283018868" y="249.8066037735849" type="line"/>
      <point x="313.3207547169812" y="255.53773584905662" type="line" smooth="yes"/>
      <point x="320.4669811320755" y="284.29245283018867"/>
      <point x="337.3443396226415" y="306.02358490566036"/>
      <point x="385.4858490566038" y="332.5566037735849" type="curve" smooth="yes"/>
      <point x="418.1698113207547" y="350.2641509433962" type="line" smooth="yes"/>
      <point x="512.122641509434" y="400.70283018867923"/>
      <point x="552.6839622641509" y="440.8490566037736"/>
      <point x="574.3915094339623" y="520.3867924528302" type="curve" smooth="yes"/>
      <point x="577.2452830188679" y="530.8018867924529" type="line" smooth="yes"/>
      <point x="601.2452830188679" y="618.2169811320755"/>
      <point x="548.2924528301887" y="720.0"/>
    </contour>
  </outline>
</glyph>
<glyph name="at" format="2">
  <advance width="600.0"/>
  <unicode hex="0040"/>
  <outline>
    <contour>
      <point x="417.38679245283015" y="717.5377358490566" type="curve" smooth="yes"/>
      <point x="246.58490566037736" y="717.5377358490566"/>
      <point x="93.38679245283018" y="545.7122641509434"/>
      <point x="19.386792452830186" y="245.49528301886792" type="curve" smooth="yes"/>
      <point x="15.533018867924527" y="229.93396226415095" type="line" smooth="yes"/>
      <point x="-43.85849056603774" y="-11.117924528301888"/>
      <point x="8.603773584905664" y="-156.31603773584905"/>
      <point x="208.75471698113208" y="-156.31603773584905" type="curve" smooth="yes"/>
      <point x="274.1462264150943" y="-156.31603773584905"/>
      <point x="323.41509433962267" y="-141.48584905660377"/>
      <point x="355.4150943396226" y="-115.6320754716981" type="curve" smooth="yes"/>
      <point x="386.07547169811323" y="-91.38679245283018"/>
      <point x="396.7830188679245" y="-64.70283018867924"/>
      <point x="404.6132075471698" y="-31.504716981132077" type="curve" smooth="yes"/>
      <point x="405.6132075471698" y="-23.504716981132077" type="line"/>
      <point x="402.17452830188677" y="-21.797169811320757" type="line"/>
      <point x="353.75943396226415" y="-52.77358490566038"/>
      <point x="283.95283018867923" y="-66.62735849056604"/>
      <point x="222.97641509433964" y="-64.91981132075472" type="curve" smooth="yes"/>
      <point x="159.77830188679246" y="-62.35849056603774"/>
      <point x="116.48584905660377" y="-53.06603773584906"/>
      <point x="78.24056603773586" y="-27.212264150943398" type="curve"/>
      <point x="62.16981132075472" y="36.910377358490564"/>
      <point x="67.56132075471699" y="129.30188679245282"/>
      <point x="90.29245283018868" y="220.68867924528303" type="curve" smooth="yes"/>
      <point x="93.29245283018868" y="232.83490566037733" type="line" smooth="yes"/>
      <point x="154.46226415094338" y="479.3160377358491"/>
      <point x="276.48584905660374" y="622.7264150943396"/>
      <point x="403.6792452830189" y="622.7264150943396" type="curve"/>
      <point x="455.36320754716985" y="622.7264150943396"/>
      <point x="496.04716981132077" y="614.5801886792453"/>
      <point x="525.2924528301887" y="596.1415094339623" type="curve"/>
      <point x="542.438679245283" y="526.2877358490566"/>
      <point x="538.4150943396226" y="442.3632075471698"/>
      <point x="520.8066037735848" y="366.6367924528302" type="curve" smooth="yes"/>
      <point x="517.6603773584905" y="353.0518867924528" type="line" smooth="yes"/>
      <point x="485.75943396226415" y="225.4009433962264"/>
      <point x="442.83490566037733" y="144.52358490566039"/>
      <point x="377.88207547169816" y="98.41981132075472" type="curve"/>
      <point x="371.61320754716985" y="98.41981132075472" type="line"/>
      <point x="372.02830188679246" y="127.66509433962264"/>
      <point x="376.8820754716981" y="150.39622641509433"/>
      <point x="384.61320754716985" y="182.73584905660377" type="curve" smooth="yes"/>
      <point x="407.1745283018868" y="270.4198113207547"/>
      <point x="429.6367924528302" y="362.12264150943395"/>
      <point x="447.9292452830189" y="434.14622641509436" type="curve" smooth="yes"/>
      <point x="462.1981132075472" y="491.5141509433962"/>
      <point x="451.9764150943396" y="508.5377358490566"/>
      <point x="417.438679245283" y="508.5377358490566" type="curve"/>
      <point x="411.7311320754717" y="508.5377358490566" type="line"/>
      <point x="389.87735849056605" y="477.438679245283"/>
      <point x="372.3160377358491" y="449.33962264150944"/>
      <point x="357.4622641509434" y="420.6556603773585" type="curve" smooth="yes"/>
      <point x="329.7547169811321" y="368.41037735849056"/>
      <point x="306.48584905660374" y="313.6792452830189"/>
      <point x="285.85377358490564" y="231.4433962264151" type="curve"/>
      <point x="260.5377358490566" y="129.74056603773585"/>
      <point x="275.7547169811321" y="34.63679245283019"/>
      <point x="345.41509433962267" y="34.63679245283019" type="curve" smooth="yes"/>
      <point x="347.561320754717" y="34.63679245283019" type="line" smooth="yes"/>
      <point x="437.8301886792453" y="34.63679245283019"/>
      <point x="543.4433962264151" y="146.92924528301887"/>
      <point x="591.4198113207547" y="342.3679245283019" type="curve" smooth="yes"/>
      <point x="594.566037735849" y="355.39150943396226" type="line" smooth="yes"/>
      <point x="648.8349056603773" y="580.0235849056604"/>
      <point x="572.5330188679245" y="717.5377358490566"/>
    </contour>
    <contour>
      <point x="204.16981132075472" y="35.490566037735846" type="curve" smooth="yes"/>
      <point x="225.87735849056605" y="35.490566037735846"/>
      <point x="245.16981132075475" y="50.367924528301884"/>
      <point x="271.70754716981133" y="94.34433962264151" type="curve"/>
      <point x="305.561320754717" y="94.34433962264151" type="line"/>
      <point x="322.70754716981133" y="168.56603773584905" type="line"/>
      <point x="310.07547169811323" y="157.64150943396226"/>
      <point x="292.8301886792453" y="151.08018867924528"/>
      <point x="285.39150943396226" y="150.78773584905662" type="curve"/>
      <point x="285.95283018867923" y="173.6179245283019"/>
      <point x="288.95283018867923" y="197.22641509433961"/>
      <point x="296.8301886792453" y="228.4433962264151" type="curve" smooth="yes"/>
      <point x="297.97641509433964" y="233.1745283018868" type="line" smooth="yes"/>
      <point x="318.92452830188677" y="314.9669811320755"/>
      <point x="351.1698113207547" y="391.72641509433964"/>
      <point x="360.0707547169811" y="391.72641509433964" type="curve" smooth="yes"/>
      <point x="367.3632075471698" y="391.72641509433964"/>
      <point x="373.21698113207543" y="386.87264150943395"/>
      <point x="377.24056603773585" y="377.2877358490566" type="curve"/>
      <point x="393.7547169811321" y="449.4858490566038" type="line"/>
      <point x="367.9009433962264" y="449.4858490566038" type="line"/>
      <point x="376.29245283018867" y="496.561320754717"/>
      <point x="369.14622641509436" y="516.9528301886793"/>
      <point x="345.0235849056604" y="516.9528301886793" type="curve"/>
      <point x="304.3160377358491" y="516.9528301886793"/>
      <point x="229.53301886792454" y="393.6792452830189"/>
      <point x="189.60849056603774" y="233.83490566037736" type="curve" smooth="yes"/>
      <point x="186.60849056603774" y="223.68867924528303" type="line" smooth="yes"/>
      <point x="157.4622641509434" y="107.81132075471697"/>
      <point x="163.9245283018868" y="35.490566037735846"/>
    </contour>
  </outline>
</glyph>
<glyph name="A" format="2">
  <advance width="600.0"/>
  <unicode hex="0041"/>
  <anchor x="418.7643079095165" y="710.8537735849056" name="top"/>
  <anchor x="418.10618717626465" y="708.5377358490566" name="ring"/>
  <anchor x="510.7122641509434" y="0.0" name="ogonek"/>
  <anchor x="231.19339622641508" y="-1.0" name="bottom"/>
  <anchor x="420.0" y="770.0" name="hook"/>
  <outline>
    <contour>
      <point x="28.80188679245283" y="286.78301886792457" type="line"/>
      <point x="22.38679245283019" y="263.683962264151" type="line" smooth="yes"/>
      <point x="9.556603773584905" y="213.36320754716982"/>
      <point x="12.849056603773588" y="164.50471698113208"/>
      <point x="47.36320754716982" y="164.50471698113208" type="curve"/>
      <point x="399.5518867924528" y="164.50471698113208" type="line"/>
      <point x="399.5518867924528" y="210.97169811320754" type="line"/>
      <point x="399.5518867924528" y="252.58490566037736" type="line"/>
      <point x="384.84433962264154" y="250.43867924528303" type="line"/>
      <point x="370.1367924528302" y="272.53773584905656"/>
      <point x="343.47641509433964" y="286.78301886792457"/>
      <point x="303.4009433962264" y="286.78301886792457" type="curve" smooth="yes"/>
    </contour>
    <contour>
      <point x="155.83962264150944" y="0.0" type="curve"/>
      <point x="163.05660377358492" y="166.22641509433961"/>
      <point x="233.48584905660377" y="408.32547169811323"/>
      <point x="406.7311320754717" y="619.3584905660377" type="curve"/>
      <point x="362.97169811320754" y="600.8207547169811" type="line"/>
      <point x="421.6839622641509" y="590.5754716981132" type="line"/>
      <point x="392.60849056603774" y="624.3349056603773" type="line"/>
      <point x="421.77358490566036" y="474.99056603773585"/>
      <point x="416.4056603773585" y="319.3679245283019"/>
      <point x="360.8207547169812" y="92.85849056603773" type="curve" smooth="yes"/>
      <point x="344.13679245283015" y="25.537735849056602"/>
      <point x="378.4811320754717" y="-9.122641509433961"/>
      <point x="424.82547169811323" y="-9.122641509433961" type="curve" smooth="yes"/>
      <point x="462.561320754717" y="-9.122641509433961"/>
      <point x="489.1981132075472" y="-5.561320754716982"/>
      <point x="507.71226415094344" y="0.0" type="curve"/>
      <point x="501.88207547169804" y="43.51415094339623"/>
      <point x="504.8820754716981" y="85.71226415094338"/>
      <point x="513.3207547169811" y="131.02830188679243" type="curve" smooth="yes"/>
      <point x="549.0518867924528" y="322.2971698113207"/>
      <point x="559.0047169811321" y="477.82547169811323"/>
      <point x="534.3018867924528" y="590.7971698113207" type="curve" smooth="yes"/>
      <point x="517.1556603773585" y="672.5094339622642"/>
      <point x="489.6650943396226" y="710.0"/>
      <point x="390.4858490566038" y="710.0" type="curve"/>
      <point x="367.8254716981132" y="710.0"/>
      <point x="347.0188679245283" y="706.2924528301886"/>
      <point x="327.77358490566036" y="701.7311320754717" type="curve"/>
      <point x="188.87735849056605" y="577.004716981132"/>
      <point x="73.02358490566039" y="375.0047169811321"/>
      <point x="31.58490566037736" y="121.34905660377359" type="curve" smooth="yes"/>
      <point x="16.781955009628305" y="33.38342390746793"/>
      <point x="33.667099056603774" y="-8.976415094339622"/>
      <point x="100.9811320754717" y="-8.976415094339622" type="curve"/>
      <point x="117.66509433962264" y="-8.976415094339622"/>
      <point x="139.5943396226415" y="-5.415094339622641"/>
    </contour>
  </outline>
</glyph>
<glyph name="B" format="2">
  <advance width="600.0"/>
  <unicode hex="0042"/>
  <anchor x="300.0" y="711.0" name="top"/>
  <anchor x="300.0" y="0.0" name="bottom"/>
  <outline>
    <contour>
      <point x="199.82547169811318" y="-10.0" type="curve"/>
      <point x="344.26415094339626" y="-10.0"/>
      <point x="474.0990566037736" y="52.39150943396226"/>
      <point x="506.7830188679245" y="182.56603773584905" type="curve"/>
      <point x="508.22169811320754" y="188.32075471698113" type="line"/>
      <point x="520.5141509433962" y="237.19811320754718"/>
      <point x="496.36792452830184" y="287.80660377358487"/>
      <point x="449.85849056603774" y="311.0990566037736" type="curve"/>
      <point x="449.85849056603774" y="334.9056603773585" type="line"/>
      <point x="242.30188679245282" y="336.6132075471698" type="line"/>
      <point x="242.30188679245282" y="322.75943396226415" type="line"/>
      <point x="270.2830188679245" y="322.75943396226415" type="line"/>
      <point x="359.311320754717" y="301.78301886792457"/>
      <point x="392.2594339622641" y="267.4433962264151"/>
      <point x="377.67452830188677" y="210.66509433962264" type="curve"/>
      <point x="375.5283018867924" y="202.08018867924528" type="line"/>
      <point x="360.066037735849" y="139.37735849056605"/>
      <point x="292.38679245283015" y="113.1320754716981"/>
      <point x="212.9245283018868" y="113.1320754716981" type="curve" smooth="yes"/>
      <point x="191.02830188679243" y="113.1320754716981"/>
      <point x="177.12735849056605" y="116.00943396226415"/>
      <point x="162.47169811320754" y="123.64150943396224" type="curve"/>
      <point x="174.3254716981132" y="244.12264150943395"/>
      <point x="247.83490566037736" y="362.89622641509436"/>
      <point x="270.17452830188677" y="485.52358490566036" type="curve"/>
      <point x="278.3207547169811" y="533.1084905660377"/>
      <point x="268.63679245283015" y="563.183962264151"/>
      <point x="244.561320754717" y="577.8915094339623" type="curve"/>
      <point x="254.26886792452828" y="596.4528301886793" type="line"/>
      <point x="167.60377358490567" y="595.7216981132076" type="line"/>
      <point x="143.97169811320754" y="426.24056603773585"/>
      <point x="49.556603773584904" y="284.0235849056604"/>
      <point x="31.533018867924525" y="126.0" type="curve"/>
      <point x="26.948113207547166" y="85.3443396226415"/>
      <point x="36.094339622641506" y="58.5377358490566"/>
      <point x="53.216981132075475" y="41.41509433962264" type="curve" smooth="yes"/>
      <point x="89.31603773584905" y="5.316037735849057"/>
      <point x="132.58490566037736" y="-10.0"/>
    </contour>
    <contour>
      <point x="132.60849056603774" y="700.0" type="curve"/>
      <point x="124.48584905660377" y="684.754716981132"/>
      <point x="117.36320754716981" y="670.5094339622642"/>
      <point x="111.09433962264151" y="643.5801886792452" type="curve" smooth="yes"/>
      <point x="99.41037735849056" y="595.6981132075472"/>
      <point x="103.70283018867924" y="569.183962264151"/>
      <point x="137.48584905660377" y="569.183962264151" type="curve"/>
      <point x="158.4444262447731" y="569.183962264151"/>
      <point x="238.30530613062453" y="589.183962264151"/>
      <point x="360.04716981132077" y="589.183962264151" type="curve" smooth="yes"/>
      <point x="407.45754716981133" y="589.183962264151"/>
      <point x="440.6509433962264" y="585.4528301886793"/>
      <point x="466.5518867924528" y="574.2358490566038" type="curve"/>
      <point x="469.5990566037736" y="555.4811320754717"/>
      <point x="468.0377358490566" y="530.8254716981132"/>
      <point x="461.16037735849056" y="504.4622641509434" type="curve" smooth="yes"/>
      <point x="458.0141509433962" y="492.0235849056604" type="line" smooth="yes"/>
      <point x="438.34393472352406" y="414.2200785168231"/>
      <point x="368.5047482194019" y="375.2028301886793"/>
      <point x="276.688679245283" y="375.2028301886793" type="curve" smooth="yes"/>
      <point x="245.61792452830187" y="375.2028301886793"/>
      <point x="237.44811320754715" y="379.3490566037736"/>
      <point x="218.88679245283018" y="386.64150943396226" type="curve"/>
      <point x="184.10377358490564" y="298.8301886792453" type="line"/>
      <point x="217.47169811320754" y="304.6839622641509" type="line"/>
      <point x="230.3254716981132" y="285.4150943396226"/>
      <point x="243.78773584905662" y="275.41509433962267"/>
      <point x="274.688679245283" y="275.41509433962267" type="curve"/>
      <point x="427.3856825748816" y="275.41509433962267"/>
      <point x="558.9862071031632" y="362.7654041061835"/>
      <point x="595.6603773584906" y="493.8301886792453" type="curve" smooth="yes"/>
      <point x="597.9528301886793" y="502.14622641509436" type="line" smooth="yes"/>
      <point x="622.0990566037736" y="589.4858490566038"/>
      <point x="571.3632075471697" y="720.0"/>
      <point x="375.3160377358491" y="720.0" type="curve" smooth="yes"/>
      <point x="294.97169811320754" y="720.0"/>
      <point x="219.41037735849056" y="713.5849056603773"/>
    </contour>
  </outline>
</glyph>
<glyph name="C" format="2">
  <advance width="600.0"/>
  <unicode hex="0043"/>
  <anchor x="420.8419830353887" y="711.0" name="top"/>
  <anchor x="260.0364445519194" y="-1.6084905660377355" name="bottom"/>
  <outline>
    <contour>
      <point x="293.6839622641509" y="-20.0" type="curve" smooth="yes"/>
      <point x="364.6839622641509" y="-20.0"/>
      <point x="423.561320754717" y="1.8537735849056602"/>
      <point x="453.438679245283" y="31.7311320754717" type="curve" smooth="yes"/>
      <point x="483.83018867924534" y="62.12264150943396"/>
      <point x="498.8066037735849" y="86.09905660377358"/>
      <point x="512.1981132075472" y="140.83490566037736" type="curve" smooth="yes"/>
      <point x="516.7594339622642" y="160.51886792452828"/>
      <point x="519.3207547169811" y="180.49528301886795"/>
      <point x="519.1745283018868" y="197.47169811320757" type="curve"/>
      <point x="513.1745283018868" y="197.47169811320757" type="line"/>
      <point x="450.0990566037736" y="136.8396226415094"/>
      <point x="376.0990566037736" y="110.81603773584905"/>
      <point x="307.1981132075472" y="110.81603773584905" type="curve" smooth="yes"/>
      <point x="250.10377358490567" y="110.81603773584905"/>
      <point x="215.3254716981132" y="125.3254716981132"/>
      <point x="188.64150943396226" y="147.49528301886792" type="curve"/>
      <point x="186.27830188679246" y="197.85849056603774"/>
      <point x="191.74056603773587" y="236.83018867924528"/>
      <point x="203.03301886792454" y="279.7311320754717" type="curve" smooth="yes"/>
      <point x="208.17924528301887" y="299.6084905660377" type="line" smooth="yes"/>
      <point x="252.68867924528303" y="472.13207547169816"/>
      <point x="340.29245283018867" y="596.8679245283018"/>
      <point x="444.9245283018868" y="596.8679245283018" type="curve" smooth="yes"/>
      <point x="472.311320754717" y="596.8679245283018"/>
      <point x="490.3820754716981" y="590.2594339622642"/>
      <point x="503.5518867924528" y="576.311320754717" type="curve"/>
      <point x="513.7028301886793" y="617.3349056603774" type="line"/>
      <point x="470.37735849056605" y="555.4811320754717"/>
      <point x="451.5990566037736" y="520.3349056603773"/>
      <point x="441.8443396226415" y="482.4858490566038" type="curve" smooth="yes"/>
      <point x="429.4292452830189" y="431.8490566037736"/>
      <point x="451.3820754716981" y="401.0188679245283"/>
      <point x="506.8254716981132" y="401.0188679245283" type="curve" smooth="yes"/>
      <point x="529.3396226415094" y="401.0188679245283"/>
      <point x="550.4150943396227" y="404.5801886792453"/>
      <point x="568.9292452830189" y="412.55660377358487" type="curve"/>
      <point x="572.6603773584906" y="451.0424528301887"/>
      <point x="580.4150943396227" y="475.4811320754717"/>
      <point x="595.8301886792453" y="526.8962264150944" type="curve" smooth="yes"/>
      <point x="608.8301886792453" y="569.3349056603773"/>
      <point x="605.683962264151" y="635.9481132075472"/>
      <point x="563.4622641509434" y="678.1698113207547" type="curve" smooth="yes"/>
      <point x="538.0471698113207" y="703.5849056603773"/>
      <point x="499.63207547169816" y="720.0"/>
      <point x="446.65566037735846" y="720.0" type="curve" smooth="yes"/>
      <point x="265.9716981132075" y="720.0"/>
      <point x="139.0943396226415" y="569.3396226415094"/>
      <point x="72.09433962264151" y="318.70754716981133" type="curve" smooth="yes"/>
      <point x="65.09433962264151" y="292.4150943396226" type="line" smooth="yes"/>
      <point x="19.679245283018865" y="122.70754716981132"/>
      <point x="95.14622641509433" y="-20.0"/>
    </contour>
  </outline>
</glyph>
<glyph name="D" format="2">
  <advance width="600.0"/>
  <unicode hex="0044"/>
  <anchor x="398.7995302052" y="711.0" name="top"/>
  <anchor x="203.67924528301887" y="0.0" name="bottom"/>
  <outline>
    <contour>
      <point x="576.3207547169811" y="355.3207547169811" type="curve" smooth="yes"/>
      <point x="583.6132075471697" y="384.63679245283015" type="line" smooth="yes"/>
      <point x="634.882075471698" y="595.7122641509434"/>
      <point x="539.8207547169811" y="720.0"/>
      <point x="361.24528301886795" y="720.0" type="curve"/>
      <point x="286.2924528301887" y="720.0"/>
      <point x="218.0178440611915" y="713.0649100114232"/>
      <point x="137.02358490566039" y="700.0" type="curve"/>
      <point x="128.75471698113208" y="684.754716981132"/>
      <point x="121.63207547169812" y="669.6556603773585"/>
      <point x="116.21698113207547" y="648.7028301886793" type="curve" smooth="yes"/>
      <point x="102.8254716981132" y="595.6981132075472"/>
      <point x="108.8254716981132" y="569.183962264151"/>
      <point x="137.48584905660377" y="569.183962264151" type="curve" smooth="yes"/>
      <point x="158.19339622641508" y="569.183962264151"/>
      <point x="238.67924528301887" y="589.183962264151"/>
      <point x="356.3915094339623" y="589.183962264151" type="curve" smooth="yes"/>
      <point x="399.09433962264154" y="589.183962264151"/>
      <point x="430.45754716981133" y="582.5754716981131"/>
      <point x="457.11320754716985" y="568.0424528301887" type="curve"/>
      <point x="463.4292452830189" y="519.2405660377358"/>
      <point x="461.4292452830189" y="475.438679245283"/>
      <point x="441.11320754716985" y="394.1745283018868" type="curve" smooth="yes"/>
      <point x="437.6745283018868" y="380.4198113207547" type="line" smooth="yes"/>
      <point x="392.6886613085316" y="200.4763433475047"/>
      <point x="312.0" y="116.54716981132074"/>
      <point x="210.95283018867923" y="116.54716981132074" type="curve" smooth="yes"/>
      <point x="193.50643224697498" y="116.54716981132074"/>
      <point x="179.8816312490123" y="118.89642097633585"/>
      <point x="166.00943396226415" y="122.17924528301886" type="curve"/>
      <point x="178.57075471698113" y="243.83018867924528"/>
      <point x="253.83490566037736" y="362.28773584905656"/>
      <point x="272.9811320754717" y="483.64622641509436" type="curve"/>
      <point x="280.52390784501836" y="532.5067353524826"/>
      <point x="275.03114261666275" y="563.8429192576637"/>
      <point x="249.75943396226413" y="578.5990566037735" type="curve"/>
      <point x="259.61320754716985" y="596.3066037735849" type="line"/>
      <point x="164.97169811320754" y="595.5754716981132" type="line"/>
      <point x="146.39517893482073" y="426.3453937425462"/>
      <point x="51.15466968305566" y="284.4753762920538"/>
      <point x="31.094339622641506" y="125.14622641509435" type="curve"/>
      <point x="26.363207547169807" y="87.90566037735849"/>
      <point x="33.37663298713018" y="61.062046258152826"/>
      <point x="55.924528301886795" y="38.514150943396224" type="curve" smooth="yes"/>
      <point x="87.2592718338453" y="7.179407411437735"/>
      <point x="135.83018867924528" y="-10.0"/>
      <point x="194.58490566037736" y="-10.0" type="curve"/>
      <point x="381.75943396226415" y="-10.0"/>
      <point x="514.3679245283018" y="110.07075471698114"/>
    </contour>
  </outline>
</glyph>
<glyph name="E" format="2">
  <advance width="600.0"/>
  <unicode hex="0045"/>
  <anchor x="410.30548590787356" y="711.8537735849056" name="top"/>
  <anchor x="469.2688679245283" y="0.0" name="ogonek"/>
  <anchor x="259.6037039222056" y="-1.0" name="bottom"/>
  <anchor x="420.0" y="770.0" name="hook"/>
  <outline>
    <contour>
      <point x="141.43867924528303" y="700.0" type="line"/>
      <point x="135.87735849056605" y="688.316037735849"/>
      <point x="131.16981132075472" y="676.632075471698"/>
      <point x="125.75471698113208" y="656.8254716981132" type="curve" smooth="yes"/>
      <point x="113.9245283018868" y="612.3584905660377"/>
      <point x="120.6320754716981" y="569.183962264151"/>
      <point x="149.87735849056602" y="569.183962264151" type="curve" smooth="yes"/>
      <point x="604.7783018867924" y="569.183962264151" type="line"/>
      <point x="612.3396226415094" y="581.867924528302"/>
      <point x="620.4622641509434" y="598.8207547169812"/>
      <point x="625.0235849056604" y="617.7735849056604" type="curve" smooth="yes"/>
      <point x="636.7075471698113" y="663.8018867924528"/>
      <point x="619.9009433962265" y="700.0"/>
      <point x="574.117924528302" y="700.0" type="curve" smooth="yes"/>
    </contour>
    <contour>
      <point x="210.44811320754718" y="392.688679245283" type="line"/>
      <point x="182.22641509433961" y="278.9481132075472" type="line"/>
      <point x="483.4669811320755" y="278.9481132075472" type="line"/>
      <point x="486.4669811320755" y="284.65566037735846"/>
      <point x="489.3207547169811" y="290.50943396226415"/>
      <point x="492.02830188679246" y="301.6320754716981" type="curve" smooth="yes"/>
      <point x="502.5660377358491" y="343.9528301886793"/>
      <point x="485.75943396226415" y="392.688679245283"/>
      <point x="440.4150943396226" y="392.688679245283" type="curve"/>
    </contour>
    <contour>
      <point x="165.0566037735849" y="0.0" type="curve"/>
      <point x="466.26886792452825" y="0.0" type="line"/>
      <point x="473.5377358490566" y="13.537735849056604"/>
      <point x="479.8066037735849" y="31.344339622641506"/>
      <point x="485.0754716981132" y="51.85849056603774" type="curve"/>
      <point x="498.3207547169811" y="107.71698113207547"/>
      <point x="476.3915094339623" y="130.81603773584908"/>
      <point x="431.7547169811321" y="130.81603773584908" type="curve"/>
      <point x="172.27830188679246" y="130.81603773584908" type="line"/>
      <point x="182.25471698113208" y="242.78301886792454"/>
      <point x="256.7877358490566" y="361.0188679245283"/>
      <point x="277.7122641509434" y="481.5" type="curve"/>
      <point x="284.29716981132077" y="519.816037735849"/>
      <point x="280.1509433962264" y="547.9150943396227"/>
      <point x="253.66037735849056" y="564.183962264151" type="curve"/>
      <point x="271.5141509433962" y="596.745283018868" type="line"/>
      <point x="175.9952830188679" y="595.5754716981132" type="line"/>
      <point x="152.97169811320754" y="426.82547169811323"/>
      <point x="56.46226415094339" y="280.5141509433962"/>
      <point x="39.33962264150943" y="120.00471698113208" type="curve"/>
      <point x="30.070754716981128" y="35.92924528301887"/>
      <point x="107.95754716981132" y="0.0"/>
    </contour>
  </outline>
</glyph>
<glyph name="F" format="2">
  <advance width="600.0"/>
  <unicode hex="0046"/>
  <anchor x="300.0" y="711.0" name="top"/>
  <anchor x="300.0" y="0.0" name="bottom"/>
  <outline>
    <contour>
      <point x="196.98584905660374" y="0.0" type="curve"/>
      <point x="191.9858490566038" y="29.830188679245282"/>
      <point x="192.69339622641508" y="63.97641509433963"/>
      <point x="197.40094339622638" y="95.70754716981132" type="curve" smooth="yes"/>
      <point x="217.96226415094338" y="223.84905660377356"/>
      <point x="288.15566037735846" y="347.1132075471698"/>
      <point x="305.5188679245283" y="471.96226415094344" type="curve"/>
      <point x="311.3962264150943" y="512.9858490566038"/>
      <point x="304.688679245283" y="544.6462264150942"/>
      <point x="286.8820754716981" y="564.3301886792453" type="curve"/>
      <point x="304.7358490566038" y="597.8915094339623" type="line"/>
      <point x="194.55660377358492" y="596.4292452830189" type="line"/>
      <point x="167.97169811320754" y="399.2122641509434"/>
      <point x="80.14622641509435" y="274.0990566037736"/>
      <point x="56.900943396226424" y="110.17452830188681" type="curve" smooth="yes"/>
      <point x="47.07075471698114" y="41.929245283018865"/>
      <point x="69.00000000000001" y="-7.7075471698113205"/>
      <point x="143.8349056603774" y="-7.7075471698113205" type="curve" smooth="yes"/>
      <point x="161.93396226415095" y="-7.7075471698113205"/>
      <point x="180.88679245283018" y="-5.7075471698113205"/>
    </contour>
    <contour>
      <point x="148.04716981132077" y="700.0" type="line"/>
      <point x="139.92452830188677" y="688.316037735849"/>
      <point x="133.50943396226415" y="676.632075471698"/>
      <point x="128.0943396226415" y="656.8254716981132" type="curve" smooth="yes"/>
      <point x="114.55660377358491" y="607.2358490566038"/>
      <point x="133.21698113207546" y="569.183962264151"/>
      <point x="177.83018867924528" y="569.183962264151" type="curve" smooth="yes"/>
      <point x="607.1179245283018" y="569.183962264151" type="line"/>
      <point x="614.6792452830189" y="581.867924528302"/>
      <point x="622.8018867924528" y="598.8207547169811"/>
      <point x="627.3632075471698" y="617.7735849056604" type="curve" smooth="yes"/>
      <point x="639.0471698113207" y="663.8018867924528"/>
      <point x="622.2405660377359" y="700.0"/>
      <point x="576.4575471698113" y="700.0" type="curve" smooth="yes"/>
    </contour>
    <contour>
      <point x="215.30188679245282" y="342.688679245283" type="line"/>
      <point x="175.688679245283" y="220.41037735849056" type="line"/>
      <point x="472.8254716981132" y="220.41037735849056" type="line"/>
      <point x="478.3867924528302" y="229.53301886792454"/>
      <point x="482.9481132075472" y="240.50943396226415"/>
      <point x="486.50943396226415" y="256.7547169811321" type="curve" smooth="yes"/>
      <point x="497.04716981132077" y="302.49056603773585"/>
      <point x="485.36320754716985" y="342.688679245283"/>
      <point x="425.50471698113205" y="342.688679245283" type="curve"/>
    </contour>
  </outline>
</glyph>
<glyph name="G" format="2">
  <advance width="600.0"/>
  <unicode hex="0047"/>
  <anchor x="422.8231151108604" y="711.0" name="top"/>
  <anchor x="244.77351524296034" y="-1.0" name="bottom"/>
  <outline>
    <contour>
      <point x="335.12735849056605" y="346.66509433962267" type="line"/>
      <point x="330.4198113207547" y="338.39622641509436"/>
      <point x="327.57572674863445" y="332.4543604918066"/>
      <point x="324.85849056603774" y="320.4198113207547" type="curve" smooth="yes"/>
      <point x="313.3337197509543" y="269.91230056111885"/>
      <point x="335.45643729190044" y="229.50943396226415"/>
      <point x="441.8443396226415" y="229.50943396226415" type="curve" smooth="yes"/>
      <point x="560.8537735849056" y="229.50943396226415" type="line"/>
      <point x="566.4150943396226" y="251.75471698113208" type="line" smooth="yes"/>
      <point x="583.6581500192528" y="320.72693969966747"/>
      <point x="575.367924528302" y="346.66509433962267"/>
      <point x="528.0471698113208" y="346.66509433962267" type="curve" smooth="yes"/>
    </contour>
    <contour>
      <point x="433.8490566037736" y="720.0" type="curve" smooth="yes"/>
      <point x="278.92452830188677" y="720.0"/>
      <point x="138.1787299173948" y="597.4083158960797"/>
      <point x="76.29245283018868" y="351.91037735849056" type="curve" smooth="yes"/>
      <point x="71.29245283018868" y="332.0566037735849" type="line" smooth="yes"/>
      <point x="22.58490566037736" y="135.95754716981133"/>
      <point x="95.70754716981132" y="-20.0"/>
      <point x="291.5660377358491" y="-20.0" type="curve" smooth="yes"/>
      <point x="349.90566037735846" y="-20.0"/>
      <point x="405.07547169811323" y="-2.683962264150944"/>
      <point x="444.5377358490566" y="30.80188679245283" type="curve" smooth="yes"/>
      <point x="481.80660377358487" y="62.09433962264151"/>
      <point x="499.97641509433964" y="97.5566037735849"/>
      <point x="509.56132075471703" y="136.06603773584905" type="curve"/>
      <point x="517.8301886792453" y="170.01886792452828"/>
      <point x="513.561320754717" y="206.67924528301887"/>
      <point x="500.5849056603774" y="224.50943396226415" type="curve"/>
      <point x="517.1462264150944" y="255.6556603773585" type="line"/>
      <point x="432.5801886792453" y="255.6556603773585" type="line"/>
      <point x="434.4339622641509" y="237.07075471698113"/>
      <point x="431.28773584905656" y="218.60849056603774"/>
      <point x="426.70283018867923" y="201.97641509433961" type="curve" smooth="yes"/>
      <point x="409.65566037735846" y="144.5188679245283"/>
      <point x="358.0" y="110.81603773584905"/>
      <point x="295.4198113207547" y="110.81603773584905" type="curve" smooth="yes"/>
      <point x="243.54716981132074" y="110.81603773584905"/>
      <point x="208.0377358490566" y="123.66509433962264"/>
      <point x="187.81603773584905" y="154.36320754716982" type="curve"/>
      <point x="181.57075471698116" y="188.48584905660377"/>
      <point x="184.1556603773585" y="241.83018867924528"/>
      <point x="194.00943396226415" y="283.5141509433962" type="curve" smooth="yes"/>
      <point x="198.86320754716982" y="303.78301886792457" type="line" smooth="yes"/>
      <point x="245.9614042759519" y="499.81148286469244"/>
      <point x="335.80660377358487" y="596.867924528302"/>
      <point x="437.0943396226415" y="596.867924528302" type="curve" smooth="yes"/>
      <point x="469.89622641509436" y="596.867924528302"/>
      <point x="486.1132075471698" y="587.8443396226415"/>
      <point x="500.8443396226415" y="567.2122641509434" type="curve"/>
      <point x="522.2405660377358" y="622.6037735849056" type="line"/>
      <point x="485.74528301886795" y="585.3632075471698"/>
      <point x="465.25943396226415" y="554.4858490566038"/>
      <point x="455.50471698113205" y="518.3443396226414" type="curve" smooth="yes"/>
      <point x="444.79716981132077" y="474.5377358490566"/>
      <point x="465.45754716981133" y="448.8301886792453"/>
      <point x="522.1933962264151" y="448.8301886792453" type="curve" smooth="yes"/>
      <point x="540.4386792452831" y="448.8301886792453"/>
      <point x="558.0990566037736" y="452.3915094339623"/>
      <point x="574.9056603773585" y="459.5141509433962" type="curve"/>
      <point x="577.7830188679245" y="498.14622641509436"/>
      <point x="583.8301886792453" y="518.877358490566"/>
      <point x="593.2688679245283" y="561.9009433962265" type="curve" smooth="yes"/>
      <point x="602.0" y="600.7783018867924"/>
      <point x="592.0235849056604" y="643.6320754716982"/>
      <point x="562.6084905660377" y="673.0471698113208" type="curve" smooth="yes"/>
      <point x="536.754716981132" y="698.9009433962264"/>
      <point x="499.9009433962264" y="720.0"/>
    </contour>
  </outline>
</glyph>
<glyph name="H" format="2">
  <advance width="600.0"/>
  <unicode hex="0048"/>
  <anchor x="396.38443586557736" y="711.0" name="top"/>
  <anchor x="247.87735849056605" y="0.0" name="bottom"/>
  <outline>
    <contour>
      <point x="176.8490566037736" y="700.1462264150944" type="curve"/>
      <point x="180.41037735849056" y="666.0"/>
      <point x="178.67924528301884" y="629.8537735849058"/>
      <point x="171.38679245283018" y="590.8537735849056" type="curve"/>
      <point x="138.65566037735846" y="412.75471698113205"/>
      <point x="59.65566037735849" y="275.0471698113207"/>
      <point x="39.07075471698113" y="129.66037735849056" type="curve"/>
      <point x="25.070754716981128" y="30.97641509433962"/>
      <point x="59.51415094339623" y="-7.561320754716981"/>
      <point x="117.27358490566037" y="-7.561320754716981" type="curve" smooth="yes"/>
      <point x="134.5188679245283" y="-7.561320754716981"/>
      <point x="151.61792452830187" y="-4.7075471698113205"/>
      <point x="165.30188679245282" y="0.0" type="curve"/>
      <point x="162.17924528301884" y="220.50943396226415"/>
      <point x="267.7641509433962" y="366.1650943396226"/>
      <point x="303.3490566037736" y="571.8254716981132" type="curve" smooth="yes"/>
      <point x="319.4952830188679" y="664.2169811320754"/>
      <point x="301.54245283018867" y="707.8537735849058"/>
      <point x="233.70754716981133" y="707.8537735849058" type="curve" smooth="yes"/>
      <point x="214.60849056603774" y="707.8537735849058"/>
      <point x="198.36320754716982" y="705.8537735849056"/>
    </contour>
    <contour>
      <point x="57.5377358490566" y="381.10849056603774" type="line"/>
      <point x="51.12264150943396" y="358.00943396226415" type="line" smooth="yes"/>
      <point x="36.7311320754717" y="300.29716981132077"/>
      <point x="43.02358490566038" y="250.2924528301887"/>
      <point x="85.36792452830188" y="250.2924528301887" type="curve"/>
      <point x="406.6981132075472" y="250.2924528301887" type="line"/>
      <point x="430.6037735849057" y="351.1792452830189" type="line"/>
      <point x="400.52830188679246" y="344.76415094339626" type="line"/>
      <point x="385.8207547169811" y="366.8632075471698"/>
      <point x="360.8679245283019" y="381.10849056603774"/>
      <point x="320.79245283018867" y="381.10849056603774" type="curve" smooth="yes"/>
    </contour>
    <contour>
      <point x="481.95283018867923" y="0.0" type="curve"/>
      <point x="473.683962264151" y="35.0"/>
      <point x="474.6839622641509" y="68.58490566037736"/>
      <point x="482.39150943396226" y="111.0" type="curve" smooth="yes"/>
      <point x="513.368522814191" y="283.83416129751413"/>
      <point x="587.63440258495" y="422.1879847198401"/>
      <point x="611.7075471698113" y="565.1933962264151" type="curve" smooth="yes"/>
      <point x="623.4622641509434" y="633.5801886792453"/>
      <point x="625.7075471698113" y="707.561320754717"/>
      <point x="537.9433962264151" y="707.561320754717" type="curve" smooth="yes"/>
      <point x="517.9905660377358" y="707.561320754717"/>
      <point x="505.0141509433962" y="705.561320754717"/>
      <point x="481.938679245283" y="700.8537735849056" type="curve"/>
      <point x="491.3301886792453" y="500.3632075471698"/>
      <point x="364.5990566037736" y="299.8537735849057"/>
      <point x="342.45283018867923" y="109.22169811320754" type="curve" smooth="yes"/>
      <point x="332.7452830188679" y="25.97641509433962"/>
      <point x="371.9198113207548" y="-7.7075471698113205"/>
      <point x="420.11792452830184" y="-7.7075471698113205" type="curve" smooth="yes"/>
      <point x="443.4858490566038" y="-7.7075471698113205"/>
      <point x="466.561320754717" y="-4.85377358490566"/>
    </contour>
  </outline>
</glyph>
<glyph name="I" format="2">
  <advance width="600.0"/>
  <unicode hex="0049"/>
  <anchor x="412.8244596054774" y="711.8537735849056" name="top"/>
  <anchor x="481.2216981132075" y="0.7311320754716979" name="ogonek"/>
  <anchor x="234.8172067946052" y="-1.0" name="bottom"/>
  <anchor x="420.0" y="770.0" name="hook"/>
  <outline>
    <contour>
      <point x="324.933962264151" y="105.57075471698113" type="line"/>
      <point x="334.811320754717" y="253.05188679245285"/>
      <point x="398.4669811320755" y="337.75"/>
      <point x="425.39150943396226" y="465.54716981132077" type="curve"/>
      <point x="435.683962264151" y="512.8396226415095"/>
      <point x="424.29245283018867" y="546.4764150943397"/>
      <point x="398.36320754716985" y="564.183962264151" type="curve"/>
      <point x="415.50943396226415" y="595.8915094339623" type="line"/>
      <point x="315.5754716981132" y="594.4292452830189" type="line"/>
      <point x="304.066037735849" y="456.4858490566038"/>
      <point x="238.5330188679245" y="361.37264150943395"/>
      <point x="213.80188679245282" y="234.0141509433962" type="curve"/>
      <point x="204.09433962264148" y="186.0141509433962"/>
      <point x="216.6320754716981" y="153.66981132075472"/>
      <point x="241.85377358490564" y="135.96226415094338" type="curve"/>
      <point x="225.14622641509433" y="104.25471698113206" type="line"/>
    </contour>
    <contour>
      <point x="477.9292452830188" y="0.0" type="line"/>
      <point x="485.1981132075472" y="10.830188679245284"/>
      <point x="490.7594339622642" y="21.952830188679247"/>
      <point x="495.3207547169812" y="40.051886792452834" type="curve" smooth="yes"/>
      <point x="508.85849056603774" y="90.34905660377359"/>
      <point x="487.3443396226415" y="130.81603773584908"/>
      <point x="403.1650943396226" y="130.81603773584908" type="curve" smooth="yes"/>
      <point x="22.268867924528298" y="130.81603773584908" type="line"/>
      <point x="14.292452830188676" y="116.57075471698113"/>
      <point x="6.169811320754713" y="97.0566037735849"/>
      <point x="0.9009433962264115" y="75.83490566037736" type="curve" smooth="yes"/>
      <point x="-10.075471698113212" y="31.783018867924525"/>
      <point x="4.316037735849052" y="0.0"/>
      <point x="46.39150943396226" y="0.0" type="curve" smooth="yes"/>
    </contour>
    <contour>
      <point x="161.65566037735846" y="700.0" type="line"/>
      <point x="154.38679245283018" y="689.1698113207547"/>
      <point x="148.8254716981132" y="678.0471698113208"/>
      <point x="144.26415094339623" y="659.9481132075472" type="curve" smooth="yes"/>
      <point x="130.72641509433961" y="609.6509433962264"/>
      <point x="152.24056603773587" y="569.183962264151"/>
      <point x="236.41981132075472" y="569.183962264151" type="curve" smooth="yes"/>
      <point x="617.3160377358491" y="569.183962264151" type="line"/>
      <point x="625.2924528301886" y="583.4292452830189"/>
      <point x="633.4150943396227" y="602.9433962264151"/>
      <point x="638.683962264151" y="624.1650943396226" type="curve" smooth="yes"/>
      <point x="649.6603773584906" y="668.2169811320755"/>
      <point x="635.2688679245283" y="700.0"/>
      <point x="593.1933962264152" y="700.0" type="curve" smooth="yes"/>
    </contour>
  </outline>
</glyph>
<glyph name="J" format="2">
  <advance width="600.0"/>
  <unicode hex="004A"/>
  <anchor x="411.360850959917" y="711.0" name="top"/>
  <anchor x="300.0" y="0.0" name="bottom"/>
  <outline>
    <contour>
      <point x="238.0754716981132" y="109.9622641509434" type="curve" smooth="yes"/>
      <point x="172.1745283018868" y="109.9622641509434"/>
      <point x="126.49056603773585" y="126.23113207547169"/>
      <point x="81.78301886792454" y="164.52358490566036" type="curve"/>
      <point x="76.07547169811322" y="164.52358490566036" type="line"/>
      <point x="66.95283018867924" y="150.1320754716981"/>
      <point x="58.83018867924528" y="136.5943396226415"/>
      <point x="51.70754716981132" y="108.24999999999999" type="curve" smooth="yes"/>
      <point x="40.87735849056604" y="66.78301886792453"/>
      <point x="49.29245283018868" y="38.83018867924528"/>
      <point x="67.83018867924528" y="20.29245283018868" type="curve" smooth="yes"/>
      <point x="94.68396226415095" y="-6.561320754716981"/>
      <point x="131.9009433962264" y="-20.0"/>
      <point x="215.58490566037736" y="-20.0" type="curve"/>
      <point x="358.14622641509436" y="-20.0"/>
      <point x="449.00471698113205" y="78.93396226415095"/>
      <point x="489.5141509433962" y="185.14622641509433" type="curve"/>
      <point x="543.2452830188679" y="327.60849056603774"/>
      <point x="535.0" y="460.75"/>
      <point x="600.7075471698113" y="623.5047169811321" type="curve"/>
      <point x="623.7830188679245" y="680.6320754716982"/>
      <point x="584.1698113207548" y="710.0"/>
      <point x="492.1367924528302" y="710.0" type="curve"/>
      <point x="407.62735849056605" y="710.0"/>
      <point x="326.9669811320755" y="706.2924528301886"/>
      <point x="238.0943396226415" y="700.0" type="curve"/>
      <point x="230.783603841659" y="686.670097609008"/>
      <point x="222.8490566037736" y="665.0943396226415"/>
      <point x="218.43396226415095" y="641.0188679245283" type="curve"/>
      <point x="208.75" y="586.4528301886792"/>
      <point x="224.14150943396226" y="555.938679245283"/>
      <point x="273.1698113207547" y="555.938679245283" type="curve"/>
      <point x="328.3396226415094" y="555.938679245283"/>
      <point x="392.0" y="570.0849056603773"/>
      <point x="476.1084905660377" y="599.4056603773585" type="curve"/>
      <point x="424.00943396226415" y="600.3066037735849" type="line"/>
      <point x="470.3301886792453" y="572.0141509433962" type="line"/>
      <point x="462.35377358490564" y="613.6981132075472" type="line"/>
      <point x="400.7452830188679" y="449.5566037735849"/>
      <point x="399.0377358490566" y="330.3632075471698"/>
      <point x="361.8207547169811" y="216.49056603773585" type="curve" smooth="yes"/>
      <point x="349.33490566037733" y="176.64150943396228"/>
      <point x="338.33490566037733" y="152.22641509433961"/>
      <point x="319.2641509433962" y="126.57075471698113" type="curve"/>
      <point x="295.4858490566038" y="115.40094339622641"/>
      <point x="269.70754716981133" y="109.9622641509434"/>
    </contour>
  </outline>
</glyph>
<glyph name="K" format="2">
  <advance width="600.0"/>
  <unicode hex="004B"/>
  <anchor x="254.77351524296034" y="-1.0" name="bottom"/>
  <anchor x="421.4150943396226" y="711.0" name="top"/>
  <outline>
    <contour>
      <point x="398.4764150943396" y="376.0518867924528" type="curve"/>
      <point x="271.34433962264154" y="272.188679245283" type="line"/>
      <point x="294.4669811320755" y="260.188679245283" type="line"/>
      <point x="294.95283018867923" y="191.19339622641508"/>
      <point x="303.9009433962264" y="127.46698113207546"/>
      <point x="328.72641509433964" y="67.68867924528301" type="curve" smooth="yes"/>
      <point x="350.2877358490566" y="8.952830188679245"/>
      <point x="380.41037735849056" y="-20.0"/>
      <point x="428.3632075471698" y="-20.0" type="curve"/>
      <point x="454.48584905660374" y="-20.0"/>
      <point x="472.4622641509433" y="-13.14622641509434"/>
      <point x="487.4386792452831" y="1.8301886792452828" type="curve" smooth="yes"/>
      <point x="502.26886792452825" y="16.660377358490564"/>
      <point x="513.0990566037735" y="40.028301886792455"/>
      <point x="520.3679245283018" y="68.10377358490567" type="curve" smooth="yes"/>
      <point x="528.4905660377358" y="97.88679245283018"/>
      <point x="529.3443396226415" y="118.1320754716981"/>
      <point x="528.3443396226415" y="137.37735849056602" type="curve"/>
      <point x="522.6367924528302" y="137.37735849056602" type="line"/>
      <point x="512.0518867924528" y="129.20754716981133"/>
      <point x="504.3207547169811" y="126.76886792452831"/>
      <point x="486.73584905660374" y="126.76886792452831" type="curve" smooth="yes"/>
      <point x="459.0518867924528" y="126.76886792452831"/>
      <point x="443.0518867924528" y="144.45283018867923"/>
      <point x="431.4669811320755" y="180.1132075471698" type="curve" smooth="yes"/>
      <point x="410.0801886792453" y="239.72169811320754"/>
      <point x="401.5707547169811" y="290.42452830188677"/>
    </contour>
    <contour>
      <point x="553.0188679245283" y="710.0" type="curve" smooth="yes"/>
      <point x="530.4811320754717" y="710.0" type="line"/>
      <point x="500.55660377358487" y="626.7594339622642"/>
      <point x="456.12264150943395" y="553.6650943396227"/>
      <point x="406.58962264150944" y="494.9339622641509" type="curve" smooth="yes"/>
      <point x="355.9103773584905" y="435.76415094339626"/>
      <point x="303.15566037735846" y="389.372641509434"/>
      <point x="245.35377358490564" y="349.95754716981133" type="curve"/>
      <point x="212.98584905660377" y="377.47169811320754" type="line"/>
      <point x="164.9575471698113" y="216.14150943396226" type="line"/>
      <point x="291.9481132075472" y="242.99056603773587"/>
      <point x="497.75943396226415" y="374.5283018867924"/>
      <point x="588.3443396226415" y="508.9669811320755" type="curve" smooth="yes"/>
      <point x="633.4905660377358" y="574.2594339622641"/>
      <point x="647.7594339622641" y="609.5047169811321"/>
      <point x="657.7358490566037" y="647.6792452830189" type="curve" smooth="yes"/>
      <point x="668.566037735849" y="690.9764150943397"/>
      <point x="624.4858490566038" y="710.0"/>
    </contour>
    <contour>
      <point x="176.11792452830187" y="700.1462264150944" type="curve"/>
      <point x="179.67924528301884" y="666.0"/>
      <point x="177.94811320754715" y="629.8537735849058"/>
      <point x="170.65566037735846" y="590.8537735849056" type="curve" smooth="yes"/>
      <point x="137.92452830188677" y="412.7547169811321"/>
      <point x="58.92452830188679" y="275.04716981132077"/>
      <point x="38.33962264150943" y="129.66037735849056" type="curve" smooth="yes"/>
      <point x="24.33962264150943" y="30.97641509433963"/>
      <point x="58.783018867924525" y="-7.561320754716982"/>
      <point x="116.54245283018868" y="-7.561320754716982" type="curve" smooth="yes"/>
      <point x="133.78773584905662" y="-7.561320754716982"/>
      <point x="150.88679245283018" y="-4.7075471698113205"/>
      <point x="164.5707547169811" y="0.0" type="curve"/>
      <point x="161.44811320754715" y="220.50943396226415"/>
      <point x="267.0330188679245" y="366.16509433962267"/>
      <point x="302.61792452830184" y="571.8254716981132" type="curve" smooth="yes"/>
      <point x="318.7641509433962" y="664.2169811320754"/>
      <point x="300.811320754717" y="707.8537735849058"/>
      <point x="232.97641509433961" y="707.8537735849058" type="curve" smooth="yes"/>
      <point x="213.87735849056605" y="707.8537735849058"/>
      <point x="197.6320754716981" y="705.8537735849056"/>
    </contour>
  </outline>
</glyph>
<glyph name="L" format="2">
  <advance width="600.0"/>
  <unicode hex="004C"/>
  <anchor x="253.3386105488736" y="711.0" name="top"/>
  <anchor x="526.6650943396227" y="591.4622641509434" name="caronslovak"/>
  <anchor x="238.9870181153599" y="-1.0" name="bottom"/>
  <anchor x="463.3059614053132" y="404.2688679245283" name="dot"/>
  <anchor x="175.15094339622644" y="363.9056603773585" name="slash"/>
  <outline>
    <contour>
      <point x="188.2311320754717" y="0.0" type="curve" smooth="yes"/>
      <point x="442.0" y="0.0" type="line"/>
      <point x="469.51039164905376" y="64.63367161635236"/>
      <point x="468.22169811320754" y="130.81603773584908"/>
      <point x="404.6792452830189" y="130.81603773584908" type="curve" smooth="yes"/>
      <point x="180.10849056603772" y="130.81603773584908" type="line"/>
      <point x="194.79245283018867" y="269.85849056603774"/>
      <point x="281.02836048490565" y="410.6248163368184"/>
      <point x="308.47169811320754" y="573.2641509433962" type="curve" smooth="yes"/>
      <point x="322.2858953526533" y="651.914715434142"/>
      <point x="311.198768343825" y="707.8537735849056"/>
      <point x="236.2688679245283" y="707.8537735849056" type="curve" smooth="yes"/>
      <point x="216.9563679245283" y="707.8537735849056"/>
      <point x="197.93505750389292" y="706.5364555859609"/>
      <point x="175.14150943396226" y="700.1462264150942" type="curve"/>
      <point x="180.26415094339623" y="667.7075471698114"/>
      <point x="181.24056603773587" y="628.2924528301887"/>
      <point x="173.24056603773587" y="587.7311320754717" type="curve" smooth="yes"/>
      <point x="145.6663031051085" y="442.508322148292"/>
      <point x="83.56132075471697" y="321.85849056603774"/>
      <point x="51.02358490566037" y="175.0566037735849" type="curve" smooth="yes"/>
      <point x="31.63207547169811" y="88.24999999999999"/>
      <point x="96.98113207547169" y="0.0"/>
    </contour>
    <contour>
      <point x="412.1132075471698" y="220.85849056603772" type="curve"/>
      <point x="403.77358490566036" y="107.63679245283019"/>
      <point x="360.16509433962267" y="52.02830188679245"/>
      <point x="346.8962264150943" y="-2.2924528301886795" type="curve" smooth="yes"/>
      <point x="340.89622641509436" y="-26.2688679245283"/>
      <point x="351.188679245283" y="-40.660377358490564"/>
      <point x="434.97641509433964" y="-40.660377358490564" type="curve"/>
      <point x="479.80660377358487" y="15.608490566037737"/>
      <point x="506.41509433962267" y="69.38679245283018"/>
      <point x="525.683962264151" y="144.4622641509434" type="curve" smooth="yes"/>
      <point x="535.8066037735849" y="186.3679245283019"/>
      <point x="524.367924528302" y="225.9811320754717"/>
      <point x="463.9481132075471" y="225.9811320754717" type="curve" smooth="yes"/>
      <point x="443.87264150943395" y="225.9811320754717"/>
      <point x="426.2122641509434" y="224.27358490566036"/>
    </contour>
  </outline>
</glyph>
<glyph name="M" format="2">
  <advance width="600.0"/>
  <unicode hex="004D"/>
  <anchor x="245.97641509433961" y="0.0" name="bottom"/>
  <anchor x="300.0" y="711.0" name="top"/>
  <outline>
    <contour>
      <point x="147.30188679245282" y="0.0" type="curve"/>
      <point x="143.74056603773585" y="64.77830188679246"/>
      <point x="153.30188679245282" y="130.7075471698113"/>
      <point x="169.30188679245282" y="199.41509433962264" type="curve"/>
      <point x="193.6179245283019" y="304.3867924528302"/>
      <point x="219.3915094339623" y="391.2547169811321"/>
      <point x="226.75471698113208" y="521.3962264150944" type="curve"/>
      <point x="196.0943396226415" y="480.98113207547163" type="line"/>
      <point x="253.97641509433961" y="490.8113207547169" type="line"/>
      <point x="229.3396226415094" y="522.3962264150944" type="line"/>
      <point x="234.02830188679246" y="368.77358490566036"/>
      <point x="252.8820754716981" y="277.3443396226415"/>
      <point x="279.80660377358487" y="242.68867924528303" type="curve" smooth="yes"/>
      <point x="282.95283018867923" y="238.54245283018867"/>
      <point x="287.0990566037736" y="235.688679245283"/>
      <point x="293.2452830188679" y="235.688679245283" type="curve" smooth="yes"/>
      <point x="296.2452830188679" y="235.688679245283"/>
      <point x="299.2452830188679" y="236.54245283018867"/>
      <point x="301.39150943396226" y="237.39622641509433" type="curve"/>
      <point x="360.2169811320755" y="279.3679245283019"/>
      <point x="431.45283018867923" y="376.89150943396226"/>
      <point x="504.3066037735849" y="517.8349056603774" type="curve"/>
      <point x="459.7924528301887" y="493.37264150943395" type="line"/>
      <point x="518.4292452830189" y="480.127358490566" type="line"/>
      <point x="502.86792452830184" y="516.0566037735849" type="line"/>
      <point x="468.07582212908534" y="378.656984227584"/>
      <point x="422.7371522116378" y="294.46888388497973"/>
      <point x="399.9669811320755" y="230.87264150943395" type="curve"/>
      <point x="379.8207547169812" y="174.5330188679245"/>
      <point x="369.2358490566038" y="134.87735849056602"/>
      <point x="365.08962264150944" y="91.0" type="curve" smooth="yes"/>
      <point x="359.04331842047173" y="20.052839913926412"/>
      <point x="393.5977987421099" y="-7.561320754716982"/>
      <point x="447.58490566037733" y="-7.561320754716982" type="curve" smooth="yes"/>
      <point x="466.39150943396226" y="-7.561320754716982"/>
      <point x="484.63679245283015" y="-4.561320754716982"/>
      <point x="496.75943396226415" y="0.0" type="curve"/>
      <point x="490.1981132075472" y="30.7311320754717"/>
      <point x="490.34433962264154" y="73.14622641509433"/>
      <point x="497.1981132075472" y="110.70754716981132" type="curve" smooth="yes"/>
      <point x="527.6132075471698" y="281.3679245283019"/>
      <point x="599.2971698113208" y="414.34433962264154"/>
      <point x="625.8066037735849" y="563.3396226415094" type="curve"/>
      <point x="638.7075471698114" y="635.4339622641509"/>
      <point x="640.5377358490566" y="707.8537735849058"/>
      <point x="552.3867924528302" y="707.8537735849058" type="curve"/>
      <point x="536.4103773584905" y="707.8537735849058"/>
      <point x="515.872641509434" y="705.5613207547169"/>
      <point x="489.0660377358491" y="700.0" type="curve"/>
      <point x="466.30377071204765" y="561.4884808087812"/>
      <point x="383.2094171775302" y="441.4428595832896"/>
      <point x="306.29716981132077" y="358.2122641509433" type="curve"/>
      <point x="353.98113207547175" y="379.9198113207547" type="line"/>
      <point x="293.6367924528302" y="388.33490566037733" type="line"/>
      <point x="330.02830188679246" y="353.2122641509434" type="line"/>
      <point x="308.7877358490566" y="447.8443396226415"/>
      <point x="308.10377358490564" y="522.25"/>
      <point x="320.1509433962264" y="615.9481132075472" type="curve" smooth="yes"/>
      <point x="328.0047169811321" y="678.1698113207547"/>
      <point x="311.02830188679246" y="707.8537735849058"/>
      <point x="223.46226415094338" y="707.8537735849058" type="curve" smooth="yes"/>
      <point x="205.4622641509434" y="707.8537735849058"/>
      <point x="184.21698113207546" y="705.7075471698114"/>
      <point x="155.99528301886795" y="700.0" type="curve"/>
      <point x="160.97169811320754" y="668.4150943396227"/>
      <point x="159.5330188679245" y="629.0"/>
      <point x="152.24056603773585" y="589.8537735849056" type="curve" smooth="yes"/>
      <point x="120.77830188679245" y="412.7547169811321"/>
      <point x="42.240566037735846" y="276.38679245283015"/>
      <point x="21.63207547169811" y="130.0990566037736" type="curve"/>
      <point x="7.193396226415091" y="30.537735849056602"/>
      <point x="49.075471698113205" y="-7.561320754716982"/>
      <point x="97.41981132075472" y="-7.561320754716982" type="curve" smooth="yes"/>
      <point x="116.5188679245283" y="-7.561320754716982"/>
      <point x="132.76415094339623" y="-4.707547169811321"/>
    </contour>
  </outline>
</glyph>
<glyph name="N" format="2">
  <advance width="600.0"/>
  <unicode hex="004E"/>
  <anchor x="410.30548590787356" y="711.8537735849056" name="top"/>
  <anchor x="229.7499303373" y="-1.0" name="bottom"/>
  <outline>
    <contour>
      <point x="157.4245283018868" y="0.0" type="curve"/>
      <point x="152.8632075471698" y="33.90094339622642"/>
      <point x="154.00943396226415" y="77.0"/>
      <point x="163.8632075471698" y="129.438679245283" type="curve" smooth="yes"/>
      <point x="184.20283018867923" y="236.4009433962264"/>
      <point x="223.51415094339626" y="342.47641509433964"/>
      <point x="245.68396226415095" y="500.9056603773586" type="curve"/>
      <point x="214.4622641509434" y="478.71226415094344" type="line"/>
      <point x="278.07547169811323" y="478.71226415094344" type="line"/>
      <point x="249.5377358490566" y="500.9056603773585" type="line"/>
      <point x="250.78301886792454" y="246.0377358490566"/>
      <point x="288.9481132075472" y="89.99528301886792"/>
      <point x="344.5801886792453" y="22.7311320754717" type="curve" smooth="yes"/>
      <point x="364.14150943396226" y="-0.41509433962264186"/>
      <point x="393.6556603773585" y="-9.268867924528301"/>
      <point x="439.7311320754717" y="-9.415094339622641" type="curve"/>
      <point x="453.85377358490564" y="-9.415094339622641"/>
      <point x="467.97641509433964" y="-5.707547169811321"/>
      <point x="481.66037735849056" y="0.0" type="curve"/>
      <point x="477.80660377358487" y="32.43867924528302"/>
      <point x="483.9292452830189" y="71.85377358490567"/>
      <point x="491.78301886792457" y="116.2688679245283" type="curve"/>
      <point x="521.2216981132076" y="284.7311320754717"/>
      <point x="595.1745283018868" y="421.34433962264154"/>
      <point x="620.2452830188679" y="575.438679245283" type="curve" smooth="yes"/>
      <point x="634.0" y="657.4858490566038"/>
      <point x="608.2169811320755" y="707.561320754717"/>
      <point x="540.0896226415094" y="707.561320754717" type="curve"/>
      <point x="527.8207547169811" y="707.561320754717"/>
      <point x="510.2830188679245" y="703.8537735849056"/>
      <point x="496.5990566037736" y="700.0" type="curve"/>
      <point x="496.4528301886793" y="633.2169811320755"/>
      <point x="487.0377358490566" y="574.2641509433962"/>
      <point x="468.3301886792453" y="505.5801886792453" type="curve"/>
      <point x="431.57547169811323" y="372.8537735849057"/>
      <point x="404.77830188679246" y="278.6698113207547"/>
      <point x="397.9481132075472" y="147.2830188679245" type="curve"/>
      <point x="424.02358490566036" y="172.2830188679245" type="line"/>
      <point x="369.14150943396226" y="166.3066037735849" type="line"/>
      <point x="398.97169811320754" y="147.89150943396226" type="line"/>
      <point x="351.6132075471698" y="297.7688679245283"/>
      <point x="341.95754716981133" y="467.1320754716981"/>
      <point x="343.0566037735849" y="607.3632075471697" type="curve" smooth="yes"/>
      <point x="344.32547169811323" y="689.561320754717"/>
      <point x="308.0047169811321" y="707.561320754717"/>
      <point x="238.8301886792453" y="707.561320754717" type="curve"/>
      <point x="215.77193944711982" y="707.561320754717"/>
      <point x="198.75471698113205" y="706.561320754717"/>
      <point x="165.97169811320757" y="700.0" type="curve"/>
      <point x="167.53301886792454" y="666.7075471698113"/>
      <point x="165.24056603773585" y="629.7075471698114"/>
      <point x="158.6556603773585" y="588.9764150943396" type="curve"/>
      <point x="128.6320754716981" y="411.04716981132077"/>
      <point x="46.948113207547166" y="276.50943396226415"/>
      <point x="25.924528301886788" y="126.26886792452831" type="curve"/>
      <point x="12.485849056603767" y="31.268867924528298"/>
      <point x="53.49056603773586" y="-6.7075471698113205"/>
      <point x="103.98113207547169" y="-6.7075471698113205" type="curve" smooth="yes"/>
      <point x="125.08018867924527" y="-6.7075471698113205"/>
      <point x="140.6179245283019" y="-4.7075471698113205"/>
    </contour>
  </outline>
</glyph>
<glyph name="O" format="2">
  <advance width="600.0"/>
  <unicode hex="004F"/>
  <anchor x="410.29245283018867" y="711.8537735849056" name="top"/>
  <anchor x="232.04238316748865" y="-1.0" name="bottom"/>
  <anchor x="414.02358490566036" y="770.0" name="hook"/>
  <anchor x="513.7547169811321" y="682.0990566037735" name="horn"/>
  <anchor x="362.0" y="711.0" name="tildeviet"/>
  <anchor x="408.7075471698113" y="35.0" name="ogonek"/>
  <outline>
    <contour>
      <point x="402.7311320754717" y="720.0" type="curve"/>
      <point x="255.41509433962264" y="720.0"/>
      <point x="136.4622641509434" y="604.6132075471698"/>
      <point x="75.60849056603774" y="359.9292452830189" type="curve" smooth="yes"/>
      <point x="71.02358490566039" y="341.4433962264151" type="line" smooth="yes"/>
      <point x="14.047169811320757" y="113.83018867924528"/>
      <point x="82.87735849056604" y="-20.0"/>
      <point x="246.58490566037736" y="-20.0" type="curve"/>
      <point x="395.60849056603774" y="-20.0"/>
      <point x="502.41509433962267" y="85.92452830188678"/>
      <point x="562.9528301886793" y="326.36792452830184" type="curve" smooth="yes"/>
      <point x="567.5377358490566" y="344.70754716981133" type="line" smooth="yes"/>
      <point x="625.2452830188679" y="573.245283018868"/>
      <point x="564.877358490566" y="720.0"/>
    </contour>
    <contour>
      <point x="208.4009433962264" y="310.85377358490564" type="curve" smooth="yes"/>
      <point x="211.83962264150944" y="325.4622641509434" type="line" smooth="yes"/>
      <point x="253.5943396226415" y="502.872641509434"/>
      <point x="313.27358490566036" y="582.3537735849056"/>
      <point x="393.9009433962264" y="582.3537735849056" type="curve" smooth="yes"/>
      <point x="418.4622641509434" y="582.3537735849056"/>
      <point x="434.33962264150944" y="579.3537735849056"/>
      <point x="449.50943396226415" y="571.5" type="curve"/>
      <point x="471.4056603773585" y="528.7452830188679"/>
      <point x="470.4292452830189" y="465.9481132075472"/>
      <point x="446.9433962264151" y="365.02830188679246" type="curve" smooth="yes"/>
      <point x="443.5047169811321" y="350.4198113207547" type="line" smooth="yes"/>
      <point x="402.77358490566036" y="177.24999999999997"/>
      <point x="339.4339622641509" y="100.57075471698113"/>
      <point x="253.68396226415092" y="100.57075471698113" type="curve" smooth="yes"/>
      <point x="235.0754716981132" y="100.57075471698113"/>
      <point x="222.8820754716981" y="103.86320754716981"/>
      <point x="205.27358490566039" y="111.44811320754718" type="curve"/>
      <point x="186.4009433962264" y="150.05660377358492"/>
      <point x="185.79245283018867" y="216.29716981132074"/>
    </contour>
  </outline>
</glyph>
<glyph name="P" format="2">
  <advance width="600.0"/>
  <unicode hex="0050"/>
  <anchor x="300.0" y="711.0" name="top"/>
  <anchor x="300.0" y="0.0" name="bottom"/>
  <outline>
    <contour>
      <point x="177.71698113207546" y="0.0" type="curve"/>
      <point x="172.71698113207546" y="29.830188679245282"/>
      <point x="173.4245283018868" y="63.976415094339615"/>
      <point x="178.1320754716981" y="95.70754716981132" type="curve" smooth="yes"/>
      <point x="199.54716981132074" y="228.97169811320754"/>
      <point x="269.5943396226415" y="357.35849056603774"/>
      <point x="287.811320754717" y="487.3301886792453" type="curve"/>
      <point x="293.688679245283" y="528.3537735849056"/>
      <point x="286.85849056603774" y="560.622641509434"/>
      <point x="268.4669811320755" y="580.4528301886792" type="curve"/>
      <point x="286.3207547169812" y="614.8679245283018" type="line"/>
      <point x="175.43396226415095" y="598.0377358490565" type="line"/>
      <point x="148.70283018867923" y="400.8207547169811"/>
      <point x="60.87735849056604" y="274.0990566037736"/>
      <point x="37.63207547169811" y="110.17452830188678" type="curve"/>
      <point x="27.801886792452827" y="41.929245283018865"/>
      <point x="49.731132075471706" y="-7.7075471698113205"/>
      <point x="124.56603773584905" y="-7.7075471698113205" type="curve" smooth="yes"/>
      <point x="142.66509433962264" y="-7.7075471698113205"/>
      <point x="161.61792452830187" y="-5.7075471698113205"/>
    </contour>
    <contour>
      <point x="134.31603773584905" y="700.0" type="curve"/>
      <point x="127.04716981132076" y="684.754716981132"/>
      <point x="121.63207547169812" y="669.6556603773585"/>
      <point x="116.21698113207547" y="648.7028301886793" type="curve" smooth="yes"/>
      <point x="102.8254716981132" y="595.6981132075472"/>
      <point x="108.8254716981132" y="569.183962264151"/>
      <point x="137.48584905660377" y="569.183962264151" type="curve"/>
      <point x="159.46801115043345" y="569.183962264151"/>
      <point x="237.07075471698113" y="589.3301886792452"/>
      <point x="359.90094339622647" y="589.3301886792452" type="curve" smooth="yes"/>
      <point x="404.75" y="589.3301886792452"/>
      <point x="433.79716981132077" y="584.0141509433962"/>
      <point x="465.8207547169811" y="569.6509433962265" type="curve"/>
      <point x="470.16037735849056" y="531.311320754717"/>
      <point x="465.72169811320754" y="499.5330188679245"/>
      <point x="459.28301886792457" y="473.92452830188677" type="curve" smooth="yes"/>
      <point x="455.99056603773585" y="461.75471698113205" type="line" smooth="yes"/>
      <point x="419.28301886792457" y="323.1698113207547"/>
      <point x="360.4858490566038" y="291.811320754717"/>
      <point x="283.1556603773585" y="291.811320754717" type="curve"/>
      <point x="248.81603773584905" y="291.811320754717"/>
      <point x="235.5" y="295.25"/>
      <point x="212.66981132075472" y="302.54245283018867" type="curve"/>
      <point x="180.88679245283018" y="205.33962264150944" type="line"/>
      <point x="213.4009433962264" y="215.4622641509434" type="line"/>
      <point x="232.93867924528303" y="189.36320754716982"/>
      <point x="264.0613207547169" y="168.1179245283019"/>
      <point x="308.4764150943396" y="168.1179245283019" type="curve"/>
      <point x="426.4198113207547" y="168.1179245283019"/>
      <point x="538.8301886792453" y="230.25943396226413"/>
      <point x="593.4905660377359" y="449.6084905660377" type="curve" smooth="yes"/>
      <point x="595.9292452830189" y="460.0707547169811" type="line" smooth="yes"/>
      <point x="626.9056603773586" y="581.5377358490566"/>
      <point x="560.7264150943396" y="720.0"/>
      <point x="380.438679245283" y="720.0" type="curve"/>
      <point x="294.97169811320754" y="720.0"/>
      <point x="226.24056603773585" y="714.4386792452831"/>
    </contour>
  </outline>
</glyph>
<glyph name="Q" format="2">
  <advance width="600.0"/>
  <unicode hex="0051"/>
  <anchor x="300.0" y="711.0" name="top"/>
  <anchor x="300.0" y="0.0" name="bottom"/>
  <outline>
    <contour>
      <point x="374.6132075471698" y="109.52358490566037" type="curve"/>
      <point x="273.26415094339626" y="51.5188679245283" type="line"/>
      <point x="270.5801886792453" y="-7.924528301886793"/>
      <point x="272.6037735849057" y="-53.56132075471698"/>
      <point x="289.0188679245283" y="-104.46698113207547" type="curve" smooth="yes"/>
      <point x="306.4811320754717" y="-156.9056603773585"/>
      <point x="341.87264150943395" y="-182.1745283018868"/>
      <point x="393.7028301886793" y="-182.1745283018868" type="curve"/>
      <point x="416.82547169811323" y="-182.1745283018868"/>
      <point x="437.0943396226415" y="-174.61320754716982"/>
      <point x="452.21698113207543" y="-159.49056603773585" type="curve" smooth="yes"/>
      <point x="468.04716981132077" y="-143.66037735849056"/>
      <point x="480.73113207547163" y="-119.85377358490567"/>
      <point x="488.85377358490564" y="-86.65566037735849" type="curve" smooth="yes"/>
      <point x="494.4150943396226" y="-66.26415094339623"/>
      <point x="497.12264150943395" y="-48.58018867924528"/>
      <point x="497.122641509434" y="-29.33490566037736" type="curve"/>
      <point x="491.4150943396226" y="-29.33490566037736" type="line"/>
      <point x="479.41509433962267" y="-36.91981132075472"/>
      <point x="466.3915094339623" y="-40.50471698113208"/>
      <point x="448.6603773584906" y="-40.50471698113208" type="curve" smooth="yes"/>
      <point x="420.5377358490566" y="-40.50471698113208"/>
      <point x="402.97641509433964" y="-27.089622641509433"/>
      <point x="391.2452830188679" y="9.155660377358492" type="curve"/>
      <point x="380.51415094339626" y="41.83962264150943"/>
      <point x="376.49056603773585" y="75.52358490566039"/>
    </contour>
    <component base="O"/>
  </outline>
</glyph>
<glyph name="R" format="2">
  <advance width="600.0"/>
  <unicode hex="0052"/>
  <anchor x="407.8480445111377" y="711.0" name="top"/>
  <anchor x="229.84079170026553" y="-1.0" name="bottom"/>
  <outline>
    <contour>
      <point x="401.54716981132077" y="283.3962264150943" type="curve"/>
      <point x="299.75943396226415" y="227.0" type="line"/>
      <point x="298.39150943396226" y="161.7075471698113"/>
      <point x="301.7311320754717" y="112.12264150943396"/>
      <point x="320.77830188679246" y="57.56132075471698" type="curve" smooth="yes"/>
      <point x="338.3867924528302" y="6.584905660377358"/>
      <point x="373.77830188679246" y="-18.537735849056602"/>
      <point x="425.1698113207547" y="-18.537735849056602" type="curve" smooth="yes"/>
      <point x="448.5849056603774" y="-18.537735849056602"/>
      <point x="468.26886792452825" y="-10.976415094339622"/>
      <point x="483.24528301886795" y="3.999999999999999" type="curve" smooth="yes"/>
      <point x="498.7830188679245" y="19.537735849056602"/>
      <point x="511.3207547169811" y="42.905660377358494"/>
      <point x="519.4433962264151" y="76.25" type="curve" smooth="yes"/>
      <point x="524.8584905660377" y="96.34905660377359"/>
      <point x="527.566037735849" y="114.03301886792453"/>
      <point x="527.4198113207548" y="133.27830188679246" type="curve"/>
      <point x="521.7122641509435" y="133.27830188679246" type="line"/>
      <point x="509.5660377358491" y="125.54716981132073"/>
      <point x="496.5424528301887" y="121.81603773584904"/>
      <point x="479.68867924528297" y="121.81603773584904" type="curve" smooth="yes"/>
      <point x="451.566037735849" y="121.81603773584904"/>
      <point x="433.5660377358491" y="135.81603773584905"/>
      <point x="421.8349056603774" y="172.2075471698113" type="curve"/>
      <point x="408.91037735849056" y="208.69339622641508"/>
      <point x="404.3018867924528" y="244.57075471698113"/>
    </contour>
    <contour>
      <point x="134.31603773584905" y="700.0" type="curve"/>
      <point x="127.04716981132076" y="683.9009433962264"/>
      <point x="120.77830188679245" y="668.8018867924528"/>
      <point x="116.21698113207547" y="648.7028301886793" type="curve" smooth="yes"/>
      <point x="102.8254716981132" y="596.5518867924528"/>
      <point x="108.8254716981132" y="569.183962264151"/>
      <point x="137.48584905660377" y="569.183962264151" type="curve" smooth="yes"/>
      <point x="161.05630471870754" y="569.183962264151"/>
      <point x="254.04716981132074" y="589.183962264151"/>
      <point x="348.9481132075472" y="589.183962264151" type="curve" smooth="yes"/>
      <point x="397.8740288568057" y="589.183962264151"/>
      <point x="429.52830188679246" y="583.5754716981132"/>
      <point x="454.8679245283019" y="571.3584905660377" type="curve"/>
      <point x="460.3301886792453" y="548.7264150943396"/>
      <point x="460.5404834307198" y="520.9470437060627"/>
      <point x="453.3066037735849" y="484.4622641509434" type="curve" smooth="yes"/>
      <point x="450.16037735849056" y="468.3160377358491" type="line" smooth="yes"/>
      <point x="427.9218969910019" y="355.94980281990615"/>
      <point x="340.9449306660708" y="311.47169811320754"/>
      <point x="261.811320754717" y="311.47169811320754" type="curve"/>
      <point x="222.64150943396228" y="311.47169811320754"/>
      <point x="212.0330188679245" y="314.6179245283019"/>
      <point x="188.3490566037736" y="327.0330188679245" type="curve"/>
      <point x="154.71226415094338" y="203.0943396226415" type="line"/>
      <point x="210.27830188679246" y="218.9009433962264" type="line"/>
      <point x="228.13207547169813" y="200.9009433962264"/>
      <point x="260.2311320754717" y="194.31603773584905"/>
      <point x="285.27830188679246" y="194.31603773584905" type="curve"/>
      <point x="410.97689316678395" y="194.31603773584905"/>
      <point x="550.2216981132076" y="288.1933962264151"/>
      <point x="582.5377358490566" y="469.8301886792453" type="curve" smooth="yes"/>
      <point x="585.2688679245283" y="484.16981132075466" type="line" smooth="yes"/>
      <point x="603.9671582548448" y="588.9020061330133"/>
      <point x="562.342904019692" y="720.0"/>
      <point x="369.33962264150944" y="720.0" type="curve"/>
      <point x="288.99528301886795" y="720.0"/>
      <point x="221.11792452830187" y="713.5849056603773"/>
    </contour>
    <contour>
      <point x="171.74056603773585" y="0.0" type="curve"/>
      <point x="166.74056603773585" y="29.830188679245282"/>
      <point x="167.44811320754715" y="63.97641509433963"/>
      <point x="172.1556603773585" y="95.70754716981132" type="curve" smooth="yes"/>
      <point x="193.57075471698113" y="228.97169811320754"/>
      <point x="263.6179245283019" y="357.35849056603774"/>
      <point x="281.83490566037733" y="487.3301886792453" type="curve"/>
      <point x="287.66755302935144" y="527.9960846119136"/>
      <point x="280.8820754716981" y="559.7688679245283"/>
      <point x="262.49056603773585" y="579.5990566037735" type="curve"/>
      <point x="280.3443396226415" y="614.867924528302" type="line"/>
      <point x="175.43396226415095" y="598.0377358490566" type="line"/>
      <point x="148.70283018867923" y="400.8207547169811"/>
      <point x="60.87735849056604" y="274.0990566037736"/>
      <point x="37.63207547169811" y="110.17452830188681" type="curve" smooth="yes"/>
      <point x="27.801886792452827" y="41.929245283018865"/>
      <point x="43.75471698113207" y="-7.7075471698113205"/>
      <point x="118.58962264150944" y="-7.7075471698113205" type="curve" smooth="yes"/>
      <point x="136.688679245283" y="-7.7075471698113205"/>
      <point x="155.64150943396226" y="-5.7075471698113205"/>
    </contour>
  </outline>
</glyph>
<glyph name="S" format="2">
  <advance width="600.0"/>
  <unicode hex="0053"/>
  <anchor x="425.9410396391623" y="711.0" name="top"/>
  <anchor x="232.04238316748868" y="-1.0" name="bottom"/>
  <anchor x="507.31603773584897" y="705.7311320754717" name="dot"/>
  <outline>
    <contour>
      <point x="449.55660377358487" y="720.0" type="curve" smooth="yes"/>
      <point x="316.5094339622642" y="720.0"/>
      <point x="159.9009433962264" y="609.8066037735848"/>
      <point x="126.90094339622641" y="476.95283018867923" type="curve" smooth="yes"/>
      <point x="122.90094339622641" y="460.95283018867923" type="line" smooth="yes"/>
      <point x="107.4622641509434" y="399.75943396226415"/>
      <point x="116.14150943396227" y="323.70754716981133"/>
      <point x="253.36320754716982" y="267.877358490566" type="curve" smooth="yes"/>
      <point x="335.6320754716981" y="234.16981132075472" type="line" smooth="yes"/>
      <point x="379.87264150943395" y="215.41509433962264"/>
      <point x="402.188679245283" y="191.0990566037736"/>
      <point x="395.04245283018867" y="154.6367924528302" type="curve"/>
      <point x="393.188679245283" y="145.5141509433962" type="line"/>
      <point x="363.2122641509434" y="124.08018867924528"/>
      <point x="318.24056603773585" y="111.83962264150944"/>
      <point x="271.49056603773585" y="111.83962264150944" type="curve" smooth="yes"/>
      <point x="156.22169811320757" y="111.83962264150944"/>
      <point x="93.26886792452831" y="142.10849056603774"/>
      <point x="52.0" y="199.4009433962264" type="curve"/>
      <point x="46.29245283018868" y="199.4009433962264" type="line"/>
      <point x="36.58490566037735" y="185.27830188679246"/>
      <point x="27.462264150943398" y="166.17924528301887"/>
      <point x="22.754716981132077" y="142.93396226415095" type="curve" smooth="yes"/>
      <point x="12.070754716981135" y="97.19811320754717"/>
      <point x="20.193396226415096" y="61.85377358490566"/>
      <point x="40.7311320754717" y="41.16981132075472" type="curve" smooth="yes"/>
      <point x="70.87735849056604" y="10.731132075471699"/>
      <point x="132.43867924528303" y="-18.830188679245282"/>
      <point x="251.56132075471697" y="-18.830188679245282" type="curve" smooth="yes"/>
      <point x="394.7358490566038" y="-18.830188679245282"/>
      <point x="482.1981132075472" y="19.339622641509433"/>
      <point x="509.3207547169811" y="127.2688679245283" type="curve" smooth="yes"/>
      <point x="513.0283018867925" y="141.95283018867926" type="line" smooth="yes"/>
      <point x="525.6132075471698" y="192.70754716981133"/>
      <point x="520.2028301886793" y="275.44339622641513"/>
      <point x="403.1509433962264" y="321.9811320754717" type="curve" smooth="yes"/>
      <point x="318.4669811320755" y="355.54245283018867" type="line" smooth="yes"/>
      <point x="257.1320754716981" y="380.75943396226415"/>
      <point x="242.86320754716982" y="410.39150943396226"/>
      <point x="251.00943396226415" y="444.12264150943395" type="curve" smooth="yes"/>
      <point x="253.1556603773585" y="452.85377358490564" type="line" smooth="yes"/>
      <point x="270.6179245283019" y="523.8726415094341"/>
      <point x="367.8537735849057" y="592.5990566037735"/>
      <point x="438.433962264151" y="592.5990566037735" type="curve" smooth="yes"/>
      <point x="468.31132075471703" y="592.5990566037735"/>
      <point x="482.04245283018867" y="587.5990566037735"/>
      <point x="499.23584905660374" y="571.0141509433962" type="curve"/>
      <point x="521.3632075471697" y="622.6037735849056" type="line"/>
      <point x="484.5754716981132" y="585.9481132075472"/>
      <point x="449.7216981132076" y="541.8254716981132"/>
      <point x="437.5518867924529" y="497.438679245283" type="curve" smooth="yes"/>
      <point x="425.1367924528302" y="453.33962264150944"/>
      <point x="446.9433962264151" y="423.2169811320755"/>
      <point x="511.21698113207543" y="423.2169811320755" type="curve" smooth="yes"/>
      <point x="529.1698113207547" y="423.2169811320755"/>
      <point x="547.683962264151" y="426.77830188679246"/>
      <point x="562.7830188679245" y="433.04716981132077" type="curve"/>
      <point x="565.5141509433963" y="475.0943396226415"/>
      <point x="575.8127719790353" y="501.6300792850717"/>
      <point x="592.683962264151" y="560.5330188679246" type="curve" smooth="yes"/>
      <point x="603.9435317646665" y="601.3306815454977"/>
      <point x="598.6804169677174" y="639.536564164358"/>
      <point x="562.5849056603774" y="675.6320754716982" type="curve"/>
      <point x="535.1933962264151" y="703.0235849056603"/>
      <point x="504.77830188679246" y="720.0"/>
    </contour>
  </outline>
</glyph>
<glyph name="T" format="2">
  <advance width="600.0"/>
  <unicode hex="0054"/>
  <anchor x="406.676888695766" y="711.0" name="top"/>
  <anchor x="233.10253486344948" y="-1.0" name="bottom"/>
  <outline>
    <contour>
      <point x="144.9245283018868" y="700.0" type="line"/>
      <point x="139.36320754716982" y="692.5849056603773"/>
      <point x="134.80188679245282" y="682.3160377358491"/>
      <point x="131.0943396226415" y="668.6320754716982" type="curve" smooth="yes"/>
      <point x="111.63473428565283" y="591.0191829467453"/>
      <point x="174.22169811320754" y="569.183962264151"/>
      <point x="251.4009433962264" y="569.183962264151" type="curve" smooth="yes"/>
      <point x="627.0707547169811" y="569.183962264151" type="line"/>
      <point x="636.7547169811321" y="582.5754716981132"/>
      <point x="645.5849056603773" y="600.3820754716982"/>
      <point x="650.1462264150944" y="620.75" type="curve" smooth="yes"/>
      <point x="661.122641509434" y="665.0943396226415"/>
      <point x="645.0235849056603" y="700.0"/>
      <point x="595.872641509434" y="700.0" type="curve" smooth="yes"/>
    </contour>
    <contour>
      <point x="325.6650943396226" y="0.0" type="curve"/>
      <point x="320.6650943396226" y="29.830188679245282"/>
      <point x="321.5188679245283" y="63.976415094339615"/>
      <point x="326.5188679245283" y="95.70754716981132" type="curve" smooth="yes"/>
      <point x="347.811320754717" y="223.8490566037736"/>
      <point x="417.12735849056605" y="347.1132075471698"/>
      <point x="434.49056603773585" y="471.96226415094344" type="curve"/>
      <point x="440.39485402342973" y="513.2012850177117"/>
      <point x="431.9411246718533" y="541.9691304153472"/>
      <point x="411.5849056603774" y="564.3301886792453" type="curve"/>
      <point x="429.43867924528297" y="597.8915094339623" type="line"/>
      <point x="319.25943396226415" y="596.4292452830189" type="line"/>
      <point x="292.67452830188677" y="399.2122641509434"/>
      <point x="205.72641509433961" y="274.09905660377353"/>
      <point x="181.60377358490564" y="110.17452830188678" type="curve"/>
      <point x="171.46681861758444" y="41.838159641980184"/>
      <point x="193.8866941824184" y="-7.7075471698113205"/>
      <point x="272.36792452830184" y="-7.7075471698113205" type="curve"/>
      <point x="290.4669811320755" y="-7.7075471698113205"/>
      <point x="309.5660377358491" y="-5.7075471698113205"/>
    </contour>
  </outline>
</glyph>
<glyph name="U" format="2">
  <advance width="600.0"/>
  <unicode hex="0055"/>
  <anchor x="410.30548590787356" y="711.8537735849056" name="top"/>
  <anchor x="484.09905660377353" y="0.0" name="ogonek"/>
  <anchor x="230.31125109201696" y="-1.0" name="bottom"/>
  <anchor x="408.3901649393453" y="707.4905660377359" name="ring"/>
  <anchor x="418.5377358490566" y="770.0" name="hook"/>
  <anchor x="566.4339622641509" y="700.0" name="horn"/>
  <anchor x="362.0" y="711.0" name="tildeviet"/>
  <outline>
    <contour>
      <point x="481.09905660377353" y="0.0" type="curve"/>
      <point x="473.6839622641509" y="30.7311320754717"/>
      <point x="471.2688679245283" y="66.02358490566039"/>
      <point x="478.12264150943395" y="103.31603773584906" type="curve" smooth="yes"/>
      <point x="505.6839622641509" y="264.19339622641513"/>
      <point x="586.7830188679245" y="416.22169811320754"/>
      <point x="611.7075471698113" y="575.4386792452831" type="curve" smooth="yes"/>
      <point x="627.7311320754717" y="677.9764150943397"/>
      <point x="604.3632075471698" y="707.561320754717"/>
      <point x="531.9669811320755" y="707.561320754717" type="curve"/>
      <point x="512.867924528302" y="707.561320754717"/>
      <point x="500.74528301886795" y="704.7075471698114"/>
      <point x="477.6698113207547" y="700.8537735849056" type="curve"/>
      <point x="483.0425393968043" y="511.56026722693025"/>
      <point x="388.50471698113205" y="334.85849056603774"/>
      <point x="365.50471698113205" y="173.25471698113208" type="curve" smooth="yes"/>
      <point x="342.99056603773585" y="19.14622641509434"/>
      <point x="377.89622641509436" y="-9.415094339622641"/>
      <point x="432.92452830188677" y="-9.415094339622641" type="curve" smooth="yes"/>
      <point x="449.46226415094344" y="-9.415094339622641"/>
      <point x="463.14622641509436" y="-7.415094339622642"/>
    </contour>
    <contour>
      <point x="143.58018867924528" y="-11.462264150943396" type="curve" smooth="yes"/>
      <point x="210.82075471698116" y="-11.462264150943396"/>
      <point x="282.5518867924528" y="26.29245283018868"/>
      <point x="354.5518867924528" y="119.77830188679245" type="curve"/>
      <point x="387.9198113207547" y="118.75471698113206" type="line"/>
      <point x="418.35849056603774" y="274.0754716981132" type="line"/>
      <point x="336.60849056603774" y="160.91509433962264"/>
      <point x="267.3160377358491" y="140.25943396226415"/>
      <point x="194.41509433962264" y="140.25943396226415" type="curve" smooth="yes"/>
      <point x="174.64150943396228" y="140.25943396226415"/>
      <point x="157.1556603773585" y="149.93867924528303"/>
      <point x="149.91037735849056" y="167.73584905660377" type="curve"/>
      <point x="222.52358490566039" y="324.49056603773585"/>
      <point x="267.74056603773585" y="413.4622641509434"/>
      <point x="298.0330188679245" y="544.6792452830189" type="curve" smooth="yes"/>
      <point x="320.0330188679245" y="640.1415094339623"/>
      <point x="301.05660377358487" y="707.4150943396227"/>
      <point x="224.5377358490566" y="707.4150943396227" type="curve" smooth="yes"/>
      <point x="204.2618561958" y="707.4150943396227"/>
      <point x="185.14645293532453" y="705.4088054905519"/>
      <point x="159.99528301886792" y="699.1462264150944" type="curve"/>
      <point x="165.8249233472854" y="668.0650968745183"/>
      <point x="167.0120471805104" y="632.4186552085755"/>
      <point x="157.6556603773585" y="573.0" type="curve" smooth="yes"/>
      <point x="138.3226331189453" y="447.4137768121099"/>
      <point x="61.9245283018868" y="308.5377358490566"/>
      <point x="36.778301886792455" y="178.58962264150944" type="curve" smooth="yes"/>
      <point x="20.924528301886795" y="98.12735849056604"/>
      <point x="66.83526165891791" y="-11.462264150943396"/>
    </contour>
  </outline>
</glyph>
<glyph name="V" format="2">
  <advance width="600.0"/>
  <unicode hex="0056"/>
  <anchor x="300.0" y="711.0" name="top"/>
  <anchor x="300.0" y="0.0" name="bottom"/>
  <outline>
    <contour>
      <point x="204.2452830188679" y="707.4150943396227" type="curve" smooth="yes"/>
      <point x="189.56132075471697" y="707.4150943396227"/>
      <point x="172.31603773584908" y="705.5613207547169"/>
      <point x="149.3867924528302" y="700.0" type="curve"/>
      <point x="152.80188679245285" y="667.5849056603773"/>
      <point x="148.94811320754715" y="636.4858490566038"/>
      <point x="136.24056603773585" y="571.5330188679245" type="curve" smooth="yes"/>
      <point x="88.55660377358491" y="334.16037735849056"/>
      <point x="87.31132075471697" y="131.04245283018867"/>
      <point x="150.5566037735849" y="38.60849056603773" type="curve" smooth="yes"/>
      <point x="176.67924528301887" y="0.41509433962264186"/>
      <point x="196.92452830188677" y="-8.29245283018868"/>
      <point x="236.0235849056604" y="-8.29245283018868" type="curve" smooth="yes"/>
      <point x="256.97641509433964" y="-8.29245283018868"/>
      <point x="280.34433962264154" y="-6.2924528301886795"/>
      <point x="296.1745283018868" y="-0.8773584905660377" type="curve"/>
      <point x="444.4622641509434" y="103.35849056603773"/>
      <point x="552.632075471698" y="307.9198113207547"/>
      <point x="617.122641509434" y="572.6745283018868" type="curve" smooth="yes"/>
      <point x="641.3443396226415" y="669.3396226415094"/>
      <point x="612.4150943396227" y="707.2688679245283"/>
      <point x="539.1886792452831" y="707.2688679245283" type="curve" smooth="yes"/>
      <point x="527.627358490566" y="707.2688679245283"/>
      <point x="505.6981132075472" y="705.4150943396227"/>
      <point x="480.06132075471703" y="700.0" type="curve"/>
      <point x="455.76886792452825" y="397.1698113207548"/>
      <point x="369.9716981132076" y="236.17924528301887"/>
      <point x="236.0" y="84.91037735849056" type="curve"/>
      <point x="278.9056603773585" y="100.88679245283019" type="line"/>
      <point x="220.19339622641508" y="117.10849056603773" type="line"/>
      <point x="253.5377358490566" y="85.91037735849056" type="line"/>
      <point x="225.22641509433961" y="227.57075471698116"/>
      <point x="241.6933962264151" y="364.41037735849056"/>
      <point x="282.5943396226415" y="573.0188679245283" type="curve" smooth="yes"/>
      <point x="299.4481132075471" y="658.2405660377359"/>
      <point x="285.4481132075472" y="707.4150943396227"/>
    </contour>
  </outline>
</glyph>
<glyph name="W" format="2">
  <advance width="600.0"/>
  <unicode hex="0057"/>
  <anchor x="409.94575662029433" y="711.0" name="top"/>
  <anchor x="300.0" y="0.0" name="bottom"/>
  <outline>
    <contour>
      <point x="124.63207547169812" y="700.0" type="curve"/>
      <point x="126.77830188679245" y="666.0235849056604"/>
      <point x="120.21698113207547" y="620.2405660377358"/>
      <point x="110.63207547169812" y="580.9245283018868" type="curve" smooth="yes"/>
      <point x="20.339622641509436" y="216.58018867924528"/>
      <point x="28.87735849056603" y="79.2877358490566"/>
      <point x="74.19339622641508" y="13.023584905660378" type="curve" smooth="yes"/>
      <point x="85.90094339622642" y="-3.2688679245283017"/>
      <point x="100.75471698113208" y="-8.415094339622641"/>
      <point x="118.16981132075472" y="-9.268867924528301" type="curve" smooth="yes"/>
      <point x="127.4622641509434" y="-9.268867924528301"/>
      <point x="136.16981132075472" y="-8.268867924528301"/>
      <point x="147.02358490566036" y="-5.122641509433962" type="curve"/>
      <point x="198.75471698113208" y="56.16981132075472"/>
      <point x="244.50943396226415" y="122.53301886792453"/>
      <point x="294.4858490566038" y="235.11320754716982" type="curve"/>
      <point x="249.99528301886792" y="211.35849056603774" type="line"/>
      <point x="310.316037735849" y="203.79716981132077" type="line"/>
      <point x="289.50943396226415" y="238.25943396226418" type="line"/>
      <point x="279.8342717444401" y="113.89885659856274"/>
      <point x="286.877358490566" y="54.90094339622642"/>
      <point x="314.70754716981133" y="13.316037735849058" type="curve" smooth="yes"/>
      <point x="326.8301886792453" y="-3.537735849056604"/>
      <point x="340.09905660377353" y="-9.268867924528301"/>
      <point x="358.24528301886795" y="-9.268867924528301" type="curve" smooth="yes"/>
      <point x="365.97641509433964" y="-9.268867924528301"/>
      <point x="373.2688679245283" y="-7.268867924528302"/>
      <point x="382.26886792452825" y="-5.122641509433962" type="curve"/>
      <point x="492.8018867924528" y="109.8254716981132"/>
      <point x="574.6603773584906" y="287.7877358490566"/>
      <point x="640.632075471698" y="546.6933962264151" type="curve" smooth="yes"/>
      <point x="672.2935535295471" y="668.5807528399959"/>
      <point x="649.7215709708981" y="707.7075471698114"/>
      <point x="581.627358490566" y="707.7075471698114" type="curve" smooth="yes"/>
      <point x="559.6534833091108" y="707.7075471698114"/>
      <point x="545.3329425158647" y="705.652517017158"/>
      <point x="522.2075471698113" y="700.0" type="curve"/>
      <point x="496.82547169811323" y="443.0707547169812"/>
      <point x="420.6248688515556" y="235.0149438861066"/>
      <point x="354.39150943396226" y="120.35377358490565" type="curve"/>
      <point x="395.9292452830189" y="142.89150943396226" type="line"/>
      <point x="334.2924528301887" y="151.74528301886792" type="line"/>
      <point x="365.97641509433964" y="117.35377358490565" type="line"/>
      <point x="346.4433962264151" y="216.08490566037733"/>
      <point x="357.24528301886795" y="326.60849056603774"/>
      <point x="393.0235849056604" y="470.2830188679245" type="curve" smooth="yes"/>
      <point x="404.7311320754717" y="518.1132075471697"/>
      <point x="381.4622641509434" y="535.9669811320755"/>
      <point x="343.6556603773585" y="535.9669811320755" type="curve" smooth="yes"/>
      <point x="325.41037735849056" y="535.9669811320755" type="line"/>
      <point x="277.7783018867924" y="341.58490566037733"/>
      <point x="235.19339622641508" y="238.7877358490566"/>
      <point x="154.5424528301887" y="120.59905660377358" type="curve"/>
      <point x="200.39622641509433" y="142.74528301886792" type="line"/>
      <point x="136.58962264150944" y="151.59905660377356" type="line"/>
      <point x="165.58962264150944" y="117.35377358490565" type="line"/>
      <point x="159.37735849056602" y="215.1556603773585"/>
      <point x="179.81603773584908" y="349.4952830188679"/>
      <point x="246.03301886792454" y="579.2641509433963" type="curve" smooth="yes"/>
      <point x="268.2395599755746" y="657.0719489195982"/>
      <point x="253.09791539868303" y="707.561320754717"/>
      <point x="179.3679245283019" y="707.561320754717" type="curve" smooth="yes"/>
      <point x="160.36236753681368" y="707.561320754717"/>
      <point x="146.17936299870283" y="704.6651384830004"/>
    </contour>
  </outline>
</glyph>
<glyph name="X" format="2">
  <advance width="600.0"/>
  <unicode hex="0058"/>
  <anchor x="300.0" y="711.0" name="top"/>
  <anchor x="300.0" y="0.0" name="bottom"/>
  <outline>
    <contour>
      <point x="439.97169811320754" y="-9.415094339622641" type="curve" smooth="yes"/>
      <point x="462.0707547169812" y="-9.415094339622641"/>
      <point x="487.02358490566036" y="-5.7075471698113205"/>
      <point x="506.4150943396226" y="0.0" type="curve"/>
      <point x="452.9292452830189" y="80.68396226415094"/>
      <point x="405.9811320754717" y="197.92924528301887"/>
      <point x="368.64150943396226" y="321.0754716981132" type="curve" smooth="yes"/>
      <point x="350.10377358490564" y="389.3254716981132" type="line"/>
      <point x="324.26661009685284" y="483.5068689260797"/>
      <point x="313.0328264327604" y="548.2442874817241"/>
      <point x="303.93867924528297" y="620.8962264150944" type="curve" smooth="yes"/>
      <point x="298.5871850949901" y="668.8431801452836"/>
      <point x="274.9858490566038" y="707.2688679245283"/>
      <point x="206.1745283018868" y="707.2688679245283" type="curve" smooth="yes"/>
      <point x="183.51415094339623" y="707.2688679245283"/>
      <point x="162.2924528301887" y="705.4150943396226"/>
      <point x="138.07075471698113" y="700.0" type="curve"/>
      <point x="156.07075471698113" y="584.2688679245283"/>
      <point x="191.33962264150944" y="431.9764150943396"/>
      <point x="236.6556603773585" y="292.43867924528297" type="curve" smooth="yes"/>
      <point x="255.75471698113205" y="230.75" type="line"/>
      <point x="282.8490566037736" y="156.29245283018867"/>
      <point x="312.5754716981132" y="89.61320754716981"/>
      <point x="338.2311320754717" y="40.58962264150943" type="curve" smooth="yes"/>
      <point x="354.061320754717" y="9.245283018867925"/>
      <point x="382.7191582003231" y="-9.415094339622641"/>
    </contour>
    <contour>
      <point x="577.382075471698" y="707.4150943396227" type="curve" smooth="yes"/>
      <point x="555.9905660377359" y="707.4150943396227"/>
      <point x="541.3066037735848" y="705.5613207547169"/>
      <point x="519.4999999999999" y="700.0" type="curve"/>
      <point x="466.79716981132077" y="575.0990566037735"/>
      <point x="411.6320754716981" y="484.88207547169816"/>
      <point x="350.95754716981133" y="410.00943396226415" type="curve"/>
      <point x="302.0518867924529" y="410.74056603773585" type="line"/>
      <point x="349.85849056603774" y="282.75471698113205" type="line"/>
      <point x="483.46916564822214" y="394.3196532456906"/>
      <point x="577.8298530344534" y="493.226965005691"/>
      <point x="637.4622641509434" y="599.7735849056604" type="curve" smooth="yes"/>
      <point x="673.6992757081301" y="665.0382947730245"/>
      <point x="651.1933962264152" y="707.4150943396227"/>
    </contour>
    <contour>
      <point x="65.17924528301887" y="-7.415094339622642" type="curve" smooth="yes"/>
      <point x="86.27830188679246" y="-7.415094339622642"/>
      <point x="110.5" y="-4.561320754716982"/>
      <point x="127.89150943396226" y="0.0" type="curve"/>
      <point x="162.30188679245285" y="78.65566037735849"/>
      <point x="206.19811320754718" y="152.87264150943398"/>
      <point x="256.7547169811321" y="210.77358490566039" type="curve"/>
      <point x="295.70754716981133" y="209.89622641509433" type="line"/>
      <point x="255.85377358490564" y="336.49056603773585" type="line"/>
      <point x="132.75471698113208" y="246.05188679245282"/>
      <point x="46.16981132075471" y="162.1509433962264"/>
      <point x="-1.900943396226416" y="85.81132075471697" type="curve" smooth="yes"/>
      <point x="-33.58490566037736" y="35.735849056603776"/>
      <point x="-4.778301886792454" y="-7.415094339622642"/>
    </contour>
  </outline>
</glyph>
